<svg width="1067" height="400" viewBox="0 0 1067 400" fill="none" xmlns="http://www.w3.org/2000/svg">
<g clip-path="url(#clip0_1_351)">
<rect x="0.286865" width="1066.67" height="400" fill="#0E1027"/>
<g clip-path="url(#clip1_1_351)">
<mask id="mask0_1_351" style="mask-type:alpha" maskUnits="userSpaceOnUse" x="0" y="0" width="1069" height="478">
<path d="M1069 0H0V477.919H1069V0Z" fill="url(#paint0_radial_1_351)" fill-opacity="0.7"/>
</mask>
<g mask="url(#mask0_1_351)">
<g opacity="0.14">
<path d="M5.86866 0.6763H-23.4747V29.9827H5.86866V0.6763Z" stroke="#E2E7F0" stroke-width="1.5"/>
<path d="M35.212 0.6763H5.86866V29.9827H35.212V0.6763Z" stroke="#E2E7F0" stroke-width="1.5"/>
<path d="M64.5553 0.6763H35.212V29.9827H64.5553V0.6763Z" fill="#E2E7F0" fill-opacity="0.3" stroke="#E2E7F0" stroke-width="1.5"/>
<path d="M93.8986 0.6763H64.5553V29.9827H93.8986V0.6763Z" stroke="#E2E7F0" stroke-width="1.5"/>
<path d="M123.242 0.6763H93.8986V29.9827H123.242V0.6763Z" stroke="#E2E7F0" stroke-width="1.5"/>
<path d="M152.585 0.6763H123.242V29.9827H152.585V0.6763Z" stroke="#E2E7F0" stroke-width="1.5"/>
<path d="M181.929 0.6763H152.585V29.9827H181.929V0.6763Z" stroke="#E2E7F0" stroke-width="1.5"/>
<path d="M211.272 0.6763H181.929V29.9827H211.272V0.6763Z" stroke="#E2E7F0" stroke-width="1.5"/>
<path d="M240.615 0.6763H211.272V29.9827H240.615V0.6763Z" fill="#E2E7F0" fill-opacity="0.3" stroke="#E2E7F0" stroke-width="1.5"/>
<path d="M269.959 0.6763H240.615V29.9827H269.959V0.6763Z" stroke="#E2E7F0" stroke-width="1.5"/>
<path d="M299.302 0.6763H269.959V29.9827H299.302V0.6763Z" stroke="#E2E7F0" stroke-width="1.5"/>
<path d="M328.645 0.6763H299.302V29.9827H328.645V0.6763Z" stroke="#E2E7F0" stroke-width="1.5"/>
<path d="M357.989 0.6763H328.645V29.9827H357.989V0.6763Z" stroke="#E2E7F0" stroke-width="1.5"/>
<path d="M387.332 0.6763H357.989V29.9827H387.332V0.6763Z" stroke="#E2E7F0" stroke-width="1.5"/>
<path d="M416.675 0.6763H387.332V29.9827H416.675V0.6763Z" stroke="#E2E7F0" stroke-width="1.5"/>
<path d="M446.019 0.6763H416.675V29.9827H446.019V0.6763Z" stroke="#E2E7F0" stroke-width="1.5"/>
<path d="M475.362 0.6763H446.019V29.9827H475.362V0.6763Z" stroke="#E2E7F0" stroke-width="1.5"/>
<path d="M504.705 0.6763H475.362V29.9827H504.705V0.6763Z" stroke="#E2E7F0" stroke-width="1.5"/>
<path d="M534.049 0.6763H504.705V29.9827H534.049V0.6763Z" stroke="#E2E7F0" stroke-width="1.5"/>
<path d="M563.392 0.6763H534.049V29.9827H563.392V0.6763Z" stroke="#E2E7F0" stroke-width="1.5"/>
<path d="M592.735 0.6763H563.392V29.9827H592.735V0.6763Z" stroke="#E2E7F0" stroke-width="1.5"/>
<path d="M622.078 0.6763H592.735V29.9827H622.078V0.6763Z" stroke="#E2E7F0" stroke-width="1.5"/>
<path d="M651.422 0.6763H622.079V29.9827H651.422V0.6763Z" stroke="#E2E7F0" stroke-width="1.5"/>
<path d="M680.765 0.6763H651.422V29.9827H680.765V0.6763Z" stroke="#E2E7F0" stroke-width="1.5"/>
<path d="M710.109 0.6763H680.765V29.9827H710.109V0.6763Z" stroke="#E2E7F0" stroke-width="1.5"/>
<path d="M739.452 0.6763H710.109V29.9827H739.452V0.6763Z" fill="#E2E7F0" fill-opacity="0.3" stroke="#E2E7F0" stroke-width="1.5"/>
<path d="M768.795 0.6763H739.452V29.9827H768.795V0.6763Z" stroke="#E2E7F0" stroke-width="1.5"/>
<path d="M798.138 0.6763H768.795V29.9827H798.138V0.6763Z" stroke="#E2E7F0" stroke-width="1.5"/>
<path d="M827.482 0.6763H798.139V29.9827H827.482V0.6763Z" fill="#E2E7F0" fill-opacity="0.3" stroke="#E2E7F0" stroke-width="1.5"/>
<path d="M856.825 0.6763H827.482V29.9827H856.825V0.6763Z" stroke="#E2E7F0" stroke-width="1.5"/>
<path d="M886.168 0.6763H856.825V29.9827H886.168V0.6763Z" stroke="#E2E7F0" stroke-width="1.5"/>
<path d="M915.512 0.6763H886.168V29.9827H915.512V0.6763Z" stroke="#E2E7F0" stroke-width="1.5"/>
<path d="M944.855 0.6763H915.512V29.9827H944.855V0.6763Z" stroke="#E2E7F0" stroke-width="1.5"/>
<path d="M974.199 0.6763H944.855V29.9827H974.199V0.6763Z" stroke="#E2E7F0" stroke-width="1.5"/>
<path d="M1003.54 0.6763H974.198V29.9827H1003.54V0.6763Z" stroke="#E2E7F0" stroke-width="1.5"/>
<path d="M1032.89 0.6763H1003.54V29.9827H1032.89V0.6763Z" stroke="#E2E7F0" stroke-width="1.5"/>
<path d="M1062.23 0.6763H1032.89V29.9827H1062.23V0.6763Z" stroke="#E2E7F0" stroke-width="1.5"/>
<path d="M1091.57 0.6763H1062.23V29.9827H1091.57V0.6763Z" fill="#E2E7F0" fill-opacity="0.3" stroke="#E2E7F0" stroke-width="1.5"/>
<path d="M5.86866 29.9827H-23.4747V59.289H5.86866V29.9827Z" stroke="#E2E7F0" stroke-width="1.5"/>
<path d="M35.212 29.9827H5.86866V59.289H35.212V29.9827Z" stroke="#E2E7F0" stroke-width="1.5"/>
<path d="M64.5553 29.9827H35.212V59.289H64.5553V29.9827Z" stroke="#E2E7F0" stroke-width="1.5"/>
<path d="M93.8986 29.9827H64.5553V59.289H93.8986V29.9827Z" stroke="#E2E7F0" stroke-width="1.5"/>
<path d="M123.242 29.9827H93.8986V59.289H123.242V29.9827Z" stroke="#E2E7F0" stroke-width="1.5"/>
<path d="M152.585 29.9827H123.242V59.289H152.585V29.9827Z" stroke="#E2E7F0" stroke-width="1.5"/>
<path d="M181.929 29.9827H152.585V59.289H181.929V29.9827Z" fill="#E2E7F0" fill-opacity="0.3" stroke="#E2E7F0" stroke-width="1.5"/>
<path d="M211.272 29.9827H181.929V59.289H211.272V29.9827Z" stroke="#E2E7F0" stroke-width="1.5"/>
<path d="M240.615 29.9827H211.272V59.289H240.615V29.9827Z" stroke="#E2E7F0" stroke-width="1.5"/>
<path d="M269.959 29.9827H240.615V59.289H269.959V29.9827Z" stroke="#E2E7F0" stroke-width="1.5"/>
<path d="M299.302 29.9827H269.959V59.289H299.302V29.9827Z" stroke="#E2E7F0" stroke-width="1.5"/>
<path d="M328.645 29.9827H299.302V59.289H328.645V29.9827Z" stroke="#E2E7F0" stroke-width="1.5"/>
<path d="M357.989 29.9827H328.645V59.289H357.989V29.9827Z" stroke="#E2E7F0" stroke-width="1.5"/>
<path d="M387.332 29.9827H357.989V59.289H387.332V29.9827Z" stroke="#E2E7F0" stroke-width="1.5"/>
<path d="M416.675 29.9827H387.332V59.289H416.675V29.9827Z" stroke="#E2E7F0" stroke-width="1.5"/>
<path d="M446.019 29.9827H416.675V59.289H446.019V29.9827Z" stroke="#E2E7F0" stroke-width="1.5"/>
<path d="M475.362 29.9827H446.019V59.289H475.362V29.9827Z" stroke="#E2E7F0" stroke-width="1.5"/>
<path d="M504.705 29.9827H475.362V59.289H504.705V29.9827Z" stroke="#E2E7F0" stroke-width="1.5"/>
<path d="M534.049 29.9827H504.705V59.289H534.049V29.9827Z" stroke="#E2E7F0" stroke-width="1.5"/>
<path d="M563.392 29.9827H534.049V59.289H563.392V29.9827Z" stroke="#E2E7F0" stroke-width="1.5"/>
<path d="M592.735 29.9827H563.392V59.289H592.735V29.9827Z" stroke="#E2E7F0" stroke-width="1.5"/>
<path d="M622.078 29.9827H592.735V59.289H622.078V29.9827Z" stroke="#E2E7F0" stroke-width="1.5"/>
<path d="M651.422 29.9827H622.079V59.289H651.422V29.9827Z" stroke="#E2E7F0" stroke-width="1.5"/>
<path d="M680.765 29.9827H651.422V59.289H680.765V29.9827Z" stroke="#E2E7F0" stroke-width="1.5"/>
<path d="M710.109 29.9827H680.765V59.289H710.109V29.9827Z" stroke="#E2E7F0" stroke-width="1.5"/>
<path d="M739.452 29.9827H710.109V59.289H739.452V29.9827Z" stroke="#E2E7F0" stroke-width="1.5"/>
<path d="M768.795 29.9827H739.452V59.289H768.795V29.9827Z" stroke="#E2E7F0" stroke-width="1.5"/>
<path d="M798.138 29.9827H768.795V59.289H798.138V29.9827Z" stroke="#E2E7F0" stroke-width="1.5"/>
<path d="M827.482 29.9827H798.139V59.289H827.482V29.9827Z" stroke="#E2E7F0" stroke-width="1.5"/>
<path d="M856.825 29.9827H827.482V59.289H856.825V29.9827Z" stroke="#E2E7F0" stroke-width="1.5"/>
<path d="M886.168 29.9827H856.825V59.289H886.168V29.9827Z" stroke="#E2E7F0" stroke-width="1.5"/>
<path d="M915.512 29.9827H886.168V59.289H915.512V29.9827Z" stroke="#E2E7F0" stroke-width="1.5"/>
<path d="M944.855 29.9827H915.512V59.289H944.855V29.9827Z" fill="#E2E7F0" fill-opacity="0.3" stroke="#E2E7F0" stroke-width="1.5"/>
<path d="M974.199 29.9827H944.855V59.289H974.199V29.9827Z" stroke="#E2E7F0" stroke-width="1.5"/>
<path d="M1003.54 29.9827H974.198V59.289H1003.54V29.9827Z" stroke="#E2E7F0" stroke-width="1.5"/>
<path d="M1032.89 29.9827H1003.54V59.289H1032.89V29.9827Z" stroke="#E2E7F0" stroke-width="1.5"/>
<path d="M1062.23 29.9827H1032.89V59.289H1062.23V29.9827Z" stroke="#E2E7F0" stroke-width="1.5"/>
<path d="M1091.57 29.9827H1062.23V59.289H1091.57V29.9827Z" stroke="#E2E7F0" stroke-width="1.5"/>
<path d="M5.86866 59.289H-23.4747V88.5954H5.86866V59.289Z" stroke="#E2E7F0" stroke-width="1.5"/>
<path d="M35.212 59.289H5.86866V88.5954H35.212V59.289Z" stroke="#E2E7F0" stroke-width="1.5"/>
<path d="M64.5553 59.289H35.212V88.5954H64.5553V59.289Z" stroke="#E2E7F0" stroke-width="1.5"/>
<path d="M93.8986 59.289H64.5553V88.5954H93.8986V59.289Z" stroke="#E2E7F0" stroke-width="1.5"/>
<path d="M123.242 59.289H93.8986V88.5954H123.242V59.289Z" stroke="#E2E7F0" stroke-width="1.5"/>
<path d="M152.585 59.289H123.242V88.5954H152.585V59.289Z" stroke="#E2E7F0" stroke-width="1.5"/>
<path d="M181.929 59.289H152.585V88.5954H181.929V59.289Z" stroke="#E2E7F0" stroke-width="1.5"/>
<path d="M211.272 59.289H181.929V88.5954H211.272V59.289Z" stroke="#E2E7F0" stroke-width="1.5"/>
<path d="M240.615 59.289H211.272V88.5954H240.615V59.289Z" stroke="#E2E7F0" stroke-width="1.5"/>
<path d="M269.959 59.289H240.615V88.5954H269.959V59.289Z" stroke="#E2E7F0" stroke-width="1.5"/>
<path d="M299.302 59.289H269.959V88.5954H299.302V59.289Z" stroke="#E2E7F0" stroke-width="1.5"/>
<path d="M328.645 59.289H299.302V88.5954H328.645V59.289Z" stroke="#E2E7F0" stroke-width="1.5"/>
<path d="M357.989 59.289H328.645V88.5954H357.989V59.289Z" stroke="#E2E7F0" stroke-width="1.5"/>
<path d="M387.332 59.289H357.989V88.5954H387.332V59.289Z" stroke="#E2E7F0" stroke-width="1.5"/>
<path d="M416.675 59.289H387.332V88.5954H416.675V59.289Z" stroke="#E2E7F0" stroke-width="1.5"/>
<path d="M446.019 59.289H416.675V88.5954H446.019V59.289Z" stroke="#E2E7F0" stroke-width="1.5"/>
<path d="M475.362 59.289H446.019V88.5954H475.362V59.289Z" stroke="#E2E7F0" stroke-width="1.5"/>
<path d="M504.705 59.289H475.362V88.5954H504.705V59.289Z" stroke="#E2E7F0" stroke-width="1.5"/>
<path d="M534.049 59.289H504.705V88.5954H534.049V59.289Z" stroke="#E2E7F0" stroke-width="1.5"/>
<path d="M563.392 59.289H534.049V88.5954H563.392V59.289Z" stroke="#E2E7F0" stroke-width="1.5"/>
<path d="M592.735 59.289H563.392V88.5954H592.735V59.289Z" stroke="#E2E7F0" stroke-width="1.5"/>
<path d="M622.078 59.289H592.735V88.5954H622.078V59.289Z" stroke="#E2E7F0" stroke-width="1.5"/>
<path d="M651.422 59.289H622.079V88.5954H651.422V59.289Z" stroke="#E2E7F0" stroke-width="1.5"/>
<path d="M680.765 59.289H651.422V88.5954H680.765V59.289Z" stroke="#E2E7F0" stroke-width="1.5"/>
<path d="M710.109 59.289H680.765V88.5954H710.109V59.289Z" stroke="#E2E7F0" stroke-width="1.5"/>
<path d="M739.452 59.289H710.109V88.5954H739.452V59.289Z" stroke="#E2E7F0" stroke-width="1.5"/>
<path d="M768.795 59.289H739.452V88.5954H768.795V59.289Z" stroke="#E2E7F0" stroke-width="1.5"/>
<path d="M798.138 59.289H768.795V88.5954H798.138V59.289Z" stroke="#E2E7F0" stroke-width="1.5"/>
<path d="M827.482 59.289H798.139V88.5954H827.482V59.289Z" stroke="#E2E7F0" stroke-width="1.5"/>
<path d="M856.825 59.289H827.482V88.5954H856.825V59.289Z" stroke="#E2E7F0" stroke-width="1.5"/>
<path d="M886.168 59.289H856.825V88.5954H886.168V59.289Z" stroke="#E2E7F0" stroke-width="1.5"/>
<path d="M915.512 59.289H886.168V88.5954H915.512V59.289Z" stroke="#E2E7F0" stroke-width="1.5"/>
<path d="M944.855 59.289H915.512V88.5954H944.855V59.289Z" stroke="#E2E7F0" stroke-width="1.5"/>
<path d="M974.199 59.289H944.855V88.5954H974.199V59.289Z" stroke="#E2E7F0" stroke-width="1.5"/>
<path d="M1003.54 59.289H974.198V88.5954H1003.54V59.289Z" stroke="#E2E7F0" stroke-width="1.5"/>
<path d="M1032.89 59.289H1003.54V88.5954H1032.89V59.289Z" stroke="#E2E7F0" stroke-width="1.5"/>
<path d="M1062.23 59.289H1032.89V88.5954H1062.23V59.289Z" stroke="#E2E7F0" stroke-width="1.5"/>
<path d="M1091.57 59.289H1062.23V88.5954H1091.57V59.289Z" stroke="#E2E7F0" stroke-width="1.5"/>
<path d="M5.86866 88.5954H-23.4747V117.902H5.86866V88.5954Z" stroke="#E2E7F0" stroke-width="1.5"/>
<path d="M35.212 88.5954H5.86866V117.902H35.212V88.5954Z" stroke="#E2E7F0" stroke-width="1.5"/>
<path d="M64.5553 88.5954H35.212V117.902H64.5553V88.5954Z" stroke="#E2E7F0" stroke-width="1.5"/>
<path d="M93.8986 88.5954H64.5553V117.902H93.8986V88.5954Z" stroke="#E2E7F0" stroke-width="1.5"/>
<path d="M123.242 88.5954H93.8986V117.902H123.242V88.5954Z" stroke="#E2E7F0" stroke-width="1.5"/>
<path d="M152.585 88.5954H123.242V117.902H152.585V88.5954Z" stroke="#E2E7F0" stroke-width="1.5"/>
<path d="M181.929 88.5954H152.585V117.902H181.929V88.5954Z" stroke="#E2E7F0" stroke-width="1.5"/>
<path d="M211.272 88.5954H181.929V117.902H211.272V88.5954Z" stroke="#E2E7F0" stroke-width="1.5"/>
<path d="M240.615 88.5954H211.272V117.902H240.615V88.5954Z" stroke="#E2E7F0" stroke-width="1.5"/>
<path d="M269.959 88.5954H240.615V117.902H269.959V88.5954Z" stroke="#E2E7F0" stroke-width="1.5"/>
<path d="M299.302 88.5954H269.959V117.902H299.302V88.5954Z" stroke="#E2E7F0" stroke-width="1.5"/>
<path d="M328.645 88.5954H299.302V117.902H328.645V88.5954Z" stroke="#E2E7F0" stroke-width="1.5"/>
<path d="M357.989 88.5954H328.645V117.902H357.989V88.5954Z" stroke="#E2E7F0" stroke-width="1.5"/>
<path d="M387.332 88.5954H357.989V117.902H387.332V88.5954Z" stroke="#E2E7F0" stroke-width="1.5"/>
<path d="M416.675 88.5954H387.332V117.902H416.675V88.5954Z" stroke="#E2E7F0" stroke-width="1.5"/>
<path d="M446.019 88.5954H416.675V117.902H446.019V88.5954Z" stroke="#E2E7F0" stroke-width="1.5"/>
<path d="M475.362 88.5954H446.019V117.902H475.362V88.5954Z" stroke="#E2E7F0" stroke-width="1.5"/>
<path d="M504.705 88.5954H475.362V117.902H504.705V88.5954Z" stroke="#E2E7F0" stroke-width="1.5"/>
<path d="M534.049 88.5954H504.705V117.902H534.049V88.5954Z" stroke="#E2E7F0" stroke-width="1.5"/>
<path d="M563.392 88.5954H534.049V117.902H563.392V88.5954Z" stroke="#E2E7F0" stroke-width="1.5"/>
<path d="M592.735 88.5954H563.392V117.902H592.735V88.5954Z" stroke="#E2E7F0" stroke-width="1.5"/>
<path d="M622.078 88.5954H592.735V117.902H622.078V88.5954Z" stroke="#E2E7F0" stroke-width="1.5"/>
<path d="M651.422 88.5954H622.079V117.902H651.422V88.5954Z" stroke="#E2E7F0" stroke-width="1.5"/>
<path d="M680.765 88.5954H651.422V117.902H680.765V88.5954Z" stroke="#E2E7F0" stroke-width="1.5"/>
<path d="M710.109 88.5954H680.765V117.902H710.109V88.5954Z" stroke="#E2E7F0" stroke-width="1.5"/>
<path d="M739.452 88.5954H710.109V117.902H739.452V88.5954Z" stroke="#E2E7F0" stroke-width="1.5"/>
<path d="M768.795 88.5954H739.452V117.902H768.795V88.5954Z" stroke="#E2E7F0" stroke-width="1.5"/>
<path d="M798.138 88.5954H768.795V117.902H798.138V88.5954Z" stroke="#E2E7F0" stroke-width="1.5"/>
<path d="M827.482 88.5954H798.139V117.902H827.482V88.5954Z" stroke="#E2E7F0" stroke-width="1.5"/>
<path d="M856.825 88.5954H827.482V117.902H856.825V88.5954Z" fill="#E2E7F0" fill-opacity="0.3" stroke="#E2E7F0" stroke-width="1.5"/>
<path d="M886.168 88.5954H856.825V117.902H886.168V88.5954Z" stroke="#E2E7F0" stroke-width="1.5"/>
<path d="M915.512 88.5954H886.168V117.902H915.512V88.5954Z" stroke="#E2E7F0" stroke-width="1.5"/>
<path d="M944.855 88.5954H915.512V117.902H944.855V88.5954Z" stroke="#E2E7F0" stroke-width="1.5"/>
<path d="M974.199 88.5954H944.855V117.902H974.199V88.5954Z" stroke="#E2E7F0" stroke-width="1.5"/>
<path d="M1003.54 88.5954H974.198V117.902H1003.54V88.5954Z" fill="#E2E7F0" fill-opacity="0.3" stroke="#E2E7F0" stroke-width="1.5"/>
<path d="M1032.89 88.5954H1003.54V117.902H1032.89V88.5954Z" stroke="#E2E7F0" stroke-width="1.5"/>
<path d="M1062.23 88.5954H1032.89V117.902H1062.23V88.5954Z" stroke="#E2E7F0" stroke-width="1.5"/>
<path d="M1091.57 88.5954H1062.23V117.902H1091.57V88.5954Z" fill="#E2E7F0" fill-opacity="0.3" stroke="#E2E7F0" stroke-width="1.5"/>
<path d="M5.86866 117.902H-23.4747V147.208H5.86866V117.902Z" stroke="#E2E7F0" stroke-width="1.5"/>
<path d="M35.212 117.902H5.86866V147.208H35.212V117.902Z" fill="#E2E7F0" fill-opacity="0.3" stroke="#E2E7F0" stroke-width="1.5"/>
<path d="M64.5553 117.902H35.212V147.208H64.5553V117.902Z" stroke="#E2E7F0" stroke-width="1.5"/>
<path d="M93.8986 117.902H64.5553V147.208H93.8986V117.902Z" stroke="#E2E7F0" stroke-width="1.5"/>
<path d="M123.242 117.902H93.8986V147.208H123.242V117.902Z" stroke="#E2E7F0" stroke-width="1.5"/>
<path d="M152.585 117.902H123.242V147.208H152.585V117.902Z" stroke="#E2E7F0" stroke-width="1.5"/>
<path d="M181.929 117.902H152.585V147.208H181.929V117.902Z" fill="#E2E7F0" fill-opacity="0.3" stroke="#E2E7F0" stroke-width="1.5"/>
<path d="M211.272 117.902H181.929V147.208H211.272V117.902Z" stroke="#E2E7F0" stroke-width="1.5"/>
<path d="M240.615 117.902H211.272V147.208H240.615V117.902Z" stroke="#E2E7F0" stroke-width="1.5"/>
<path d="M269.959 117.902H240.615V147.208H269.959V117.902Z" stroke="#E2E7F0" stroke-width="1.5"/>
<path d="M299.302 117.902H269.959V147.208H299.302V117.902Z" stroke="#E2E7F0" stroke-width="1.5"/>
<path d="M328.645 117.902H299.302V147.208H328.645V117.902Z" stroke="#E2E7F0" stroke-width="1.5"/>
<path d="M357.989 117.902H328.645V147.208H357.989V117.902Z" stroke="#E2E7F0" stroke-width="1.5"/>
<path d="M387.332 117.902H357.989V147.208H387.332V117.902Z" stroke="#E2E7F0" stroke-width="1.5"/>
<path d="M416.675 117.902H387.332V147.208H416.675V117.902Z" stroke="#E2E7F0" stroke-width="1.5"/>
<path d="M446.019 117.902H416.675V147.208H446.019V117.902Z" stroke="#E2E7F0" stroke-width="1.5"/>
<path d="M475.362 117.902H446.019V147.208H475.362V117.902Z" stroke="#E2E7F0" stroke-width="1.5"/>
<path d="M504.705 117.902H475.362V147.208H504.705V117.902Z" stroke="#E2E7F0" stroke-width="1.5"/>
<path d="M534.049 117.902H504.705V147.208H534.049V117.902Z" stroke="#E2E7F0" stroke-width="1.5"/>
<path d="M563.392 117.902H534.049V147.208H563.392V117.902Z" stroke="#E2E7F0" stroke-width="1.5"/>
<path d="M592.735 117.902H563.392V147.208H592.735V117.902Z" stroke="#E2E7F0" stroke-width="1.5"/>
<path d="M622.078 117.902H592.735V147.208H622.078V117.902Z" stroke="#E2E7F0" stroke-width="1.5"/>
<path d="M651.422 117.902H622.079V147.208H651.422V117.902Z" stroke="#E2E7F0" stroke-width="1.5"/>
<path d="M680.765 117.902H651.422V147.208H680.765V117.902Z" stroke="#E2E7F0" stroke-width="1.5"/>
<path d="M710.109 117.902H680.765V147.208H710.109V117.902Z" stroke="#E2E7F0" stroke-width="1.5"/>
<path d="M739.452 117.902H710.109V147.208H739.452V117.902Z" stroke="#E2E7F0" stroke-width="1.5"/>
<path d="M768.795 117.902H739.452V147.208H768.795V117.902Z" stroke="#E2E7F0" stroke-width="1.5"/>
<path d="M798.138 117.902H768.795V147.208H798.138V117.902Z" stroke="#E2E7F0" stroke-width="1.5"/>
<path d="M827.482 117.902H798.139V147.208H827.482V117.902Z" stroke="#E2E7F0" stroke-width="1.5"/>
<path d="M856.825 117.902H827.482V147.208H856.825V117.902Z" stroke="#E2E7F0" stroke-width="1.5"/>
<path d="M886.168 117.902H856.825V147.208H886.168V117.902Z" stroke="#E2E7F0" stroke-width="1.5"/>
<path d="M915.512 117.902H886.168V147.208H915.512V117.902Z" stroke="#E2E7F0" stroke-width="1.5"/>
<path d="M944.855 117.902H915.512V147.208H944.855V117.902Z" stroke="#E2E7F0" stroke-width="1.5"/>
<path d="M974.199 117.902H944.855V147.208H974.199V117.902Z" stroke="#E2E7F0" stroke-width="1.5"/>
<path d="M1003.54 117.902H974.198V147.208H1003.54V117.902Z" stroke="#E2E7F0" stroke-width="1.5"/>
<path d="M1032.89 117.902H1003.54V147.208H1032.89V117.902Z" stroke="#E2E7F0" stroke-width="1.5"/>
<path d="M1062.23 117.902H1032.89V147.208H1062.23V117.902Z" stroke="#E2E7F0" stroke-width="1.5"/>
<path d="M1091.57 117.902H1062.23V147.208H1091.57V117.902Z" stroke="#E2E7F0" stroke-width="1.5"/>
<path d="M5.86866 147.208H-23.4747V176.514H5.86866V147.208Z" stroke="#E2E7F0" stroke-width="1.5"/>
<path d="M35.212 147.208H5.86866V176.514H35.212V147.208Z" stroke="#E2E7F0" stroke-width="1.5"/>
<path d="M64.5553 147.208H35.212V176.514H64.5553V147.208Z" stroke="#E2E7F0" stroke-width="1.5"/>
<path d="M93.8986 147.208H64.5553V176.514H93.8986V147.208Z" stroke="#E2E7F0" stroke-width="1.5"/>
<path d="M123.242 147.208H93.8986V176.514H123.242V147.208Z" stroke="#E2E7F0" stroke-width="1.5"/>
<path d="M152.585 147.208H123.242V176.514H152.585V147.208Z" stroke="#E2E7F0" stroke-width="1.5"/>
<path d="M181.929 147.208H152.585V176.514H181.929V147.208Z" stroke="#E2E7F0" stroke-width="1.5"/>
<path d="M211.272 147.208H181.929V176.514H211.272V147.208Z" stroke="#E2E7F0" stroke-width="1.5"/>
<path d="M240.615 147.208H211.272V176.514H240.615V147.208Z" stroke="#E2E7F0" stroke-width="1.5"/>
<path d="M269.959 147.208H240.615V176.514H269.959V147.208Z" stroke="#E2E7F0" stroke-width="1.5"/>
<path d="M299.302 147.208H269.959V176.514H299.302V147.208Z" stroke="#E2E7F0" stroke-width="1.5"/>
<path d="M328.645 147.208H299.302V176.514H328.645V147.208Z" stroke="#E2E7F0" stroke-width="1.5"/>
<path d="M357.989 147.208H328.645V176.514H357.989V147.208Z" stroke="#E2E7F0" stroke-width="1.5"/>
<path d="M387.332 147.208H357.989V176.514H387.332V147.208Z" stroke="#E2E7F0" stroke-width="1.5"/>
<path d="M416.675 147.208H387.332V176.514H416.675V147.208Z" stroke="#E2E7F0" stroke-width="1.5"/>
<path d="M446.019 147.208H416.675V176.514H446.019V147.208Z" stroke="#E2E7F0" stroke-width="1.5"/>
<path d="M475.362 147.208H446.019V176.514H475.362V147.208Z" stroke="#E2E7F0" stroke-width="1.5"/>
<path d="M504.705 147.208H475.362V176.514H504.705V147.208Z" stroke="#E2E7F0" stroke-width="1.5"/>
<path d="M534.049 147.208H504.705V176.514H534.049V147.208Z" stroke="#E2E7F0" stroke-width="1.5"/>
<path d="M563.392 147.208H534.049V176.514H563.392V147.208Z" stroke="#E2E7F0" stroke-width="1.5"/>
<path d="M592.735 147.208H563.392V176.514H592.735V147.208Z" stroke="#E2E7F0" stroke-width="1.5"/>
<path d="M622.078 147.208H592.735V176.514H622.078V147.208Z" stroke="#E2E7F0" stroke-width="1.5"/>
<path d="M651.422 147.208H622.079V176.514H651.422V147.208Z" stroke="#E2E7F0" stroke-width="1.5"/>
<path d="M680.765 147.208H651.422V176.514H680.765V147.208Z" stroke="#E2E7F0" stroke-width="1.5"/>
<path d="M710.109 147.208H680.765V176.514H710.109V147.208Z" stroke="#E2E7F0" stroke-width="1.5"/>
<path d="M739.452 147.208H710.109V176.514H739.452V147.208Z" stroke="#E2E7F0" stroke-width="1.5"/>
<path d="M768.795 147.208H739.452V176.514H768.795V147.208Z" stroke="#E2E7F0" stroke-width="1.5"/>
<path d="M798.138 147.208H768.795V176.514H798.138V147.208Z" stroke="#E2E7F0" stroke-width="1.5"/>
<path d="M827.482 147.208H798.139V176.514H827.482V147.208Z" stroke="#E2E7F0" stroke-width="1.5"/>
<path d="M856.825 147.208H827.482V176.514H856.825V147.208Z" fill="#E2E7F0" fill-opacity="0.3" stroke="#E2E7F0" stroke-width="1.5"/>
<path d="M886.168 147.208H856.825V176.514H886.168V147.208Z" stroke="#E2E7F0" stroke-width="1.5"/>
<path d="M915.512 147.208H886.168V176.514H915.512V147.208Z" stroke="#E2E7F0" stroke-width="1.5"/>
<path d="M944.855 147.208H915.512V176.514H944.855V147.208Z" stroke="#E2E7F0" stroke-width="1.5"/>
<path d="M974.199 147.208H944.855V176.514H974.199V147.208Z" stroke="#E2E7F0" stroke-width="1.5"/>
<path d="M1003.54 147.208H974.198V176.514H1003.54V147.208Z" stroke="#E2E7F0" stroke-width="1.5"/>
<path d="M1032.89 147.208H1003.54V176.514H1032.89V147.208Z" stroke="#E2E7F0" stroke-width="1.5"/>
<path d="M1062.23 147.208H1032.89V176.514H1062.23V147.208Z" stroke="#E2E7F0" stroke-width="1.5"/>
<path d="M1091.57 147.208H1062.23V176.514H1091.57V147.208Z" stroke="#E2E7F0" stroke-width="1.5"/>
<path d="M5.86866 176.514H-23.4747V205.821H5.86866V176.514Z" stroke="#E2E7F0" stroke-width="1.5"/>
<path d="M35.212 176.514H5.86866V205.821H35.212V176.514Z" stroke="#E2E7F0" stroke-width="1.5"/>
<path d="M64.5553 176.514H35.212V205.821H64.5553V176.514Z" stroke="#E2E7F0" stroke-width="1.5"/>
<path d="M93.8986 176.514H64.5553V205.821H93.8986V176.514Z" stroke="#E2E7F0" stroke-width="1.5"/>
<path d="M123.242 176.514H93.8986V205.821H123.242V176.514Z" stroke="#E2E7F0" stroke-width="1.5"/>
<path d="M152.585 176.514H123.242V205.821H152.585V176.514Z" stroke="#E2E7F0" stroke-width="1.5"/>
<path d="M181.929 176.514H152.585V205.821H181.929V176.514Z" stroke="#E2E7F0" stroke-width="1.5"/>
<path d="M211.272 176.514H181.929V205.821H211.272V176.514Z" stroke="#E2E7F0" stroke-width="1.5"/>
<path d="M240.615 176.514H211.272V205.821H240.615V176.514Z" stroke="#E2E7F0" stroke-width="1.5"/>
<path d="M269.959 176.514H240.615V205.821H269.959V176.514Z" stroke="#E2E7F0" stroke-width="1.5"/>
<path d="M299.302 176.514H269.959V205.821H299.302V176.514Z" stroke="#E2E7F0" stroke-width="1.5"/>
<path d="M328.645 176.514H299.302V205.821H328.645V176.514Z" stroke="#E2E7F0" stroke-width="1.5"/>
<path d="M357.989 176.514H328.645V205.821H357.989V176.514Z" stroke="#E2E7F0" stroke-width="1.5"/>
<path d="M387.332 176.514H357.989V205.821H387.332V176.514Z" stroke="#E2E7F0" stroke-width="1.5"/>
<path d="M416.675 176.514H387.332V205.821H416.675V176.514Z" stroke="#E2E7F0" stroke-width="1.5"/>
<path d="M446.019 176.514H416.675V205.821H446.019V176.514Z" stroke="#E2E7F0" stroke-width="1.5"/>
<path d="M475.362 176.514H446.019V205.821H475.362V176.514Z" stroke="#E2E7F0" stroke-width="1.5"/>
<path d="M504.705 176.514H475.362V205.821H504.705V176.514Z" stroke="#E2E7F0" stroke-width="1.5"/>
<path d="M534.049 176.514H504.705V205.821H534.049V176.514Z" stroke="#E2E7F0" stroke-width="1.5"/>
<path d="M563.392 176.514H534.049V205.821H563.392V176.514Z" stroke="#E2E7F0" stroke-width="1.5"/>
<path d="M592.735 176.514H563.392V205.821H592.735V176.514Z" stroke="#E2E7F0" stroke-width="1.5"/>
<path d="M622.078 176.514H592.735V205.821H622.078V176.514Z" stroke="#E2E7F0" stroke-width="1.5"/>
<path d="M651.422 176.514H622.079V205.821H651.422V176.514Z" stroke="#E2E7F0" stroke-width="1.5"/>
<path d="M680.765 176.514H651.422V205.821H680.765V176.514Z" stroke="#E2E7F0" stroke-width="1.5"/>
<path d="M710.109 176.514H680.765V205.821H710.109V176.514Z" stroke="#E2E7F0" stroke-width="1.5"/>
<path d="M739.452 176.514H710.109V205.821H739.452V176.514Z" stroke="#E2E7F0" stroke-width="1.5"/>
<path d="M768.795 176.514H739.452V205.821H768.795V176.514Z" stroke="#E2E7F0" stroke-width="1.5"/>
<path d="M798.138 176.514H768.795V205.821H798.138V176.514Z" stroke="#E2E7F0" stroke-width="1.5"/>
<path d="M827.482 176.514H798.139V205.821H827.482V176.514Z" stroke="#E2E7F0" stroke-width="1.5"/>
<path d="M856.825 176.514H827.482V205.821H856.825V176.514Z" stroke="#E2E7F0" stroke-width="1.5"/>
<path d="M886.168 176.514H856.825V205.821H886.168V176.514Z" stroke="#E2E7F0" stroke-width="1.5"/>
<path d="M915.512 176.514H886.168V205.821H915.512V176.514Z" stroke="#E2E7F0" stroke-width="1.5"/>
<path d="M944.855 176.514H915.512V205.821H944.855V176.514Z" stroke="#E2E7F0" stroke-width="1.5"/>
<path d="M974.199 176.514H944.855V205.821H974.199V176.514Z" stroke="#E2E7F0" stroke-width="1.5"/>
<path d="M1003.54 176.514H974.198V205.821H1003.54V176.514Z" fill="#E2E7F0" fill-opacity="0.3" stroke="#E2E7F0" stroke-width="1.5"/>
<path d="M1032.89 176.514H1003.54V205.821H1032.89V176.514Z" stroke="#E2E7F0" stroke-width="1.5"/>
<path d="M1062.23 176.514H1032.89V205.821H1062.23V176.514Z" stroke="#E2E7F0" stroke-width="1.5"/>
<path d="M1091.57 176.514H1062.23V205.821H1091.57V176.514Z" stroke="#E2E7F0" stroke-width="1.5"/>
<path d="M5.86866 205.821H-23.4747V235.127H5.86866V205.821Z" fill="#E2E7F0" fill-opacity="0.3" stroke="#E2E7F0" stroke-width="1.5"/>
<path d="M35.212 205.821H5.86866V235.127H35.212V205.821Z" stroke="#E2E7F0" stroke-width="1.5"/>
<path d="M64.5553 205.821H35.212V235.127H64.5553V205.821Z" stroke="#E2E7F0" stroke-width="1.5"/>
<path d="M93.8986 205.821H64.5553V235.127H93.8986V205.821Z" stroke="#E2E7F0" stroke-width="1.5"/>
<path d="M123.242 205.821H93.8986V235.127H123.242V205.821Z" stroke="#E2E7F0" stroke-width="1.5"/>
<path d="M152.585 205.821H123.242V235.127H152.585V205.821Z" stroke="#E2E7F0" stroke-width="1.5"/>
<path d="M181.929 205.821H152.585V235.127H181.929V205.821Z" fill="#E2E7F0" fill-opacity="0.3" stroke="#E2E7F0" stroke-width="1.5"/>
<path d="M211.272 205.821H181.929V235.127H211.272V205.821Z" stroke="#E2E7F0" stroke-width="1.5"/>
<path d="M240.615 205.821H211.272V235.127H240.615V205.821Z" stroke="#E2E7F0" stroke-width="1.5"/>
<path d="M269.959 205.821H240.615V235.127H269.959V205.821Z" stroke="#E2E7F0" stroke-width="1.5"/>
<path d="M299.302 205.821H269.959V235.127H299.302V205.821Z" stroke="#E2E7F0" stroke-width="1.5"/>
<path d="M328.645 205.821H299.302V235.127H328.645V205.821Z" stroke="#E2E7F0" stroke-width="1.5"/>
<path d="M357.989 205.821H328.645V235.127H357.989V205.821Z" stroke="#E2E7F0" stroke-width="1.5"/>
<path d="M387.332 205.821H357.989V235.127H387.332V205.821Z" stroke="#E2E7F0" stroke-width="1.5"/>
<path d="M416.675 205.821H387.332V235.127H416.675V205.821Z" stroke="#E2E7F0" stroke-width="1.5"/>
<path d="M446.019 205.821H416.675V235.127H446.019V205.821Z" stroke="#E2E7F0" stroke-width="1.5"/>
<path d="M475.362 205.821H446.019V235.127H475.362V205.821Z" stroke="#E2E7F0" stroke-width="1.5"/>
<path d="M504.705 205.821H475.362V235.127H504.705V205.821Z" stroke="#E2E7F0" stroke-width="1.5"/>
<path d="M534.049 205.821H504.705V235.127H534.049V205.821Z" stroke="#E2E7F0" stroke-width="1.5"/>
<path d="M563.392 205.821H534.049V235.127H563.392V205.821Z" stroke="#E2E7F0" stroke-width="1.5"/>
<path d="M592.735 205.821H563.392V235.127H592.735V205.821Z" stroke="#E2E7F0" stroke-width="1.5"/>
<path d="M622.078 205.821H592.735V235.127H622.078V205.821Z" stroke="#E2E7F0" stroke-width="1.5"/>
<path d="M651.422 205.821H622.079V235.127H651.422V205.821Z" stroke="#E2E7F0" stroke-width="1.5"/>
<path d="M680.765 205.821H651.422V235.127H680.765V205.821Z" stroke="#E2E7F0" stroke-width="1.5"/>
<path d="M710.109 205.821H680.765V235.127H710.109V205.821Z" stroke="#E2E7F0" stroke-width="1.5"/>
<path d="M739.452 205.821H710.109V235.127H739.452V205.821Z" stroke="#E2E7F0" stroke-width="1.5"/>
<path d="M768.795 205.821H739.452V235.127H768.795V205.821Z" stroke="#E2E7F0" stroke-width="1.5"/>
<path d="M798.138 205.821H768.795V235.127H798.138V205.821Z" stroke="#E2E7F0" stroke-width="1.5"/>
<path d="M827.482 205.821H798.139V235.127H827.482V205.821Z" stroke="#E2E7F0" stroke-width="1.5"/>
<path d="M856.825 205.821H827.482V235.127H856.825V205.821Z" stroke="#E2E7F0" stroke-width="1.5"/>
<path d="M886.168 205.821H856.825V235.127H886.168V205.821Z" fill="#E2E7F0" fill-opacity="0.3" stroke="#E2E7F0" stroke-width="1.5"/>
<path d="M915.512 205.821H886.168V235.127H915.512V205.821Z" stroke="#E2E7F0" stroke-width="1.5"/>
<path d="M944.855 205.821H915.512V235.127H944.855V205.821Z" stroke="#E2E7F0" stroke-width="1.5"/>
<path d="M974.199 205.821H944.855V235.127H974.199V205.821Z" stroke="#E2E7F0" stroke-width="1.5"/>
<path d="M1003.54 205.821H974.198V235.127H1003.54V205.821Z" stroke="#E2E7F0" stroke-width="1.5"/>
<path d="M1032.89 205.821H1003.54V235.127H1032.89V205.821Z" stroke="#E2E7F0" stroke-width="1.5"/>
<path d="M1062.23 205.821H1032.89V235.127H1062.23V205.821Z" stroke="#E2E7F0" stroke-width="1.5"/>
<path d="M1091.57 205.821H1062.23V235.127H1091.57V205.821Z" stroke="#E2E7F0" stroke-width="1.5"/>
<path d="M5.86866 235.127H-23.4747V264.434H5.86866V235.127Z" stroke="#E2E7F0" stroke-width="1.5"/>
<path d="M35.212 235.127H5.86866V264.434H35.212V235.127Z" stroke="#E2E7F0" stroke-width="1.5"/>
<path d="M64.5553 235.127H35.212V264.434H64.5553V235.127Z" stroke="#E2E7F0" stroke-width="1.5"/>
<path d="M93.8986 235.127H64.5553V264.434H93.8986V235.127Z" stroke="#E2E7F0" stroke-width="1.5"/>
<path d="M123.242 235.127H93.8986V264.434H123.242V235.127Z" stroke="#E2E7F0" stroke-width="1.5"/>
<path d="M152.585 235.127H123.242V264.434H152.585V235.127Z" fill="#E2E7F0" fill-opacity="0.3" stroke="#E2E7F0" stroke-width="1.5"/>
<path d="M181.929 235.127H152.585V264.434H181.929V235.127Z" stroke="#E2E7F0" stroke-width="1.5"/>
<path d="M211.272 235.127H181.929V264.434H211.272V235.127Z" stroke="#E2E7F0" stroke-width="1.5"/>
<path d="M240.615 235.127H211.272V264.434H240.615V235.127Z" stroke="#E2E7F0" stroke-width="1.5"/>
<path d="M269.959 235.127H240.615V264.434H269.959V235.127Z" stroke="#E2E7F0" stroke-width="1.5"/>
<path d="M299.302 235.127H269.959V264.434H299.302V235.127Z" stroke="#E2E7F0" stroke-width="1.5"/>
<path d="M328.645 235.127H299.302V264.434H328.645V235.127Z" stroke="#E2E7F0" stroke-width="1.5"/>
<path d="M357.989 235.127H328.645V264.434H357.989V235.127Z" stroke="#E2E7F0" stroke-width="1.5"/>
<path d="M387.332 235.127H357.989V264.434H387.332V235.127Z" stroke="#E2E7F0" stroke-width="1.5"/>
<path d="M416.675 235.127H387.332V264.434H416.675V235.127Z" stroke="#E2E7F0" stroke-width="1.5"/>
<path d="M446.019 235.127H416.675V264.434H446.019V235.127Z" stroke="#E2E7F0" stroke-width="1.5"/>
<path d="M475.362 235.127H446.019V264.434H475.362V235.127Z" stroke="#E2E7F0" stroke-width="1.5"/>
<path d="M504.705 235.127H475.362V264.434H504.705V235.127Z" stroke="#E2E7F0" stroke-width="1.5"/>
<path d="M534.049 235.127H504.705V264.434H534.049V235.127Z" stroke="#E2E7F0" stroke-width="1.5"/>
<path d="M563.392 235.127H534.049V264.434H563.392V235.127Z" stroke="#E2E7F0" stroke-width="1.5"/>
<path d="M592.735 235.127H563.392V264.434H592.735V235.127Z" stroke="#E2E7F0" stroke-width="1.5"/>
<path d="M622.078 235.127H592.735V264.434H622.078V235.127Z" stroke="#E2E7F0" stroke-width="1.5"/>
<path d="M651.422 235.127H622.079V264.434H651.422V235.127Z" stroke="#E2E7F0" stroke-width="1.5"/>
<path d="M680.765 235.127H651.422V264.434H680.765V235.127Z" stroke="#E2E7F0" stroke-width="1.5"/>
<path d="M710.109 235.127H680.765V264.434H710.109V235.127Z" stroke="#E2E7F0" stroke-width="1.5"/>
<path d="M739.452 235.127H710.109V264.434H739.452V235.127Z" stroke="#E2E7F0" stroke-width="1.5"/>
<path d="M768.795 235.127H739.452V264.434H768.795V235.127Z" stroke="#E2E7F0" stroke-width="1.5"/>
<path d="M798.138 235.127H768.795V264.434H798.138V235.127Z" stroke="#E2E7F0" stroke-width="1.5"/>
<path d="M827.482 235.127H798.139V264.434H827.482V235.127Z" stroke="#E2E7F0" stroke-width="1.5"/>
<path d="M856.825 235.127H827.482V264.434H856.825V235.127Z" stroke="#E2E7F0" stroke-width="1.5"/>
<path d="M886.168 235.127H856.825V264.434H886.168V235.127Z" stroke="#E2E7F0" stroke-width="1.5"/>
<path d="M915.512 235.127H886.168V264.434H915.512V235.127Z" stroke="#E2E7F0" stroke-width="1.5"/>
<path d="M944.855 235.127H915.512V264.434H944.855V235.127Z" stroke="#E2E7F0" stroke-width="1.5"/>
<path d="M974.199 235.127H944.855V264.434H974.199V235.127Z" stroke="#E2E7F0" stroke-width="1.5"/>
<path d="M1003.54 235.127H974.198V264.434H1003.54V235.127Z" stroke="#E2E7F0" stroke-width="1.5"/>
<path d="M1032.89 235.127H1003.54V264.434H1032.89V235.127Z" stroke="#E2E7F0" stroke-width="1.5"/>
<path d="M1062.23 235.127H1032.89V264.434H1062.23V235.127Z" stroke="#E2E7F0" stroke-width="1.5"/>
<path d="M1091.57 235.127H1062.23V264.434H1091.57V235.127Z" stroke="#E2E7F0" stroke-width="1.5"/>
<path d="M5.86866 264.434H-23.4747V293.74H5.86866V264.434Z" stroke="#E2E7F0" stroke-width="1.5"/>
<path d="M35.212 264.434H5.86866V293.74H35.212V264.434Z" stroke="#E2E7F0" stroke-width="1.5"/>
<path d="M64.5553 264.434H35.212V293.74H64.5553V264.434Z" stroke="#E2E7F0" stroke-width="1.5"/>
<path d="M93.8986 264.434H64.5553V293.74H93.8986V264.434Z" fill="#E2E7F0" fill-opacity="0.3" stroke="#E2E7F0" stroke-width="1.5"/>
<path d="M123.242 264.434H93.8986V293.74H123.242V264.434Z" stroke="#E2E7F0" stroke-width="1.5"/>
<path d="M152.585 264.434H123.242V293.74H152.585V264.434Z" stroke="#E2E7F0" stroke-width="1.5"/>
<path d="M181.929 264.434H152.585V293.74H181.929V264.434Z" stroke="#E2E7F0" stroke-width="1.5"/>
<path d="M211.272 264.434H181.929V293.74H211.272V264.434Z" stroke="#E2E7F0" stroke-width="1.5"/>
<path d="M240.615 264.434H211.272V293.74H240.615V264.434Z" stroke="#E2E7F0" stroke-width="1.5"/>
<path d="M269.959 264.434H240.615V293.74H269.959V264.434Z" stroke="#E2E7F0" stroke-width="1.5"/>
<path d="M299.302 264.434H269.959V293.74H299.302V264.434Z" stroke="#E2E7F0" stroke-width="1.5"/>
<path d="M328.645 264.434H299.302V293.74H328.645V264.434Z" stroke="#E2E7F0" stroke-width="1.5"/>
<path d="M357.989 264.434H328.645V293.74H357.989V264.434Z" stroke="#E2E7F0" stroke-width="1.5"/>
<path d="M387.332 264.434H357.989V293.74H387.332V264.434Z" stroke="#E2E7F0" stroke-width="1.5"/>
<path d="M416.675 264.434H387.332V293.74H416.675V264.434Z" stroke="#E2E7F0" stroke-width="1.5"/>
<path d="M446.019 264.434H416.675V293.74H446.019V264.434Z" stroke="#E2E7F0" stroke-width="1.5"/>
<path d="M475.362 264.434H446.019V293.74H475.362V264.434Z" stroke="#E2E7F0" stroke-width="1.5"/>
<path d="M504.705 264.434H475.362V293.74H504.705V264.434Z" stroke="#E2E7F0" stroke-width="1.5"/>
<path d="M534.049 264.434H504.705V293.74H534.049V264.434Z" stroke="#E2E7F0" stroke-width="1.5"/>
<path d="M563.392 264.434H534.049V293.74H563.392V264.434Z" stroke="#E2E7F0" stroke-width="1.5"/>
<path d="M592.735 264.434H563.392V293.74H592.735V264.434Z" stroke="#E2E7F0" stroke-width="1.5"/>
<path d="M622.078 264.434H592.735V293.74H622.078V264.434Z" stroke="#E2E7F0" stroke-width="1.5"/>
<path d="M651.422 264.434H622.079V293.74H651.422V264.434Z" stroke="#E2E7F0" stroke-width="1.5"/>
<path d="M680.765 264.434H651.422V293.74H680.765V264.434Z" stroke="#E2E7F0" stroke-width="1.5"/>
<path d="M710.109 264.434H680.765V293.74H710.109V264.434Z" stroke="#E2E7F0" stroke-width="1.5"/>
<path d="M739.452 264.434H710.109V293.74H739.452V264.434Z" stroke="#E2E7F0" stroke-width="1.5"/>
<path d="M768.795 264.434H739.452V293.74H768.795V264.434Z" stroke="#E2E7F0" stroke-width="1.5"/>
<path d="M798.138 264.434H768.795V293.74H798.138V264.434Z" stroke="#E2E7F0" stroke-width="1.5"/>
<path d="M827.482 264.434H798.139V293.74H827.482V264.434Z" stroke="#E2E7F0" stroke-width="1.5"/>
<path d="M856.825 264.434H827.482V293.74H856.825V264.434Z" stroke="#E2E7F0" stroke-width="1.5"/>
<path d="M886.168 264.434H856.825V293.74H886.168V264.434Z" stroke="#E2E7F0" stroke-width="1.5"/>
<path d="M915.512 264.434H886.168V293.74H915.512V264.434Z" stroke="#E2E7F0" stroke-width="1.5"/>
<path d="M944.855 264.434H915.512V293.74H944.855V264.434Z" stroke="#E2E7F0" stroke-width="1.5"/>
<path d="M974.199 264.434H944.855V293.74H974.199V264.434Z" stroke="#E2E7F0" stroke-width="1.5"/>
<path d="M1003.54 264.434H974.198V293.74H1003.54V264.434Z" stroke="#E2E7F0" stroke-width="1.5"/>
<path d="M1032.89 264.434H1003.54V293.74H1032.89V264.434Z" stroke="#E2E7F0" stroke-width="1.5"/>
<path d="M1062.23 264.434H1032.89V293.74H1062.23V264.434Z" fill="#E2E7F0" fill-opacity="0.3" stroke="#E2E7F0" stroke-width="1.5"/>
<path d="M1091.57 264.434H1062.23V293.74H1091.57V264.434Z" stroke="#E2E7F0" stroke-width="1.5"/>
<path d="M5.86866 293.74H-23.4747V323.046H5.86866V293.74Z" stroke="#E2E7F0" stroke-width="1.5"/>
<path d="M35.212 293.74H5.86866V323.046H35.212V293.74Z" stroke="#E2E7F0" stroke-width="1.5"/>
<path d="M64.5553 293.74H35.212V323.046H64.5553V293.74Z" stroke="#E2E7F0" stroke-width="1.5"/>
<path d="M93.8986 293.74H64.5553V323.046H93.8986V293.74Z" stroke="#E2E7F0" stroke-width="1.5"/>
<path d="M123.242 293.74H93.8986V323.046H123.242V293.74Z" stroke="#E2E7F0" stroke-width="1.5"/>
<path d="M152.585 293.74H123.242V323.046H152.585V293.74Z" stroke="#E2E7F0" stroke-width="1.5"/>
<path d="M181.929 293.74H152.585V323.046H181.929V293.74Z" stroke="#E2E7F0" stroke-width="1.5"/>
<path d="M211.272 293.74H181.929V323.046H211.272V293.74Z" fill="#E2E7F0" fill-opacity="0.3" stroke="#E2E7F0" stroke-width="1.5"/>
<path d="M240.615 293.74H211.272V323.046H240.615V293.74Z" stroke="#E2E7F0" stroke-width="1.5"/>
<path d="M269.959 293.74H240.615V323.046H269.959V293.74Z" stroke="#E2E7F0" stroke-width="1.5"/>
<path d="M299.302 293.74H269.959V323.046H299.302V293.74Z" stroke="#E2E7F0" stroke-width="1.5"/>
<path d="M328.645 293.74H299.302V323.046H328.645V293.74Z" stroke="#E2E7F0" stroke-width="1.5"/>
<path d="M357.989 293.74H328.645V323.046H357.989V293.74Z" stroke="#E2E7F0" stroke-width="1.5"/>
<path d="M387.332 293.74H357.989V323.046H387.332V293.74Z" stroke="#E2E7F0" stroke-width="1.5"/>
<path d="M416.675 293.74H387.332V323.046H416.675V293.74Z" fill="#E2E7F0" fill-opacity="0.3" stroke="#E2E7F0" stroke-width="1.5"/>
<path d="M446.019 293.74H416.675V323.046H446.019V293.74Z" stroke="#E2E7F0" stroke-width="1.5"/>
<path d="M475.362 293.74H446.019V323.046H475.362V293.74Z" stroke="#E2E7F0" stroke-width="1.5"/>
<path d="M504.705 293.74H475.362V323.046H504.705V293.74Z" stroke="#E2E7F0" stroke-width="1.5"/>
<path d="M534.049 293.74H504.705V323.046H534.049V293.74Z" stroke="#E2E7F0" stroke-width="1.5"/>
<path d="M563.392 293.74H534.049V323.046H563.392V293.74Z" stroke="#E2E7F0" stroke-width="1.5"/>
<path d="M592.735 293.74H563.392V323.046H592.735V293.74Z" stroke="#E2E7F0" stroke-width="1.5"/>
<path d="M622.078 293.74H592.735V323.046H622.078V293.74Z" stroke="#E2E7F0" stroke-width="1.5"/>
<path d="M651.422 293.74H622.079V323.046H651.422V293.74Z" stroke="#E2E7F0" stroke-width="1.5"/>
<path d="M680.765 293.74H651.422V323.046H680.765V293.74Z" stroke="#E2E7F0" stroke-width="1.5"/>
<path d="M710.109 293.74H680.765V323.046H710.109V293.74Z" stroke="#E2E7F0" stroke-width="1.5"/>
<path d="M739.452 293.74H710.109V323.046H739.452V293.74Z" stroke="#E2E7F0" stroke-width="1.5"/>
<path d="M768.795 293.74H739.452V323.046H768.795V293.74Z" stroke="#E2E7F0" stroke-width="1.5"/>
<path d="M798.138 293.74H768.795V323.046H798.138V293.74Z" stroke="#E2E7F0" stroke-width="1.5"/>
<path d="M827.482 293.74H798.139V323.046H827.482V293.74Z" stroke="#E2E7F0" stroke-width="1.5"/>
<path d="M856.825 293.74H827.482V323.046H856.825V293.74Z" stroke="#E2E7F0" stroke-width="1.5"/>
<path d="M886.168 293.74H856.825V323.046H886.168V293.74Z" stroke="#E2E7F0" stroke-width="1.5"/>
<path d="M915.512 293.74H886.168V323.046H915.512V293.74Z" stroke="#E2E7F0" stroke-width="1.5"/>
<path d="M944.855 293.74H915.512V323.046H944.855V293.74Z" stroke="#E2E7F0" stroke-width="1.5"/>
<path d="M974.199 293.74H944.855V323.046H974.199V293.74Z" stroke="#E2E7F0" stroke-width="1.5"/>
<path d="M1003.54 293.74H974.198V323.046H1003.54V293.74Z" stroke="#E2E7F0" stroke-width="1.5"/>
<path d="M1032.89 293.74H1003.54V323.046H1032.89V293.74Z" stroke="#E2E7F0" stroke-width="1.5"/>
<path d="M1062.23 293.74H1032.89V323.046H1062.23V293.74Z" stroke="#E2E7F0" stroke-width="1.5"/>
<path d="M1091.57 293.74H1062.23V323.046H1091.57V293.74Z" stroke="#E2E7F0" stroke-width="1.5"/>
<path d="M5.86866 323.046H-23.4747V352.353H5.86866V323.046Z" stroke="#E2E7F0" stroke-width="1.5"/>
<path d="M35.212 323.046H5.86866V352.353H35.212V323.046Z" stroke="#E2E7F0" stroke-width="1.5"/>
<path d="M64.5553 323.046H35.212V352.353H64.5553V323.046Z" stroke="#E2E7F0" stroke-width="1.5"/>
<path d="M93.8986 323.046H64.5553V352.353H93.8986V323.046Z" stroke="#E2E7F0" stroke-width="1.5"/>
<path d="M123.242 323.046H93.8986V352.353H123.242V323.046Z" stroke="#E2E7F0" stroke-width="1.5"/>
<path d="M152.585 323.046H123.242V352.353H152.585V323.046Z" stroke="#E2E7F0" stroke-width="1.5"/>
<path d="M181.929 323.046H152.585V352.353H181.929V323.046Z" stroke="#E2E7F0" stroke-width="1.5"/>
<path d="M211.272 323.046H181.929V352.353H211.272V323.046Z" stroke="#E2E7F0" stroke-width="1.5"/>
<path d="M240.615 323.046H211.272V352.353H240.615V323.046Z" stroke="#E2E7F0" stroke-width="1.5"/>
<path d="M269.959 323.046H240.615V352.353H269.959V323.046Z" stroke="#E2E7F0" stroke-width="1.5"/>
<path d="M299.302 323.046H269.959V352.353H299.302V323.046Z" stroke="#E2E7F0" stroke-width="1.5"/>
<path d="M328.645 323.046H299.302V352.353H328.645V323.046Z" stroke="#E2E7F0" stroke-width="1.5"/>
<path d="M357.989 323.046H328.645V352.353H357.989V323.046Z" stroke="#E2E7F0" stroke-width="1.5"/>
<path d="M387.332 323.046H357.989V352.353H387.332V323.046Z" stroke="#E2E7F0" stroke-width="1.5"/>
<path d="M416.675 323.046H387.332V352.353H416.675V323.046Z" stroke="#E2E7F0" stroke-width="1.5"/>
<path d="M446.019 323.046H416.675V352.353H446.019V323.046Z" stroke="#E2E7F0" stroke-width="1.5"/>
<path d="M475.362 323.046H446.019V352.353H475.362V323.046Z" stroke="#E2E7F0" stroke-width="1.5"/>
<path d="M504.705 323.046H475.362V352.353H504.705V323.046Z" stroke="#E2E7F0" stroke-width="1.5"/>
<path d="M534.049 323.046H504.705V352.353H534.049V323.046Z" stroke="#E2E7F0" stroke-width="1.5"/>
<path d="M563.392 323.046H534.049V352.353H563.392V323.046Z" stroke="#E2E7F0" stroke-width="1.5"/>
<path d="M592.735 323.046H563.392V352.353H592.735V323.046Z" stroke="#E2E7F0" stroke-width="1.5"/>
<path d="M622.078 323.046H592.735V352.353H622.078V323.046Z" stroke="#E2E7F0" stroke-width="1.5"/>
<path d="M651.422 323.046H622.079V352.353H651.422V323.046Z" stroke="#E2E7F0" stroke-width="1.5"/>
<path d="M680.765 323.046H651.422V352.353H680.765V323.046Z" stroke="#E2E7F0" stroke-width="1.5"/>
<path d="M710.109 323.046H680.765V352.353H710.109V323.046Z" stroke="#E2E7F0" stroke-width="1.5"/>
<path d="M739.452 323.046H710.109V352.353H739.452V323.046Z" stroke="#E2E7F0" stroke-width="1.5"/>
<path d="M768.795 323.046H739.452V352.353H768.795V323.046Z" stroke="#E2E7F0" stroke-width="1.5"/>
<path d="M798.138 323.046H768.795V352.353H798.138V323.046Z" fill="#E2E7F0" fill-opacity="0.3" stroke="#E2E7F0" stroke-width="1.5"/>
<path d="M827.482 323.046H798.139V352.353H827.482V323.046Z" stroke="#E2E7F0" stroke-width="1.5"/>
<path d="M856.825 323.046H827.482V352.353H856.825V323.046Z" stroke="#E2E7F0" stroke-width="1.5"/>
<path d="M886.168 323.046H856.825V352.353H886.168V323.046Z" stroke="#E2E7F0" stroke-width="1.5"/>
<path d="M915.512 323.046H886.168V352.353H915.512V323.046Z" stroke="#E2E7F0" stroke-width="1.5"/>
<path d="M944.855 323.046H915.512V352.353H944.855V323.046Z" stroke="#E2E7F0" stroke-width="1.5"/>
<path d="M974.199 323.046H944.855V352.353H974.199V323.046Z" stroke="#E2E7F0" stroke-width="1.5"/>
<path d="M1003.54 323.046H974.198V352.353H1003.54V323.046Z" fill="#E2E7F0" fill-opacity="0.3" stroke="#E2E7F0" stroke-width="1.5"/>
<path d="M1032.89 323.046H1003.54V352.353H1032.89V323.046Z" stroke="#E2E7F0" stroke-width="1.5"/>
<path d="M1062.23 323.046H1032.89V352.353H1062.23V323.046Z" stroke="#E2E7F0" stroke-width="1.5"/>
<path d="M1091.57 323.046H1062.23V352.353H1091.57V323.046Z" stroke="#E2E7F0" stroke-width="1.5"/>
<path d="M5.86866 352.353H-23.4747V381.659H5.86866V352.353Z" stroke="#E2E7F0" stroke-width="1.5"/>
<path d="M35.212 352.353H5.86866V381.659H35.212V352.353Z" stroke="#E2E7F0" stroke-width="1.5"/>
<path d="M64.5553 352.353H35.212V381.659H64.5553V352.353Z" fill="#E2E7F0" fill-opacity="0.3" stroke="#E2E7F0" stroke-width="1.5"/>
<path d="M93.8986 352.353H64.5553V381.659H93.8986V352.353Z" stroke="#E2E7F0" stroke-width="1.5"/>
<path d="M123.242 352.353H93.8986V381.659H123.242V352.353Z" stroke="#E2E7F0" stroke-width="1.5"/>
<path d="M152.585 352.353H123.242V381.659H152.585V352.353Z" stroke="#E2E7F0" stroke-width="1.5"/>
<path d="M181.929 352.353H152.585V381.659H181.929V352.353Z" stroke="#E2E7F0" stroke-width="1.5"/>
<path d="M211.272 352.353H181.929V381.659H211.272V352.353Z" stroke="#E2E7F0" stroke-width="1.5"/>
<path d="M240.615 352.353H211.272V381.659H240.615V352.353Z" stroke="#E2E7F0" stroke-width="1.5"/>
<path d="M269.959 352.353H240.615V381.659H269.959V352.353Z" stroke="#E2E7F0" stroke-width="1.5"/>
<path d="M299.302 352.353H269.959V381.659H299.302V352.353Z" stroke="#E2E7F0" stroke-width="1.5"/>
<path d="M328.645 352.353H299.302V381.659H328.645V352.353Z" stroke="#E2E7F0" stroke-width="1.5"/>
<path d="M357.989 352.353H328.645V381.659H357.989V352.353Z" fill="#E2E7F0" fill-opacity="0.3" stroke="#E2E7F0" stroke-width="1.5"/>
<path d="M387.332 352.353H357.989V381.659H387.332V352.353Z" stroke="#E2E7F0" stroke-width="1.5"/>
<path d="M416.675 352.353H387.332V381.659H416.675V352.353Z" stroke="#E2E7F0" stroke-width="1.5"/>
<path d="M446.019 352.353H416.675V381.659H446.019V352.353Z" stroke="#E2E7F0" stroke-width="1.5"/>
<path d="M475.362 352.353H446.019V381.659H475.362V352.353Z" stroke="#E2E7F0" stroke-width="1.5"/>
<path d="M504.705 352.353H475.362V381.659H504.705V352.353Z" stroke="#E2E7F0" stroke-width="1.5"/>
<path d="M534.049 352.353H504.705V381.659H534.049V352.353Z" stroke="#E2E7F0" stroke-width="1.5"/>
<path d="M563.392 352.353H534.049V381.659H563.392V352.353Z" stroke="#E2E7F0" stroke-width="1.5"/>
<path d="M592.735 352.353H563.392V381.659H592.735V352.353Z" stroke="#E2E7F0" stroke-width="1.5"/>
<path d="M622.078 352.353H592.735V381.659H622.078V352.353Z" stroke="#E2E7F0" stroke-width="1.5"/>
<path d="M651.422 352.353H622.079V381.659H651.422V352.353Z" stroke="#E2E7F0" stroke-width="1.5"/>
<path d="M680.765 352.353H651.422V381.659H680.765V352.353Z" stroke="#E2E7F0" stroke-width="1.5"/>
<path d="M710.109 352.353H680.765V381.659H710.109V352.353Z" stroke="#E2E7F0" stroke-width="1.5"/>
<path d="M739.452 352.353H710.109V381.659H739.452V352.353Z" fill="#E2E7F0" fill-opacity="0.3" stroke="#E2E7F0" stroke-width="1.5"/>
<path d="M768.795 352.353H739.452V381.659H768.795V352.353Z" stroke="#E2E7F0" stroke-width="1.5"/>
<path d="M798.138 352.353H768.795V381.659H798.138V352.353Z" stroke="#E2E7F0" stroke-width="1.5"/>
<path d="M827.482 352.353H798.139V381.659H827.482V352.353Z" stroke="#E2E7F0" stroke-width="1.5"/>
<path d="M856.825 352.353H827.482V381.659H856.825V352.353Z" stroke="#E2E7F0" stroke-width="1.5"/>
<path d="M886.168 352.353H856.825V381.659H886.168V352.353Z" stroke="#E2E7F0" stroke-width="1.5"/>
<path d="M915.512 352.353H886.168V381.659H915.512V352.353Z" stroke="#E2E7F0" stroke-width="1.5"/>
<path d="M944.855 352.353H915.512V381.659H944.855V352.353Z" stroke="#E2E7F0" stroke-width="1.5"/>
<path d="M974.199 352.353H944.855V381.659H974.199V352.353Z" stroke="#E2E7F0" stroke-width="1.5"/>
<path d="M1003.54 352.353H974.198V381.659H1003.54V352.353Z" stroke="#E2E7F0" stroke-width="1.5"/>
<path d="M1032.89 352.353H1003.54V381.659H1032.89V352.353Z" stroke="#E2E7F0" stroke-width="1.5"/>
<path d="M1062.23 352.353H1032.89V381.659H1062.23V352.353Z" stroke="#E2E7F0" stroke-width="1.5"/>
<path d="M1091.57 352.353H1062.23V381.659H1091.57V352.353Z" stroke="#E2E7F0" stroke-width="1.5"/>
<path d="M5.86866 381.659H-23.4747V410.965H5.86866V381.659Z" stroke="#E2E7F0" stroke-width="1.5"/>
<path d="M35.212 381.659H5.86866V410.965H35.212V381.659Z" stroke="#E2E7F0" stroke-width="1.5"/>
<path d="M64.5553 381.659H35.212V410.965H64.5553V381.659Z" stroke="#E2E7F0" stroke-width="1.5"/>
<path d="M93.8986 381.659H64.5553V410.965H93.8986V381.659Z" stroke="#E2E7F0" stroke-width="1.5"/>
<path d="M123.242 381.659H93.8986V410.965H123.242V381.659Z" stroke="#E2E7F0" stroke-width="1.5"/>
<path d="M152.585 381.659H123.242V410.965H152.585V381.659Z" fill="#E2E7F0" fill-opacity="0.3" stroke="#E2E7F0" stroke-width="1.5"/>
<path d="M181.929 381.659H152.585V410.965H181.929V381.659Z" stroke="#E2E7F0" stroke-width="1.5"/>
<path d="M211.272 381.659H181.929V410.965H211.272V381.659Z" stroke="#E2E7F0" stroke-width="1.5"/>
<path d="M240.615 381.659H211.272V410.965H240.615V381.659Z" stroke="#E2E7F0" stroke-width="1.5"/>
<path d="M269.959 381.659H240.615V410.965H269.959V381.659Z" stroke="#E2E7F0" stroke-width="1.5"/>
<path d="M299.302 381.659H269.959V410.965H299.302V381.659Z" stroke="#E2E7F0" stroke-width="1.5"/>
<path d="M328.645 381.659H299.302V410.965H328.645V381.659Z" stroke="#E2E7F0" stroke-width="1.5"/>
<path d="M357.989 381.659H328.645V410.965H357.989V381.659Z" stroke="#E2E7F0" stroke-width="1.5"/>
<path d="M387.332 381.659H357.989V410.965H387.332V381.659Z" stroke="#E2E7F0" stroke-width="1.5"/>
<path d="M416.675 381.659H387.332V410.965H416.675V381.659Z" stroke="#E2E7F0" stroke-width="1.5"/>
<path d="M446.019 381.659H416.675V410.965H446.019V381.659Z" stroke="#E2E7F0" stroke-width="1.5"/>
<path d="M475.362 381.659H446.019V410.965H475.362V381.659Z" stroke="#E2E7F0" stroke-width="1.5"/>
<path d="M504.705 381.659H475.362V410.965H504.705V381.659Z" stroke="#E2E7F0" stroke-width="1.5"/>
<path d="M534.049 381.659H504.705V410.965H534.049V381.659Z" stroke="#E2E7F0" stroke-width="1.5"/>
<path d="M563.392 381.659H534.049V410.965H563.392V381.659Z" stroke="#E2E7F0" stroke-width="1.5"/>
<path d="M592.735 381.659H563.392V410.965H592.735V381.659Z" stroke="#E2E7F0" stroke-width="1.5"/>
<path d="M622.078 381.659H592.735V410.965H622.078V381.659Z" stroke="#E2E7F0" stroke-width="1.5"/>
<path d="M651.422 381.659H622.079V410.965H651.422V381.659Z" stroke="#E2E7F0" stroke-width="1.5"/>
<path d="M680.765 381.659H651.422V410.965H680.765V381.659Z" stroke="#E2E7F0" stroke-width="1.5"/>
<path d="M710.109 381.659H680.765V410.965H710.109V381.659Z" stroke="#E2E7F0" stroke-width="1.5"/>
<path d="M739.452 381.659H710.109V410.965H739.452V381.659Z" stroke="#E2E7F0" stroke-width="1.5"/>
<path d="M768.795 381.659H739.452V410.965H768.795V381.659Z" stroke="#E2E7F0" stroke-width="1.5"/>
<path d="M798.138 381.659H768.795V410.965H798.138V381.659Z" stroke="#E2E7F0" stroke-width="1.5"/>
<path d="M827.482 381.659H798.139V410.965H827.482V381.659Z" stroke="#E2E7F0" stroke-width="1.5"/>
<path d="M856.825 381.659H827.482V410.965H856.825V381.659Z" stroke="#E2E7F0" stroke-width="1.5"/>
<path d="M886.168 381.659H856.825V410.965H886.168V381.659Z" stroke="#E2E7F0" stroke-width="1.5"/>
<path d="M915.512 381.659H886.168V410.965H915.512V381.659Z" stroke="#E2E7F0" stroke-width="1.5"/>
<path d="M944.855 381.659H915.512V410.965H944.855V381.659Z" stroke="#E2E7F0" stroke-width="1.5"/>
<path d="M974.199 381.659H944.855V410.965H974.199V381.659Z" stroke="#E2E7F0" stroke-width="1.5"/>
<path d="M1003.54 381.659H974.198V410.965H1003.54V381.659Z" stroke="#E2E7F0" stroke-width="1.5"/>
<path d="M1032.89 381.659H1003.54V410.965H1032.89V381.659Z" stroke="#E2E7F0" stroke-width="1.5"/>
<path d="M1062.23 381.659H1032.89V410.965H1062.23V381.659Z" stroke="#E2E7F0" stroke-width="1.5"/>
<path d="M1091.57 381.659H1062.23V410.965H1091.57V381.659Z" stroke="#E2E7F0" stroke-width="1.5"/>
</g>
<path d="M1069 0H0V477.919H1069V0Z" fill="url(#paint1_radial_1_351)" fill-opacity="0.2"/>
</g>
</g>
<path d="M80.8038 351.825L72.2385 337.016C71.8458 336.336 70.878 335.779 70.0878 335.779H64.7403C63.4974 335.779 62.9878 334.904 63.6078 333.835L66.5403 328.778C66.773 328.377 66.7725 327.883 66.539 327.482C66.3054 327.081 65.8743 326.834 65.4078 326.834H57.948C57.1578 326.834 56.1878 327.39 55.7923 328.069L41.2967 352.965C40.9013 353.644 40.901 354.756 41.2962 355.435L45.026 361.847C45.6475 362.916 46.6666 362.917 47.2907 361.85L50.2052 356.868C50.8293 355.801 51.8485 355.803 52.4699 356.871L55.1121 361.413C55.5072 362.093 56.4769 362.648 57.2671 362.648H74.505C75.2953 362.648 76.265 362.093 76.6601 361.413L80.7995 354.297C81.1946 353.618 81.1965 352.505 80.8038 351.825ZM69.2364 351.112C69.8539 352.183 69.3423 353.059 68.0994 353.059H54.6911C53.4482 353.059 52.9397 352.184 53.5611 351.116L60.2706 339.581C60.892 338.513 61.9089 338.513 62.5303 339.581L69.2364 351.112Z" fill="white"/>
<path d="M122.155 352.074L112.353 342.281L113.964 340.662L123.765 350.463L122.155 352.074ZM113.964 352.074L112.353 350.463L122.155 340.662L123.765 342.281L113.964 352.074Z" fill="white"/>
<path d="M153.037 338.427C152.87 338.427 152.828 338.343 152.912 338.218L153.788 337.091C153.871 336.966 154.08 336.882 154.247 336.882H169.146C169.313 336.882 169.355 337.008 169.271 337.133L168.562 338.218C168.479 338.343 168.27 338.468 168.145 338.468L153.037 338.427Z" fill="white"/>
<path d="M146.735 342.266C146.568 342.266 146.526 342.183 146.61 342.057L147.486 340.931C147.57 340.805 147.778 340.722 147.945 340.722H166.976C167.143 340.722 167.226 340.847 167.185 340.972L166.851 341.974C166.809 342.141 166.642 342.224 166.475 342.224L146.735 342.266Z" fill="white"/>
<path d="M156.835 346.106C156.668 346.106 156.626 345.981 156.709 345.856L157.294 344.812C157.377 344.687 157.544 344.562 157.711 344.562H166.058C166.225 344.562 166.308 344.687 166.308 344.854L166.225 345.856C166.225 346.022 166.058 346.148 165.933 346.148L156.835 346.106Z" fill="white"/>
<path d="M200.155 337.675C197.526 338.343 195.731 338.844 193.144 339.512C192.518 339.679 192.476 339.72 191.933 339.094C191.307 338.385 190.848 337.926 189.972 337.508C187.342 336.215 184.797 336.59 182.418 338.135C179.58 339.971 178.119 342.684 178.161 346.064C178.203 349.403 180.498 352.157 183.795 352.616C186.633 352.992 189.012 351.99 190.89 349.862C191.266 349.403 191.599 348.902 192.017 348.318C190.514 348.318 188.636 348.318 183.962 348.318C183.086 348.318 182.877 347.775 183.169 347.066C183.712 345.772 184.713 343.602 185.298 342.517C185.423 342.266 185.715 341.849 186.341 341.849C188.469 341.849 196.315 341.849 201.532 341.849C201.449 342.976 201.449 344.103 201.282 345.229C200.823 348.234 199.696 350.989 197.86 353.409C194.855 357.374 190.932 359.836 185.965 360.504C181.875 361.047 178.077 360.254 174.739 357.75C171.65 355.413 169.897 352.324 169.438 348.485C168.896 343.936 170.231 339.846 172.986 336.256C175.949 332.375 179.872 329.913 184.671 329.036C188.595 328.327 192.351 328.786 195.731 331.081C197.943 332.542 199.529 334.545 200.572 336.966C200.823 337.342 200.656 337.55 200.155 337.675Z" fill="white"/>
<path d="M213.969 360.754C210.171 360.671 206.707 359.586 203.786 357.082C201.324 354.953 199.779 352.24 199.279 349.027C198.527 344.311 199.821 340.137 202.659 336.423C205.706 332.417 209.378 330.33 214.345 329.453C218.602 328.702 222.608 329.12 226.239 331.582C229.536 333.836 231.581 336.882 232.124 340.889C232.833 346.523 231.205 351.114 227.324 355.037C224.57 357.833 221.189 359.586 217.308 360.379C216.181 360.587 215.054 360.629 213.969 360.754ZM223.902 343.894C223.86 343.351 223.86 342.934 223.777 342.516C223.025 338.385 219.228 336.047 215.263 336.966C211.382 337.842 208.877 340.304 207.959 344.227C207.208 347.483 208.794 350.78 211.799 352.115C214.094 353.117 216.39 352.992 218.602 351.865C221.899 350.154 223.693 347.483 223.902 343.894Z" fill="white"/>
<path d="M374.54 181.137C372.035 181.137 369.819 180.728 367.893 179.909C365.984 179.074 364.484 177.813 363.393 176.125C362.302 174.438 361.756 172.29 361.756 169.682C361.756 167.534 362.123 165.702 362.856 164.185C363.589 162.651 364.611 161.398 365.924 160.426C367.236 159.455 368.762 158.713 370.501 158.202C372.256 157.691 374.148 157.358 376.177 157.205C378.376 157.034 380.14 156.83 381.469 156.591C382.816 156.336 383.788 155.986 384.384 155.543C384.981 155.083 385.279 154.478 385.279 153.728V153.625C385.279 152.603 384.887 151.818 384.103 151.273C383.319 150.728 382.313 150.455 381.086 150.455C379.739 150.455 378.64 150.753 377.788 151.35C376.952 151.929 376.45 152.824 376.279 154.034H363.29C363.461 151.648 364.219 149.449 365.566 147.438C366.93 145.409 368.915 143.79 371.523 142.58C374.131 141.353 377.387 140.739 381.29 140.739C384.103 140.739 386.626 141.071 388.859 141.736C391.092 142.384 392.992 143.296 394.56 144.472C396.128 145.631 397.322 146.995 398.14 148.563C398.975 150.114 399.393 151.801 399.393 153.625V180.523H386.2V175H385.893C385.109 176.466 384.154 177.651 383.029 178.554C381.921 179.458 380.651 180.114 379.219 180.523C377.805 180.932 376.245 181.137 374.54 181.137ZM379.143 172.239C380.217 172.239 381.222 172.017 382.16 171.574C383.114 171.131 383.89 170.492 384.486 169.657C385.083 168.821 385.381 167.807 385.381 166.614V163.341C385.006 163.495 384.606 163.639 384.18 163.776C383.771 163.912 383.327 164.04 382.85 164.159C382.39 164.279 381.896 164.389 381.367 164.492C380.856 164.594 380.319 164.688 379.756 164.773C378.665 164.943 377.771 165.225 377.072 165.617C376.39 165.992 375.878 166.461 375.538 167.023C375.214 167.568 375.052 168.182 375.052 168.864C375.052 169.955 375.435 170.79 376.202 171.37C376.969 171.949 377.95 172.239 379.143 172.239ZM418.307 141.25L424.034 153.421L430.068 141.25H444.079L433.545 160.887L444.591 180.523H430.682L424.034 168.046L417.591 180.523H403.477L414.625 160.887L404.193 141.25H418.307ZM449.097 180.523V141.25H463.211V180.523H449.097ZM456.154 137.159C454.245 137.159 452.609 136.529 451.245 135.267C449.881 134.006 449.2 132.489 449.2 130.716C449.2 128.943 449.881 127.426 451.245 126.165C452.609 124.904 454.245 124.273 456.154 124.273C458.08 124.273 459.717 124.904 461.063 126.165C462.427 127.426 463.109 128.943 463.109 130.716C463.109 132.489 462.427 134.006 461.063 135.267C459.717 136.529 458.08 137.159 456.154 137.159ZM489.322 181.239C485.061 181.239 481.413 180.395 478.379 178.708C475.345 177.003 473.018 174.634 471.399 171.6C469.78 168.549 468.97 165.012 468.97 160.989C468.97 156.966 469.78 153.438 471.399 150.404C473.018 147.353 475.345 144.983 478.379 143.296C481.413 141.591 485.061 140.739 489.322 140.739C493.584 140.739 497.231 141.591 500.266 143.296C503.3 144.983 505.626 147.353 507.246 150.404C508.865 153.438 509.675 156.966 509.675 160.989C509.675 165.012 508.865 168.549 507.246 171.6C505.626 174.634 503.3 177.003 500.266 178.708C497.231 180.395 493.584 181.239 489.322 181.239ZM489.425 170.807C490.618 170.807 491.649 170.407 492.518 169.605C493.388 168.804 494.061 167.662 494.538 166.179C495.016 164.696 495.254 162.932 495.254 160.887C495.254 158.824 495.016 157.06 494.538 155.594C494.061 154.111 493.388 152.969 492.518 152.168C491.649 151.367 490.618 150.966 489.425 150.966C488.163 150.966 487.081 151.367 486.178 152.168C485.274 152.969 484.584 154.111 484.106 155.594C483.629 157.06 483.391 158.824 483.391 160.887C483.391 162.932 483.629 164.696 484.106 166.179C484.584 167.662 485.274 168.804 486.178 169.605C487.081 170.407 488.163 170.807 489.425 170.807ZM515.402 180.523V141.25H528.8V148.716H529.209C530.027 146.262 531.425 144.318 533.402 142.887C535.379 141.455 537.731 140.739 540.459 140.739C543.22 140.739 545.598 141.472 547.592 142.938C549.587 144.387 550.788 146.313 551.197 148.716H551.606C552.271 146.313 553.686 144.387 555.851 142.938C558.016 141.472 560.555 140.739 563.47 140.739C567.237 140.739 570.288 141.949 572.624 144.37C574.976 146.79 576.152 150.012 576.152 154.034V180.523H562.038V157.614C562.038 155.892 561.604 154.546 560.734 153.574C559.865 152.586 558.697 152.091 557.231 152.091C555.783 152.091 554.632 152.586 553.78 153.574C552.945 154.546 552.527 155.892 552.527 157.614V180.523H539.027V157.614C539.027 155.892 538.592 154.546 537.723 153.574C536.854 152.586 535.686 152.091 534.22 152.091C533.249 152.091 532.413 152.313 531.714 152.756C531.016 153.199 530.47 153.838 530.078 154.674C529.703 155.492 529.516 156.472 529.516 157.614V180.523H515.402ZM608.886 154.341V164.978H584.34V154.341H608.886ZM636.205 196.068C632.268 196.068 628.893 195.506 626.08 194.381C623.285 193.273 621.111 191.739 619.56 189.779C618.026 187.836 617.165 185.603 616.978 183.08H630.58C630.717 183.915 631.057 184.588 631.603 185.1C632.148 185.611 632.847 185.978 633.7 186.199C634.569 186.438 635.54 186.557 636.614 186.557C638.438 186.557 639.947 186.114 641.14 185.228C642.35 184.341 642.955 182.739 642.955 180.421V173.773H642.546C642.035 175.103 641.251 176.236 640.194 177.174C639.137 178.094 637.867 178.801 636.384 179.296C634.901 179.773 633.273 180.012 631.501 180.012C628.705 180.012 626.131 179.364 623.779 178.068C621.444 176.773 619.569 174.719 618.154 171.907C616.756 169.094 616.057 165.421 616.057 160.887C616.057 156.148 616.79 152.296 618.256 149.33C619.739 146.364 621.648 144.191 623.984 142.81C626.336 141.429 628.807 140.739 631.398 140.739C633.342 140.739 635.046 141.08 636.512 141.762C637.978 142.426 639.205 143.321 640.194 144.446C641.182 145.554 641.932 146.773 642.444 148.103H642.751V141.25H656.864V180.421C656.864 183.745 656.003 186.566 654.282 188.884C652.577 191.219 650.174 193 647.072 194.228C643.969 195.455 640.347 196.068 636.205 196.068ZM636.717 169.989C638.012 169.989 639.12 169.631 640.04 168.915C640.978 168.182 641.694 167.142 642.188 165.796C642.7 164.432 642.955 162.796 642.955 160.887C642.955 158.943 642.7 157.282 642.188 155.901C641.694 154.503 640.978 153.438 640.04 152.705C639.12 151.955 638.012 151.58 636.717 151.58C635.421 151.58 634.313 151.955 633.393 152.705C632.489 153.438 631.79 154.503 631.296 155.901C630.819 157.282 630.58 158.943 630.58 160.887C630.58 162.83 630.819 164.483 631.296 165.847C631.79 167.193 632.489 168.225 633.393 168.941C634.313 169.639 635.421 169.989 636.717 169.989ZM682.963 181.239C678.702 181.239 675.054 180.395 672.02 178.708C668.986 177.003 666.659 174.634 665.04 171.6C663.42 168.549 662.611 165.012 662.611 160.989C662.611 156.966 663.42 153.438 665.04 150.404C666.659 147.353 668.986 144.983 672.02 143.296C675.054 141.591 678.702 140.739 682.963 140.739C687.224 140.739 690.872 141.591 693.906 143.296C696.94 144.983 699.267 147.353 700.886 150.404C702.506 153.438 703.315 156.966 703.315 160.989C703.315 165.012 702.506 168.549 700.886 171.6C699.267 174.634 696.94 177.003 693.906 178.708C690.872 180.395 687.224 181.239 682.963 181.239ZM683.065 170.807C684.258 170.807 685.29 170.407 686.159 169.605C687.028 168.804 687.702 167.662 688.179 166.179C688.656 164.696 688.895 162.932 688.895 160.887C688.895 158.824 688.656 157.06 688.179 155.594C687.702 154.111 687.028 152.969 686.159 152.168C685.29 151.367 684.258 150.966 683.065 150.966C681.804 150.966 680.722 151.367 679.818 152.168C678.915 152.969 678.224 154.111 677.747 155.594C677.27 157.06 677.031 158.824 677.031 160.887C677.031 162.932 677.27 164.696 677.747 166.179C678.224 167.662 678.915 168.804 679.818 169.605C680.722 170.407 681.804 170.807 683.065 170.807Z" fill="url(#paint2_linear_1_351)"/>
<path d="M293.508 222.196V219.545H307.434V222.196H302.04V237H298.903V222.196H293.508ZM313.068 229.33V237H309.983V219.545H313V226.134H313.153C313.46 225.395 313.934 224.812 314.576 224.386C315.224 223.955 316.048 223.739 317.048 223.739C317.957 223.739 318.75 223.929 319.426 224.31C320.102 224.69 320.625 225.247 320.994 225.98C321.369 226.713 321.557 227.608 321.557 228.665V237H318.471V229.142C318.471 228.261 318.244 227.577 317.79 227.088C317.341 226.594 316.71 226.347 315.898 226.347C315.352 226.347 314.863 226.466 314.432 226.705C314.005 226.937 313.67 227.276 313.426 227.719C313.187 228.162 313.068 228.699 313.068 229.33ZM330.497 237.256C329.184 237.256 328.051 236.983 327.096 236.438C326.148 235.886 325.417 235.108 324.906 234.102C324.395 233.091 324.139 231.901 324.139 230.531C324.139 229.185 324.395 228.003 324.906 226.986C325.423 225.963 326.145 225.168 327.071 224.599C327.997 224.026 329.085 223.739 330.335 223.739C331.142 223.739 331.903 223.869 332.619 224.131C333.341 224.386 333.977 224.784 334.528 225.324C335.085 225.864 335.523 226.551 335.841 227.386C336.159 228.216 336.318 229.205 336.318 230.352V231.298H325.588V229.219H333.361C333.355 228.628 333.227 228.102 332.977 227.642C332.727 227.176 332.378 226.81 331.929 226.543C331.486 226.276 330.969 226.142 330.378 226.142C329.747 226.142 329.193 226.295 328.716 226.602C328.238 226.903 327.866 227.301 327.599 227.795C327.338 228.284 327.204 228.821 327.199 229.406V231.222C327.199 231.983 327.338 232.636 327.616 233.182C327.895 233.722 328.284 234.136 328.784 234.426C329.284 234.71 329.869 234.852 330.54 234.852C330.988 234.852 331.395 234.79 331.758 234.665C332.122 234.534 332.437 234.344 332.704 234.094C332.971 233.844 333.173 233.534 333.309 233.165L336.19 233.489C336.008 234.25 335.662 234.915 335.15 235.483C334.645 236.045 333.997 236.483 333.207 236.795C332.417 237.102 331.514 237.256 330.497 237.256ZM350.591 237.256C349.313 237.256 348.205 236.974 347.268 236.412C346.33 235.849 345.603 235.062 345.086 234.051C344.574 233.04 344.319 231.858 344.319 230.506C344.319 229.153 344.574 227.969 345.086 226.952C345.603 225.935 346.33 225.145 347.268 224.582C348.205 224.02 349.313 223.739 350.591 223.739C351.87 223.739 352.978 224.02 353.915 224.582C354.853 225.145 355.577 225.935 356.089 226.952C356.606 227.969 356.864 229.153 356.864 230.506C356.864 231.858 356.606 233.04 356.089 234.051C355.577 235.062 354.853 235.849 353.915 236.412C352.978 236.974 351.87 237.256 350.591 237.256ZM350.608 234.784C351.302 234.784 351.881 234.594 352.347 234.213C352.813 233.827 353.16 233.31 353.387 232.662C353.62 232.014 353.736 231.293 353.736 230.497C353.736 229.696 353.62 228.972 353.387 228.324C353.16 227.67 352.813 227.151 352.347 226.764C351.881 226.378 351.302 226.185 350.608 226.185C349.898 226.185 349.307 226.378 348.836 226.764C348.37 227.151 348.02 227.67 347.787 228.324C347.56 228.972 347.447 229.696 347.447 230.497C347.447 231.293 347.56 232.014 347.787 232.662C348.02 233.31 348.37 233.827 348.836 234.213C349.307 234.594 349.898 234.784 350.608 234.784ZM366.113 223.909V226.295H358.375V223.909H366.113ZM360.309 237V222.673C360.309 221.793 360.491 221.06 360.855 220.474C361.224 219.889 361.719 219.452 362.338 219.162C362.957 218.872 363.645 218.727 364.4 218.727C364.934 218.727 365.409 218.77 365.824 218.855C366.238 218.94 366.545 219.017 366.744 219.085L366.13 221.472C366 221.432 365.835 221.392 365.636 221.352C365.437 221.307 365.216 221.284 364.971 221.284C364.398 221.284 363.991 221.423 363.753 221.702C363.52 221.974 363.403 222.366 363.403 222.878V237H360.309ZM375.16 223.909V226.295H367.422V223.909H375.16ZM369.356 237V222.673C369.356 221.793 369.538 221.06 369.902 220.474C370.271 219.889 370.765 219.452 371.385 219.162C372.004 218.872 372.692 218.727 373.447 218.727C373.981 218.727 374.456 218.77 374.871 218.855C375.285 218.94 375.592 219.017 375.791 219.085L375.177 221.472C375.047 221.432 374.882 221.392 374.683 221.352C374.484 221.307 374.263 221.284 374.018 221.284C373.444 221.284 373.038 221.423 372.8 221.702C372.567 221.974 372.45 222.366 372.45 222.878V237H369.356ZM377.576 237V223.909H380.662V237H377.576ZM379.128 222.051C378.639 222.051 378.219 221.889 377.866 221.565C377.514 221.236 377.338 220.841 377.338 220.381C377.338 219.915 377.514 219.52 377.866 219.196C378.219 218.866 378.639 218.702 379.128 218.702C379.622 218.702 380.042 218.866 380.389 219.196C380.741 219.52 380.917 219.915 380.917 220.381C380.917 220.841 380.741 221.236 380.389 221.565C380.042 221.889 379.622 222.051 379.128 222.051ZM389.545 237.256C388.238 237.256 387.116 236.969 386.178 236.395C385.246 235.821 384.527 235.028 384.022 234.017C383.522 233 383.272 231.83 383.272 230.506C383.272 229.176 383.527 228.003 384.039 226.986C384.55 225.963 385.272 225.168 386.204 224.599C387.141 224.026 388.249 223.739 389.527 223.739C390.59 223.739 391.53 223.935 392.349 224.327C393.172 224.713 393.829 225.261 394.317 225.972C394.806 226.676 395.084 227.5 395.152 228.443H392.204C392.084 227.812 391.8 227.287 391.351 226.866C390.908 226.44 390.314 226.227 389.57 226.227C388.939 226.227 388.385 226.398 387.908 226.739C387.431 227.074 387.059 227.557 386.792 228.188C386.53 228.818 386.4 229.574 386.4 230.455C386.4 231.347 386.53 232.114 386.792 232.756C387.053 233.392 387.42 233.884 387.891 234.23C388.368 234.571 388.928 234.741 389.57 234.741C390.025 234.741 390.431 234.656 390.789 234.486C391.152 234.31 391.456 234.057 391.701 233.727C391.945 233.398 392.113 232.997 392.204 232.526H395.152C395.079 233.452 394.806 234.273 394.334 234.989C393.863 235.699 393.221 236.256 392.408 236.659C391.596 237.057 390.641 237.256 389.545 237.256ZM397.686 237V223.909H400.771V237H397.686ZM399.237 222.051C398.748 222.051 398.328 221.889 397.976 221.565C397.623 221.236 397.447 220.841 397.447 220.381C397.447 219.915 397.623 219.52 397.976 219.196C398.328 218.866 398.748 218.702 399.237 218.702C399.731 218.702 400.152 218.866 400.498 219.196C400.851 219.52 401.027 219.915 401.027 220.381C401.027 220.841 400.851 221.236 400.498 221.565C400.152 221.889 399.731 222.051 399.237 222.051ZM407.711 237.264C406.881 237.264 406.134 237.116 405.469 236.821C404.81 236.52 404.287 236.077 403.901 235.491C403.52 234.906 403.33 234.185 403.33 233.327C403.33 232.588 403.466 231.977 403.739 231.494C404.012 231.011 404.384 230.625 404.856 230.335C405.327 230.045 405.858 229.827 406.449 229.679C407.046 229.526 407.662 229.415 408.299 229.347C409.066 229.267 409.688 229.196 410.165 229.134C410.643 229.065 410.989 228.963 411.205 228.827C411.427 228.685 411.537 228.466 411.537 228.17V228.119C411.537 227.477 411.347 226.98 410.966 226.628C410.586 226.276 410.037 226.099 409.322 226.099C408.566 226.099 407.966 226.264 407.523 226.594C407.086 226.923 406.79 227.312 406.637 227.761L403.756 227.352C403.983 226.557 404.358 225.892 404.881 225.358C405.404 224.818 406.043 224.415 406.799 224.148C407.554 223.875 408.39 223.739 409.304 223.739C409.935 223.739 410.563 223.812 411.188 223.96C411.813 224.108 412.384 224.352 412.901 224.693C413.418 225.028 413.833 225.486 414.145 226.065C414.464 226.645 414.623 227.369 414.623 228.239V237H411.657V235.202H411.554C411.367 235.565 411.103 235.906 410.762 236.224C410.427 236.537 410.003 236.79 409.492 236.983C408.986 237.17 408.393 237.264 407.711 237.264ZM408.512 234.997C409.131 234.997 409.668 234.875 410.123 234.631C410.577 234.381 410.927 234.051 411.171 233.642C411.421 233.233 411.546 232.787 411.546 232.304V230.761C411.449 230.841 411.285 230.915 411.052 230.983C410.824 231.051 410.569 231.111 410.285 231.162C410.001 231.213 409.719 231.259 409.441 231.298C409.162 231.338 408.921 231.372 408.716 231.401C408.256 231.463 407.844 231.565 407.481 231.707C407.117 231.849 406.83 232.048 406.62 232.304C406.41 232.554 406.304 232.878 406.304 233.276C406.304 233.844 406.512 234.273 406.927 234.562C407.341 234.852 407.87 234.997 408.512 234.997ZM420.81 219.545V237H417.725V219.545H420.81ZM441.765 225.119C441.623 224.659 441.427 224.247 441.177 223.884C440.933 223.514 440.638 223.199 440.291 222.938C439.95 222.676 439.558 222.48 439.115 222.349C438.672 222.213 438.189 222.145 437.666 222.145C436.728 222.145 435.893 222.381 435.16 222.852C434.427 223.324 433.851 224.017 433.43 224.932C433.015 225.841 432.808 226.949 432.808 228.256C432.808 229.574 433.015 230.69 433.43 231.605C433.845 232.52 434.422 233.216 435.16 233.693C435.899 234.165 436.757 234.401 437.734 234.401C438.621 234.401 439.388 234.23 440.035 233.889C440.689 233.548 441.192 233.065 441.544 232.44C441.896 231.81 442.072 231.071 442.072 230.224L442.788 230.335H438.05V227.864H445.132V229.96C445.132 231.455 444.814 232.747 444.177 233.838C443.541 234.929 442.666 235.77 441.552 236.361C440.439 236.946 439.16 237.239 437.717 237.239C436.109 237.239 434.697 236.878 433.481 236.156C432.271 235.429 431.325 234.398 430.643 233.062C429.967 231.722 429.629 230.131 429.629 228.29C429.629 226.881 429.828 225.622 430.226 224.514C430.629 223.406 431.192 222.466 431.913 221.693C432.635 220.915 433.481 220.324 434.453 219.92C435.425 219.511 436.481 219.307 437.623 219.307C438.589 219.307 439.49 219.449 440.325 219.733C441.16 220.011 441.902 220.409 442.55 220.926C443.203 221.443 443.74 222.057 444.16 222.767C444.581 223.477 444.856 224.261 444.987 225.119H441.765ZM453.763 237.256C452.485 237.256 451.377 236.974 450.439 236.412C449.502 235.849 448.775 235.062 448.258 234.051C447.746 233.04 447.491 231.858 447.491 230.506C447.491 229.153 447.746 227.969 448.258 226.952C448.775 225.935 449.502 225.145 450.439 224.582C451.377 224.02 452.485 223.739 453.763 223.739C455.042 223.739 456.15 224.02 457.087 224.582C458.025 225.145 458.749 225.935 459.26 226.952C459.777 227.969 460.036 229.153 460.036 230.506C460.036 231.858 459.777 233.04 459.26 234.051C458.749 235.062 458.025 235.849 457.087 236.412C456.15 236.974 455.042 237.256 453.763 237.256ZM453.78 234.784C454.474 234.784 455.053 234.594 455.519 234.213C455.985 233.827 456.331 233.31 456.559 232.662C456.792 232.014 456.908 231.293 456.908 230.497C456.908 229.696 456.792 228.972 456.559 228.324C456.331 227.67 455.985 227.151 455.519 226.764C455.053 226.378 454.474 226.185 453.78 226.185C453.07 226.185 452.479 226.378 452.008 226.764C451.542 227.151 451.192 227.67 450.959 228.324C450.732 228.972 450.618 229.696 450.618 230.497C450.618 231.293 450.732 232.014 450.959 232.662C451.192 233.31 451.542 233.827 452.008 234.213C452.479 234.594 453.07 234.784 453.78 234.784ZM468.744 237V219.545H471.829V226.074H471.957C472.116 225.756 472.341 225.418 472.63 225.06C472.92 224.696 473.312 224.386 473.807 224.131C474.301 223.869 474.932 223.739 475.699 223.739C476.71 223.739 477.622 223.997 478.434 224.514C479.253 225.026 479.9 225.784 480.378 226.79C480.861 227.79 481.102 229.017 481.102 230.472C481.102 231.909 480.866 233.131 480.395 234.136C479.923 235.142 479.281 235.909 478.469 236.438C477.656 236.966 476.736 237.23 475.707 237.23C474.957 237.23 474.335 237.105 473.841 236.855C473.346 236.605 472.949 236.304 472.648 235.952C472.352 235.594 472.122 235.256 471.957 234.938H471.778V237H468.744ZM471.77 230.455C471.77 231.301 471.889 232.043 472.128 232.679C472.372 233.315 472.721 233.812 473.176 234.17C473.636 234.523 474.193 234.699 474.846 234.699C475.528 234.699 476.099 234.517 476.559 234.153C477.02 233.784 477.366 233.281 477.599 232.645C477.838 232.003 477.957 231.273 477.957 230.455C477.957 229.642 477.841 228.92 477.608 228.29C477.375 227.659 477.028 227.165 476.568 226.807C476.108 226.449 475.534 226.27 474.846 226.27C474.187 226.27 473.628 226.443 473.167 226.79C472.707 227.136 472.358 227.622 472.119 228.247C471.886 228.872 471.77 229.608 471.77 230.455ZM483.725 237V223.909H486.81V237H483.725ZM485.276 222.051C484.787 222.051 484.367 221.889 484.015 221.565C483.662 221.236 483.486 220.841 483.486 220.381C483.486 219.915 483.662 219.52 484.015 219.196C484.367 218.866 484.787 218.702 485.276 218.702C485.77 218.702 486.191 218.866 486.537 219.196C486.89 219.52 487.066 219.915 487.066 220.381C487.066 220.841 486.89 221.236 486.537 221.565C486.191 221.889 485.77 222.051 485.276 222.051ZM493.068 229.33V237H489.983V223.909H492.932V226.134H493.085C493.386 225.401 493.866 224.818 494.525 224.386C495.19 223.955 496.011 223.739 496.988 223.739C497.892 223.739 498.679 223.932 499.349 224.318C500.025 224.705 500.548 225.264 500.917 225.997C501.292 226.73 501.477 227.619 501.471 228.665V237H498.386V229.142C498.386 228.267 498.159 227.582 497.704 227.088C497.255 226.594 496.633 226.347 495.838 226.347C495.298 226.347 494.818 226.466 494.398 226.705C493.983 226.937 493.656 227.276 493.417 227.719C493.184 228.162 493.068 228.699 493.068 229.33ZM509.466 237.23C508.437 237.23 507.517 236.966 506.704 236.438C505.892 235.909 505.25 235.142 504.778 234.136C504.307 233.131 504.071 231.909 504.071 230.472C504.071 229.017 504.309 227.79 504.787 226.79C505.27 225.784 505.92 225.026 506.738 224.514C507.557 223.997 508.469 223.739 509.474 223.739C510.241 223.739 510.872 223.869 511.366 224.131C511.861 224.386 512.253 224.696 512.542 225.06C512.832 225.418 513.057 225.756 513.216 226.074H513.344V219.545H516.437V237H513.403V234.938H513.216C513.057 235.256 512.826 235.594 512.525 235.952C512.224 236.304 511.826 236.605 511.332 236.855C510.838 237.105 510.216 237.23 509.466 237.23ZM510.326 234.699C510.98 234.699 511.537 234.523 511.997 234.17C512.457 233.812 512.807 233.315 513.045 232.679C513.284 232.043 513.403 231.301 513.403 230.455C513.403 229.608 513.284 228.872 513.045 228.247C512.812 227.622 512.466 227.136 512.005 226.79C511.551 226.443 510.991 226.27 510.326 226.27C509.639 226.27 509.065 226.449 508.605 226.807C508.145 227.165 507.798 227.659 507.565 228.29C507.332 228.92 507.216 229.642 507.216 230.455C507.216 231.273 507.332 232.003 507.565 232.645C507.804 233.281 508.153 233.784 508.613 234.153C509.079 234.517 509.65 234.699 510.326 234.699ZM519.725 237V223.909H522.81V237H519.725ZM521.276 222.051C520.787 222.051 520.367 221.889 520.015 221.565C519.662 221.236 519.486 220.841 519.486 220.381C519.486 219.915 519.662 219.52 520.015 219.196C520.367 218.866 520.787 218.702 521.276 218.702C521.77 218.702 522.191 218.866 522.537 219.196C522.89 219.52 523.066 219.915 523.066 220.381C523.066 220.841 522.89 221.236 522.537 221.565C522.191 221.889 521.77 222.051 521.276 222.051ZM529.068 229.33V237H525.983V223.909H528.932V226.134H529.085C529.386 225.401 529.866 224.818 530.525 224.386C531.19 223.955 532.011 223.739 532.988 223.739C533.892 223.739 534.679 223.932 535.349 224.318C536.025 224.705 536.548 225.264 536.917 225.997C537.292 226.73 537.477 227.619 537.471 228.665V237H534.386V229.142C534.386 228.267 534.159 227.582 533.704 227.088C533.255 226.594 532.633 226.347 531.838 226.347C531.298 226.347 530.818 226.466 530.398 226.705C529.983 226.937 529.656 227.276 529.417 227.719C529.184 228.162 529.068 228.699 529.068 229.33ZM546.301 242.182C545.193 242.182 544.241 242.031 543.446 241.73C542.65 241.435 542.011 241.037 541.528 240.537C541.045 240.037 540.71 239.483 540.523 238.875L543.301 238.202C543.426 238.457 543.608 238.71 543.846 238.96C544.085 239.216 544.406 239.426 544.809 239.591C545.219 239.761 545.733 239.847 546.352 239.847C547.227 239.847 547.951 239.634 548.525 239.207C549.099 238.787 549.386 238.094 549.386 237.128V234.648H549.233C549.074 234.966 548.841 235.293 548.534 235.628C548.233 235.963 547.832 236.244 547.332 236.472C546.838 236.699 546.216 236.812 545.466 236.812C544.46 236.812 543.548 236.577 542.73 236.105C541.917 235.628 541.27 234.918 540.787 233.974C540.309 233.026 540.071 231.838 540.071 230.412C540.071 228.974 540.309 227.761 540.787 226.773C541.27 225.778 541.92 225.026 542.738 224.514C543.557 223.997 544.469 223.739 545.474 223.739C546.241 223.739 546.872 223.869 547.366 224.131C547.866 224.386 548.264 224.696 548.559 225.06C548.855 225.418 549.079 225.756 549.233 226.074H549.403V223.909H552.446V237.213C552.446 238.332 552.179 239.259 551.645 239.991C551.111 240.724 550.38 241.273 549.454 241.636C548.528 242 547.477 242.182 546.301 242.182ZM546.326 234.392C546.98 234.392 547.537 234.233 547.997 233.915C548.457 233.597 548.807 233.139 549.045 232.543C549.284 231.946 549.403 231.23 549.403 230.395C549.403 229.571 549.284 228.849 549.045 228.23C548.812 227.611 548.466 227.131 548.005 226.79C547.551 226.443 546.991 226.27 546.326 226.27C545.639 226.27 545.065 226.449 544.605 226.807C544.145 227.165 543.798 227.656 543.565 228.281C543.332 228.901 543.216 229.605 543.216 230.395C543.216 231.196 543.332 231.898 543.565 232.5C543.804 233.097 544.153 233.562 544.613 233.898C545.079 234.227 545.65 234.392 546.326 234.392ZM565.954 227.369L563.142 227.676C563.062 227.392 562.923 227.125 562.724 226.875C562.531 226.625 562.27 226.423 561.94 226.27C561.611 226.116 561.207 226.04 560.73 226.04C560.088 226.04 559.548 226.179 559.111 226.457C558.679 226.736 558.466 227.097 558.471 227.54C558.466 227.92 558.605 228.23 558.889 228.469C559.179 228.707 559.656 228.903 560.321 229.057L562.554 229.534C563.792 229.801 564.713 230.224 565.315 230.804C565.923 231.384 566.23 232.142 566.236 233.08C566.23 233.903 565.988 234.631 565.511 235.261C565.04 235.886 564.383 236.375 563.542 236.727C562.701 237.08 561.736 237.256 560.645 237.256C559.042 237.256 557.753 236.92 556.775 236.25C555.798 235.574 555.216 234.634 555.028 233.429L558.037 233.139C558.173 233.73 558.463 234.176 558.906 234.477C559.349 234.778 559.926 234.929 560.636 234.929C561.369 234.929 561.957 234.778 562.4 234.477C562.849 234.176 563.074 233.804 563.074 233.361C563.074 232.986 562.929 232.676 562.639 232.432C562.355 232.187 561.912 232 561.309 231.869L559.076 231.401C557.821 231.139 556.892 230.699 556.29 230.08C555.687 229.455 555.389 228.665 555.395 227.71C555.389 226.903 555.608 226.205 556.051 225.614C556.5 225.017 557.122 224.557 557.917 224.233C558.719 223.903 559.642 223.739 560.687 223.739C562.221 223.739 563.429 224.065 564.309 224.719C565.196 225.372 565.744 226.256 565.954 227.369ZM581.363 223.909V226.295H573.625V223.909H581.363ZM575.559 237V222.673C575.559 221.793 575.741 221.06 576.105 220.474C576.474 219.889 576.969 219.452 577.588 219.162C578.207 218.872 578.895 218.727 579.65 218.727C580.184 218.727 580.659 218.77 581.074 218.855C581.488 218.94 581.795 219.017 581.994 219.085L581.38 221.472C581.25 221.432 581.085 221.392 580.886 221.352C580.687 221.307 580.466 221.284 580.221 221.284C579.648 221.284 579.241 221.423 579.003 221.702C578.77 221.974 578.653 222.366 578.653 222.878V237H575.559ZM588.998 237.256C587.719 237.256 586.611 236.974 585.674 236.412C584.736 235.849 584.009 235.062 583.492 234.051C582.981 233.04 582.725 231.858 582.725 230.506C582.725 229.153 582.981 227.969 583.492 226.952C584.009 225.935 584.736 225.145 585.674 224.582C586.611 224.02 587.719 223.739 588.998 223.739C590.276 223.739 591.384 224.02 592.322 224.582C593.259 225.145 593.983 225.935 594.495 226.952C595.012 227.969 595.27 229.153 595.27 230.506C595.27 231.858 595.012 233.04 594.495 234.051C593.983 235.062 593.259 235.849 592.322 236.412C591.384 236.974 590.276 237.256 588.998 237.256ZM589.015 234.784C589.708 234.784 590.287 234.594 590.753 234.213C591.219 233.827 591.566 233.31 591.793 232.662C592.026 232.014 592.143 231.293 592.143 230.497C592.143 229.696 592.026 228.972 591.793 228.324C591.566 227.67 591.219 227.151 590.753 226.764C590.287 226.378 589.708 226.185 589.015 226.185C588.304 226.185 587.714 226.378 587.242 226.764C586.776 227.151 586.427 227.67 586.194 228.324C585.966 228.972 585.853 229.696 585.853 230.497C585.853 231.293 585.966 232.014 586.194 232.662C586.427 233.31 586.776 233.827 587.242 234.213C587.714 234.594 588.304 234.784 589.015 234.784ZM597.889 237V223.909H600.88V226.091H601.017C601.255 225.335 601.665 224.753 602.244 224.344C602.829 223.929 603.497 223.722 604.247 223.722C604.417 223.722 604.608 223.73 604.818 223.747C605.034 223.759 605.213 223.778 605.355 223.807V226.645C605.224 226.599 605.017 226.56 604.733 226.526C604.454 226.486 604.184 226.466 603.923 226.466C603.361 226.466 602.855 226.588 602.406 226.832C601.963 227.071 601.613 227.403 601.358 227.83C601.102 228.256 600.974 228.747 600.974 229.304V237H597.889ZM619.895 223.909V226.295H612.369V223.909H619.895ZM614.227 220.773H617.312V233.062C617.312 233.477 617.375 233.795 617.5 234.017C617.63 234.233 617.801 234.381 618.011 234.46C618.221 234.54 618.454 234.58 618.71 234.58C618.903 234.58 619.079 234.565 619.238 234.537C619.403 234.509 619.528 234.483 619.613 234.46L620.133 236.872C619.969 236.929 619.733 236.991 619.426 237.06C619.125 237.128 618.755 237.168 618.318 237.179C617.545 237.202 616.849 237.085 616.23 236.83C615.611 236.568 615.119 236.165 614.755 235.619C614.398 235.074 614.221 234.392 614.227 233.574V220.773ZM625.841 229.33V237H622.756V219.545H625.773V226.134H625.927C626.233 225.395 626.708 224.812 627.35 224.386C627.998 223.955 628.822 223.739 629.822 223.739C630.731 223.739 631.523 223.929 632.199 224.31C632.876 224.69 633.398 225.247 633.768 225.98C634.143 226.713 634.33 227.608 634.33 228.665V237H631.245V229.142C631.245 228.261 631.018 227.577 630.563 227.088C630.114 226.594 629.483 226.347 628.671 226.347C628.126 226.347 627.637 226.466 627.205 226.705C626.779 226.937 626.444 227.276 626.199 227.719C625.961 228.162 625.841 228.699 625.841 229.33ZM643.27 237.256C641.958 237.256 640.824 236.983 639.87 236.438C638.921 235.886 638.191 235.108 637.679 234.102C637.168 233.091 636.912 231.901 636.912 230.531C636.912 229.185 637.168 228.003 637.679 226.986C638.197 225.963 638.918 225.168 639.844 224.599C640.77 224.026 641.858 223.739 643.108 223.739C643.915 223.739 644.677 223.869 645.393 224.131C646.114 224.386 646.751 224.784 647.302 225.324C647.858 225.864 648.296 226.551 648.614 227.386C648.932 228.216 649.091 229.205 649.091 230.352V231.298H638.361V229.219H646.134C646.128 228.628 646.001 228.102 645.751 227.642C645.501 227.176 645.151 226.81 644.702 226.543C644.259 226.276 643.742 226.142 643.151 226.142C642.52 226.142 641.966 226.295 641.489 226.602C641.012 226.903 640.64 227.301 640.373 227.795C640.111 228.284 639.978 228.821 639.972 229.406V231.222C639.972 231.983 640.111 232.636 640.39 233.182C640.668 233.722 641.057 234.136 641.557 234.426C642.057 234.71 642.643 234.852 643.313 234.852C643.762 234.852 644.168 234.79 644.532 234.665C644.895 234.534 645.211 234.344 645.478 234.094C645.745 233.844 645.947 233.534 646.083 233.165L648.964 233.489C648.782 234.25 648.435 234.915 647.924 235.483C647.418 236.045 646.77 236.483 645.981 236.795C645.191 237.102 644.287 237.256 643.27 237.256ZM660.032 237H656.657L662.802 219.545H666.706L672.859 237H669.484L664.822 223.125H664.686L660.032 237ZM660.143 230.156H669.348V232.696H660.143V230.156ZM677.545 223.909L680.187 228.741L682.871 223.909H686.135L682.189 230.455L686.204 237H682.956L680.187 232.287L677.442 237H674.17L678.158 230.455L674.272 223.909H677.545ZM688.522 237V223.909H691.607V237H688.522ZM690.073 222.051C689.584 222.051 689.164 221.889 688.812 221.565C688.459 221.236 688.283 220.841 688.283 220.381C688.283 219.915 688.459 219.52 688.812 219.196C689.164 218.866 689.584 218.702 690.073 218.702C690.567 218.702 690.988 218.866 691.334 219.196C691.687 219.52 691.863 219.915 691.863 220.381C691.863 220.841 691.687 221.236 691.334 221.565C690.988 221.889 690.567 222.051 690.073 222.051ZM700.49 237.256C699.211 237.256 698.103 236.974 697.166 236.412C696.228 235.849 695.501 235.062 694.984 234.051C694.473 233.04 694.217 231.858 694.217 230.506C694.217 229.153 694.473 227.969 694.984 226.952C695.501 225.935 696.228 225.145 697.166 224.582C698.103 224.02 699.211 223.739 700.49 223.739C701.768 223.739 702.876 224.02 703.814 224.582C704.751 225.145 705.476 225.935 705.987 226.952C706.504 227.969 706.763 229.153 706.763 230.506C706.763 231.858 706.504 233.04 705.987 234.051C705.476 235.062 704.751 235.849 703.814 236.412C702.876 236.974 701.768 237.256 700.49 237.256ZM700.507 234.784C701.2 234.784 701.78 234.594 702.246 234.213C702.711 233.827 703.058 233.31 703.285 232.662C703.518 232.014 703.635 231.293 703.635 230.497C703.635 229.696 703.518 228.972 703.285 228.324C703.058 227.67 702.711 227.151 702.246 226.764C701.78 226.378 701.2 226.185 700.507 226.185C699.797 226.185 699.206 226.378 698.734 226.764C698.268 227.151 697.919 227.67 697.686 228.324C697.459 228.972 697.345 229.696 697.345 230.497C697.345 231.293 697.459 232.014 697.686 232.662C697.919 233.31 698.268 233.827 698.734 234.213C699.206 234.594 699.797 234.784 700.507 234.784ZM709.381 237V223.909H712.33V226.134H712.483C712.756 225.384 713.208 224.798 713.839 224.378C714.469 223.952 715.222 223.739 716.097 223.739C716.983 223.739 717.731 223.955 718.339 224.386C718.952 224.812 719.384 225.395 719.634 226.134H719.77C720.06 225.406 720.549 224.827 721.236 224.395C721.929 223.957 722.751 223.739 723.699 223.739C724.904 223.739 725.887 224.119 726.648 224.881C727.41 225.642 727.79 226.753 727.79 228.213V237H724.697V228.69C724.697 227.878 724.481 227.284 724.049 226.909C723.617 226.528 723.089 226.338 722.464 226.338C721.719 226.338 721.137 226.571 720.716 227.037C720.302 227.497 720.094 228.097 720.094 228.835V237H717.069V228.562C717.069 227.886 716.864 227.347 716.455 226.943C716.052 226.54 715.523 226.338 714.87 226.338C714.427 226.338 714.023 226.452 713.66 226.679C713.296 226.901 713.006 227.216 712.79 227.625C712.574 228.028 712.466 228.5 712.466 229.04V237H709.381ZM739.251 237H735.876L742.021 219.545H745.925L752.078 237H748.703L744.041 223.125H743.905L739.251 237ZM739.362 230.156H748.567V232.696H739.362V230.156ZM754.377 237V219.545H760.922C762.263 219.545 763.388 219.795 764.297 220.295C765.212 220.795 765.902 221.483 766.368 222.358C766.84 223.227 767.076 224.216 767.076 225.324C767.076 226.443 766.84 227.437 766.368 228.307C765.897 229.176 765.201 229.861 764.28 230.361C763.36 230.855 762.226 231.102 760.88 231.102H756.542V228.503H760.454C761.238 228.503 761.88 228.366 762.38 228.094C762.88 227.821 763.249 227.446 763.488 226.969C763.732 226.491 763.854 225.943 763.854 225.324C763.854 224.705 763.732 224.159 763.488 223.688C763.249 223.216 762.877 222.849 762.371 222.588C761.871 222.321 761.226 222.188 760.437 222.188H757.539V237H754.377ZM772.984 219.545V237H769.822V219.545H772.984Z" fill="#ABB3BF"/>
</g>
<rect x="0.786865" y="0.5" width="1065.67" height="399" stroke="white" stroke-opacity="0.1"/>
<defs>
<radialGradient id="paint0_radial_1_351" cx="0" cy="0" r="1" gradientUnits="userSpaceOnUse" gradientTransform="translate(534.5 134.358) rotate(90) scale(343.561 585.061)">
<stop stop-color="#D9D9D9"/>
<stop offset="1" stop-color="#D9D9D9" stop-opacity="0"/>
</radialGradient>
<radialGradient id="paint1_radial_1_351" cx="0" cy="0" r="1" gradientUnits="userSpaceOnUse" gradientTransform="translate(534.5 195.949) rotate(90) scale(281.97 480.176)">
<stop stop-color="#0A3FFF"/>
<stop offset="1" stop-color="#B591F9" stop-opacity="0"/>
</radialGradient>
<linearGradient id="paint2_linear_1_351" x1="416.162" y1="117.976" x2="622.293" y2="128.454" gradientUnits="userSpaceOnUse">
<stop stop-color="#BE99FF"/>
<stop offset="0.583932" stop-color="#8CBDFF"/>
<stop offset="1" stop-color="#6D7CFF"/>
</linearGradient>
<clipPath id="clip0_1_351">
<rect x="0.286865" width="1066.67" height="400" fill="white"/>
</clipPath>
<clipPath id="clip1_1_351">
<rect width="1069" height="468" fill="white"/>
</clipPath>
</defs>
</svg>
