<svg width="1067" height="400" viewBox="0 0 1067 400" fill="none" xmlns="http://www.w3.org/2000/svg">
<g clip-path="url(#clip0_1_2)">
<rect x="0.286865" width="1066.67" height="400" fill="white"/>
<g opacity="0.66" clip-path="url(#clip1_1_2)">
<path d="M20.3835 -28.342H-8.12292V0.173374H20.3835V-28.342Z" stroke="#DDDDDD" stroke-width="1.5"/>
<path d="M48.89 -28.342H20.3835V0.173374H48.89V-28.342Z" stroke="#DDDDDD" stroke-width="1.5"/>
<path d="M77.3965 -28.342H48.89V0.173374H77.3965V-28.342Z" fill="#E2E7F0" fill-opacity="0.3" stroke="#DDDDDD" stroke-width="1.5"/>
<path d="M105.903 -28.342H77.3965V0.173374H105.903V-28.342Z" stroke="#DDDDDD" stroke-width="1.5"/>
<path d="M134.409 -28.342H105.903V0.173374H134.409V-28.342Z" stroke="#DDDDDD" stroke-width="1.5"/>
<path d="M162.916 -28.342H134.409V0.173374H162.916V-28.342Z" stroke="#DDDDDD" stroke-width="1.5"/>
<path d="M191.422 -28.342H162.916V0.173374H191.422V-28.342Z" stroke="#DDDDDD" stroke-width="1.5"/>
<path d="M219.929 -28.342H191.422V0.173374H219.929V-28.342Z" stroke="#DDDDDD" stroke-width="1.5"/>
<path d="M248.435 -28.342H219.929V0.173374H248.435V-28.342Z" fill="#E2E7F0" fill-opacity="0.3" stroke="#DDDDDD" stroke-width="1.5"/>
<path d="M276.942 -28.342H248.435V0.173374H276.942V-28.342Z" stroke="#DDDDDD" stroke-width="1.5"/>
<path d="M305.448 -28.342H276.942V0.173374H305.448V-28.342Z" stroke="#DDDDDD" stroke-width="1.5"/>
<path d="M333.955 -28.342H305.448V0.173374H333.955V-28.342Z" stroke="#DDDDDD" stroke-width="1.5"/>
<path d="M619.019 -28.342H590.513V0.173374H619.019V-28.342Z" stroke="#DDDDDD" stroke-width="1.5"/>
<path d="M647.526 -28.342H619.019V0.173374H647.526V-28.342Z" stroke="#DDDDDD" stroke-width="1.5"/>
<path d="M676.032 -28.342H647.526V0.173374H676.032V-28.342Z" stroke="#DDDDDD" stroke-width="1.5"/>
<path d="M704.539 -28.342H676.032V0.173374H704.539V-28.342Z" stroke="#DDDDDD" stroke-width="1.5"/>
<path d="M733.045 -28.342H704.539V0.173374H733.045V-28.342Z" fill="#E2E7F0" fill-opacity="0.3" stroke="#DDDDDD" stroke-width="1.5"/>
<path d="M761.552 -28.342H733.045V0.173374H761.552V-28.342Z" stroke="#DDDDDD" stroke-width="1.5"/>
<path d="M790.058 -28.342H761.552V0.173374H790.058V-28.342Z" stroke="#DDDDDD" stroke-width="1.5"/>
<path d="M818.565 -28.342H790.058V0.173374H818.565V-28.342Z" fill="#E2E7F0" fill-opacity="0.3" stroke="#DDDDDD" stroke-width="1.5"/>
<path d="M847.071 -28.342H818.565V0.173374H847.071V-28.342Z" stroke="#DDDDDD" stroke-width="1.5"/>
<path d="M875.578 -28.342H847.071V0.173374H875.578V-28.342Z" stroke="#DDDDDD" stroke-width="1.5"/>
<path d="M904.084 -28.342H875.578V0.173374H904.084V-28.342Z" stroke="#DDDDDD" stroke-width="1.5"/>
<path d="M932.591 -28.342H904.084V0.173374H932.591V-28.342Z" stroke="#DDDDDD" stroke-width="1.5"/>
<path d="M961.097 -28.342H932.591V0.173374H961.097V-28.342Z" stroke="#DDDDDD" stroke-width="1.5"/>
<path d="M989.604 -28.342H961.097V0.173374H989.604V-28.342Z" stroke="#DDDDDD" stroke-width="1.5"/>
<path d="M1018.11 -28.342H989.604V0.173374H1018.11V-28.342Z" stroke="#DDDDDD" stroke-width="1.5"/>
<path d="M1046.62 -28.342H1018.11V0.173374H1046.62V-28.342Z" stroke="#DDDDDD" stroke-width="1.5"/>
<path d="M1075.12 -28.342H1046.62V0.173374H1075.12V-28.342Z" fill="#E2E7F0" fill-opacity="0.3" stroke="#DDDDDD" stroke-width="1.5"/>
<path d="M20.3835 0.173374H-8.12292V28.6887H20.3835V0.173374Z" stroke="#DDDDDD" stroke-width="1.5"/>
<path d="M48.89 0.173374H20.3835V28.6887H48.89V0.173374Z" stroke="#DDDDDD" stroke-width="1.5"/>
<path d="M77.3965 0.173374H48.89V28.6887H77.3965V0.173374Z" stroke="#DDDDDD" stroke-width="1.5"/>
<path d="M105.903 0.173374H77.3965V28.6887H105.903V0.173374Z" stroke="#DDDDDD" stroke-width="1.5"/>
<path d="M134.409 0.173374H105.903V28.6887H134.409V0.173374Z" stroke="#DDDDDD" stroke-width="1.5"/>
<path d="M162.916 0.173374H134.409V28.6887H162.916V0.173374Z" stroke="#DDDDDD" stroke-width="1.5"/>
<path d="M191.422 0.173374H162.916V28.6887H191.422V0.173374Z" fill="#E2E7F0" fill-opacity="0.3" stroke="#DDDDDD" stroke-width="1.5"/>
<path d="M219.929 0.173374H191.422V28.6887H219.929V0.173374Z" stroke="#DDDDDD" stroke-width="1.5"/>
<path d="M333.955 0.173374H305.448V28.6887H333.955V0.173374Z" stroke="#DDDDDD" stroke-width="1.5"/>
<path d="M362.461 0.173374H333.955V28.6887H362.461V0.173374Z" stroke="#DDDDDD" stroke-width="1.5"/>
<path d="M390.968 0.173374H362.461V28.6887H390.968V0.173374Z" stroke="#DDDDDD" stroke-width="1.5"/>
<path d="M419.474 0.173374H390.968V28.6887H419.474V0.173374Z" stroke="#DDDDDD" stroke-width="1.5"/>
<path d="M447.981 0.173374H419.474V28.6887H447.981V0.173374Z" stroke="#DDDDDD" stroke-width="1.5"/>
<path d="M476.487 0.173374H447.981V28.6887H476.487V0.173374Z" stroke="#DDDDDD" stroke-width="1.5"/>
<path d="M904.084 0.173374H875.578V28.6887H904.084V0.173374Z" stroke="#DDDDDD" stroke-width="1.5"/>
<path d="M932.591 0.173374H904.084V28.6887H932.591V0.173374Z" fill="#E2E7F0" fill-opacity="0.3" stroke="#DDDDDD" stroke-width="1.5"/>
<path d="M961.097 0.173374H932.591V28.6887H961.097V0.173374Z" stroke="#DDDDDD" stroke-width="1.5"/>
<path d="M989.604 0.173374H961.097V28.6887H989.604V0.173374Z" stroke="#DDDDDD" stroke-width="1.5"/>
<path d="M1018.11 0.173374H989.604V28.6887H1018.11V0.173374Z" stroke="#DDDDDD" stroke-width="1.5"/>
<path d="M1046.62 0.173374H1018.11V28.6887H1046.62V0.173374Z" stroke="#DDDDDD" stroke-width="1.5"/>
<path d="M1075.12 0.173374H1046.62V28.6887H1075.12V0.173374Z" stroke="#DDDDDD" stroke-width="1.5"/>
<path d="M20.3835 28.6887H-8.12292V57.204H20.3835V28.6887Z" stroke="#DDDDDD" stroke-width="1.5"/>
<path d="M48.89 28.6887H20.3835V57.204H48.89V28.6887Z" stroke="#DDDDDD" stroke-width="1.5"/>
<path d="M77.3965 28.6887H48.89V57.204H77.3965V28.6887Z" stroke="#DDDDDD" stroke-width="1.5"/>
<path d="M105.903 28.6887H77.3965V57.204H105.903V28.6887Z" stroke="#DDDDDD" stroke-width="1.5"/>
<path d="M134.409 28.6887H105.903V57.204H134.409V28.6887Z" stroke="#DDDDDD" stroke-width="1.5"/>
<path d="M162.916 28.6887H134.409V57.204H162.916V28.6887Z" stroke="#DDDDDD" stroke-width="1.5"/>
<path d="M333.955 28.6887H305.448V57.204H333.955V28.6887Z" stroke="#DDDDDD" stroke-width="1.5"/>
<path d="M619.019 28.6887H590.513V57.204H619.019V28.6887Z" stroke="#DDDDDD" stroke-width="1.5"/>
<path d="M647.526 28.6887H619.019V57.204H647.526V28.6887Z" stroke="#DDDDDD" stroke-width="1.5"/>
<path d="M676.032 28.6887H647.526V57.204H676.032V28.6887Z" stroke="#DDDDDD" stroke-width="1.5"/>
<path d="M704.539 28.6887H676.032V57.204H704.539V28.6887Z" stroke="#DDDDDD" stroke-width="1.5"/>
<path d="M733.045 28.6887H704.539V57.204H733.045V28.6887Z" stroke="#DDDDDD" stroke-width="1.5"/>
<path d="M761.552 28.6887H733.045V57.204H761.552V28.6887Z" stroke="#DDDDDD" stroke-width="1.5"/>
<path d="M790.058 28.6887H761.552V57.204H790.058V28.6887Z" stroke="#DDDDDD" stroke-width="1.5"/>
<path d="M961.097 28.6887H932.591V57.204H961.097V28.6887Z" stroke="#DDDDDD" stroke-width="1.5"/>
<path d="M989.604 28.6887H961.097V57.204H989.604V28.6887Z" stroke="#DDDDDD" stroke-width="1.5"/>
<path d="M1018.11 28.6887H989.604V57.204H1018.11V28.6887Z" stroke="#DDDDDD" stroke-width="1.5"/>
<path d="M1046.62 28.6887H1018.11V57.204H1046.62V28.6887Z" stroke="#DDDDDD" stroke-width="1.5"/>
<path d="M1075.12 28.6887H1046.62V57.204H1075.12V28.6887Z" stroke="#DDDDDD" stroke-width="1.5"/>
<path d="M20.3835 57.204H-8.12292V85.7193H20.3835V57.204Z" stroke="#DDDDDD" stroke-width="1.5"/>
<path d="M48.89 57.204H20.3835V85.7193H48.89V57.204Z" stroke="#DDDDDD" stroke-width="1.5"/>
<path d="M77.3965 57.204H48.89V85.7193H77.3965V57.204Z" stroke="#DDDDDD" stroke-width="1.5"/>
<path d="M105.903 57.204H77.3965V85.7193H105.903V57.204Z" stroke="#DDDDDD" stroke-width="1.5"/>
<path d="M134.409 57.204H105.903V85.7193H134.409V57.204Z" stroke="#DDDDDD" stroke-width="1.5"/>
<path d="M162.916 57.204H134.409V85.7193H162.916V57.204Z" stroke="#DDDDDD" stroke-width="1.5"/>
<path d="M191.422 57.204H162.916V85.7193H191.422V57.204Z" stroke="#DDDDDD" stroke-width="1.5"/>
<path d="M219.929 57.204H191.422V85.7193H219.929V57.204Z" stroke="#DDDDDD" stroke-width="1.5"/>
<path d="M790.058 57.204H761.552V85.7193H790.058V57.204Z" stroke="#DDDDDD" stroke-width="1.5"/>
<path d="M847.071 57.204H818.565V85.7193H847.071V57.204Z" fill="#E2E7F0" fill-opacity="0.3" stroke="#DDDDDD" stroke-width="1.5"/>
<path d="M875.578 57.204H847.071V85.7193H875.578V57.204Z" stroke="#DDDDDD" stroke-width="1.5"/>
<path d="M904.084 57.204H875.578V85.7193H904.084V57.204Z" stroke="#DDDDDD" stroke-width="1.5"/>
<path d="M932.591 57.204H904.084V85.7193H932.591V57.204Z" stroke="#DDDDDD" stroke-width="1.5"/>
<path d="M961.097 57.204H932.591V85.7193H961.097V57.204Z" stroke="#DDDDDD" stroke-width="1.5"/>
<path d="M989.604 57.204H961.097V85.7193H989.604V57.204Z" fill="#E2E7F0" fill-opacity="0.3" stroke="#DDDDDD" stroke-width="1.5"/>
<path d="M1018.11 57.204H989.604V85.7193H1018.11V57.204Z" stroke="#DDDDDD" stroke-width="1.5"/>
<path d="M1046.62 57.204H1018.11V85.7193H1046.62V57.204Z" stroke="#DDDDDD" stroke-width="1.5"/>
<path d="M1075.12 57.204H1046.62V85.7193H1075.12V57.204Z" fill="#E2E7F0" fill-opacity="0.3" stroke="#DDDDDD" stroke-width="1.5"/>
<path d="M20.3835 85.7193H-8.12292V114.235H20.3835V85.7193Z" stroke="#DDDDDD" stroke-width="1.5"/>
<path d="M48.89 85.7193H20.3835V114.235H48.89V85.7193Z" fill="#E2E7F0" fill-opacity="0.3" stroke="#DDDDDD" stroke-width="1.5"/>
<path d="M77.3965 85.7193H48.89V114.235H77.3965V85.7193Z" stroke="#DDDDDD" stroke-width="1.5"/>
<path d="M191.422 85.7193H162.916V114.235H191.422V85.7193Z" fill="#E2E7F0" fill-opacity="0.3" stroke="#DDDDDD" stroke-width="1.5"/>
<path d="M219.929 85.7193H191.422V114.235H219.929V85.7193Z" stroke="#DDDDDD" stroke-width="1.5"/>
<path d="M276.942 85.7193H248.435V114.235H276.942V85.7193Z" stroke="#DDDDDD" stroke-width="1.5"/>
<path d="M790.058 85.7193H761.552V114.235H790.058V85.7193Z" stroke="#DDDDDD" stroke-width="1.5"/>
<path d="M818.565 85.7193H790.058V114.235H818.565V85.7193Z" stroke="#DDDDDD" stroke-width="1.5"/>
<path d="M904.084 85.7193H875.578V114.235H904.084V85.7193Z" stroke="#DDDDDD" stroke-width="1.5"/>
<path d="M932.591 85.7193H904.084V114.235H932.591V85.7193Z" stroke="#DDDDDD" stroke-width="1.5"/>
<path d="M961.097 85.7193H932.591V114.235H961.097V85.7193Z" stroke="#DDDDDD" stroke-width="1.5"/>
<path d="M1075.12 85.7193H1046.62V114.235H1075.12V85.7193Z" stroke="#DDDDDD" stroke-width="1.5"/>
<path d="M20.3835 114.235H-8.12292V142.75H20.3835V114.235Z" stroke="#DDDDDD" stroke-width="1.5"/>
<path d="M48.89 114.235H20.3835V142.75H48.89V114.235Z" stroke="#DDDDDD" stroke-width="1.5"/>
<path d="M77.3965 114.235H48.89V142.75H77.3965V114.235Z" stroke="#DDDDDD" stroke-width="1.5"/>
<path d="M105.903 114.235H77.3965V142.75H105.903V114.235Z" stroke="#DDDDDD" stroke-width="1.5"/>
<path d="M134.409 114.235H105.903V142.75H134.409V114.235Z" stroke="#DDDDDD" stroke-width="1.5"/>
<path d="M162.916 114.235H134.409V142.75H162.916V114.235Z" stroke="#DDDDDD" stroke-width="1.5"/>
<path d="M305.448 114.235H276.942V142.75H305.448V114.235Z" stroke="#DDDDDD" stroke-width="1.5"/>
<path d="M333.955 114.235H305.448V142.75H333.955V114.235Z" stroke="#DDDDDD" stroke-width="1.5"/>
<path d="M619.019 114.235H590.513V142.75H619.019V114.235Z" stroke="#DDDDDD" stroke-width="1.5"/>
<path d="M647.526 114.235H619.019V142.75H647.526V114.235Z" stroke="#DDDDDD" stroke-width="1.5"/>
<path d="M676.032 114.235H647.526V142.75H676.032V114.235Z" stroke="#DDDDDD" stroke-width="1.5"/>
<path d="M704.539 114.235H676.032V142.75H704.539V114.235Z" stroke="#DDDDDD" stroke-width="1.5"/>
<path d="M733.045 114.235H704.539V142.75H733.045V114.235Z" stroke="#DDDDDD" stroke-width="1.5"/>
<path d="M761.552 114.235H733.045V142.75H761.552V114.235Z" stroke="#DDDDDD" stroke-width="1.5"/>
<path d="M818.565 114.235H790.058V142.75H818.565V114.235Z" stroke="#DDDDDD" stroke-width="1.5"/>
<path d="M847.071 114.235H818.565V142.75H847.071V114.235Z" fill="#E2E7F0" fill-opacity="0.3" stroke="#DDDDDD" stroke-width="1.5"/>
<path d="M961.097 114.235H932.591V142.75H961.097V114.235Z" stroke="#DDDDDD" stroke-width="1.5"/>
<path d="M989.604 114.235H961.097V142.75H989.604V114.235Z" stroke="#DDDDDD" stroke-width="1.5"/>
<path d="M1018.11 114.235H989.604V142.75H1018.11V114.235Z" stroke="#DDDDDD" stroke-width="1.5"/>
<path d="M1046.62 114.235H1018.11V142.75H1046.62V114.235Z" stroke="#DDDDDD" stroke-width="1.5"/>
<path d="M1075.12 114.235H1046.62V142.75H1075.12V114.235Z" stroke="#DDDDDD" stroke-width="1.5"/>
<path d="M20.3835 142.75H-8.12292V171.265H20.3835V142.75Z" stroke="#DDDDDD" stroke-width="1.5"/>
<path d="M48.89 142.75H20.3835V171.265H48.89V142.75Z" stroke="#DDDDDD" stroke-width="1.5"/>
<path d="M77.3965 142.75H48.89V171.265H77.3965V142.75Z" stroke="#DDDDDD" stroke-width="1.5"/>
<path d="M105.903 142.75H77.3965V171.265H105.903V142.75Z" stroke="#DDDDDD" stroke-width="1.5"/>
<path d="M134.409 142.75H105.903V171.265H134.409V142.75Z" stroke="#DDDDDD" stroke-width="1.5"/>
<path d="M162.916 142.75H134.409V171.265H162.916V142.75Z" stroke="#DDDDDD" stroke-width="1.5"/>
<path d="M191.422 142.75H162.916V171.265H191.422V142.75Z" stroke="#DDDDDD" stroke-width="1.5"/>
<path d="M219.929 142.75H191.422V171.265H219.929V142.75Z" stroke="#DDDDDD" stroke-width="1.5"/>
<path d="M875.578 142.75H847.071V171.265H875.578V142.75Z" stroke="#DDDDDD" stroke-width="1.5"/>
<path d="M904.084 142.75H875.578V171.265H904.084V142.75Z" stroke="#DDDDDD" stroke-width="1.5"/>
<path d="M932.591 142.75H904.084V171.265H932.591V142.75Z" stroke="#DDDDDD" stroke-width="1.5"/>
<path d="M961.097 142.75H932.591V171.265H961.097V142.75Z" stroke="#DDDDDD" stroke-width="1.5"/>
<path d="M989.604 142.75H961.097V171.265H989.604V142.75Z" fill="#E2E7F0" fill-opacity="0.3" stroke="#DDDDDD" stroke-width="1.5"/>
<path d="M1018.11 142.75H989.604V171.265H1018.11V142.75Z" stroke="#DDDDDD" stroke-width="1.5"/>
<path d="M1046.62 142.75H1018.11V171.265H1046.62V142.75Z" stroke="#DDDDDD" stroke-width="1.5"/>
<path d="M1075.12 142.75H1046.62V171.265H1075.12V142.75Z" stroke="#DDDDDD" stroke-width="1.5"/>
<path d="M20.3835 171.265H-8.12292V199.781H20.3835V171.265Z" fill="#E2E7F0" fill-opacity="0.3" stroke="#DDDDDD" stroke-width="1.5"/>
<path d="M48.89 171.265H20.3835V199.781H48.89V171.265Z" stroke="#DDDDDD" stroke-width="1.5"/>
<path d="M77.3965 171.265H48.89V199.781H77.3965V171.265Z" stroke="#DDDDDD" stroke-width="1.5"/>
<path d="M191.422 171.265H162.916V199.781H191.422V171.265Z" fill="#E2E7F0" fill-opacity="0.3" stroke="#DDDDDD" stroke-width="1.5"/>
<path d="M219.929 171.265H191.422V199.781H219.929V171.265Z" stroke="#DDDDDD" stroke-width="1.5"/>
<path d="M276.942 171.265H248.435V199.781H276.942V171.265Z" stroke="#DDDDDD" stroke-width="1.5"/>
<path d="M305.448 171.265H276.942V199.781H305.448V171.265Z" stroke="#DDDDDD" stroke-width="1.5"/>
<path d="M847.071 171.265H818.565V199.781H847.071V171.265Z" stroke="#DDDDDD" stroke-width="1.5"/>
<path d="M875.578 171.265H847.071V199.781H875.578V171.265Z" fill="#E2E7F0" fill-opacity="0.3" stroke="#DDDDDD" stroke-width="1.5"/>
<path d="M904.084 171.265H875.578V199.781H904.084V171.265Z" stroke="#DDDDDD" stroke-width="1.5"/>
<path d="M932.591 171.265H904.084V199.781H932.591V171.265Z" stroke="#DDDDDD" stroke-width="1.5"/>
<path d="M961.097 171.265H932.591V199.781H961.097V171.265Z" stroke="#DDDDDD" stroke-width="1.5"/>
<path d="M1075.12 171.265H1046.62V199.781H1075.12V171.265Z" stroke="#DDDDDD" stroke-width="1.5"/>
<path d="M20.3835 199.781H-8.12292V228.296H20.3835V199.781Z" stroke="#DDDDDD" stroke-width="1.5"/>
<path d="M48.89 199.781H20.3835V228.296H48.89V199.781Z" stroke="#DDDDDD" stroke-width="1.5"/>
<path d="M77.3965 199.781H48.89V228.296H77.3965V199.781Z" stroke="#DDDDDD" stroke-width="1.5"/>
<path d="M105.903 199.781H77.3965V228.296H105.903V199.781Z" stroke="#DDDDDD" stroke-width="1.5"/>
<path d="M134.409 199.781H105.903V228.296H134.409V199.781Z" stroke="#DDDDDD" stroke-width="1.5"/>
<path d="M162.916 199.781H134.409V228.296H162.916V199.781Z" fill="#E2E7F0" fill-opacity="0.3" stroke="#DDDDDD" stroke-width="1.5"/>
<path d="M305.448 199.781H276.942V228.296H305.448V199.781Z" stroke="#DDDDDD" stroke-width="1.5"/>
<path d="M333.955 199.781H305.448V228.296H333.955V199.781Z" stroke="#DDDDDD" stroke-width="1.5"/>
<path d="M619.019 199.781H590.513V228.296H619.019V199.781Z" stroke="#DDDDDD" stroke-width="1.5"/>
<path d="M647.526 199.781H619.019V228.296H647.526V199.781Z" stroke="#DDDDDD" stroke-width="1.5"/>
<path d="M676.032 199.781H647.526V228.296H676.032V199.781Z" stroke="#DDDDDD" stroke-width="1.5"/>
<path d="M704.539 199.781H676.032V228.296H704.539V199.781Z" stroke="#DDDDDD" stroke-width="1.5"/>
<path d="M733.045 199.781H704.539V228.296H733.045V199.781Z" stroke="#DDDDDD" stroke-width="1.5"/>
<path d="M761.552 199.781H733.045V228.296H761.552V199.781Z" stroke="#DDDDDD" stroke-width="1.5"/>
<path d="M790.058 199.781H761.552V228.296H790.058V199.781Z" stroke="#DDDDDD" stroke-width="1.5"/>
<path d="M818.565 199.781H790.058V228.296H818.565V199.781Z" stroke="#DDDDDD" stroke-width="1.5"/>
<path d="M989.604 199.781H961.097V228.296H989.604V199.781Z" stroke="#DDDDDD" stroke-width="1.5"/>
<path d="M1018.11 199.781H989.604V228.296H1018.11V199.781Z" stroke="#DDDDDD" stroke-width="1.5"/>
<path d="M1046.62 199.781H1018.11V228.296H1046.62V199.781Z" stroke="#DDDDDD" stroke-width="1.5"/>
<path d="M1075.12 199.781H1046.62V228.296H1075.12V199.781Z" stroke="#DDDDDD" stroke-width="1.5"/>
<path d="M20.3835 228.296H-8.12292V256.811H20.3835V228.296Z" stroke="#DDDDDD" stroke-width="1.5"/>
<path d="M48.89 228.296H20.3835V256.811H48.89V228.296Z" stroke="#DDDDDD" stroke-width="1.5"/>
<path d="M77.3965 228.296H48.89V256.811H77.3965V228.296Z" stroke="#DDDDDD" stroke-width="1.5"/>
<path d="M105.903 228.296H77.3965V256.811H105.903V228.296Z" fill="#E2E7F0" fill-opacity="0.3" stroke="#DDDDDD" stroke-width="1.5"/>
<path d="M134.409 228.296H105.903V256.811H134.409V228.296Z" stroke="#DDDDDD" stroke-width="1.5"/>
<path d="M162.916 228.296H134.409V256.811H162.916V228.296Z" stroke="#DDDDDD" stroke-width="1.5"/>
<path d="M191.422 228.296H162.916V256.811H191.422V228.296Z" stroke="#DDDDDD" stroke-width="1.5"/>
<path d="M219.929 228.296H191.422V256.811H219.929V228.296Z" stroke="#DDDDDD" stroke-width="1.5"/>
<path d="M305.448 228.296H276.942V256.811H305.448V228.296Z" stroke="#DDDDDD" stroke-width="1.5"/>
<path d="M818.565 228.296H790.058V256.811H818.565V228.296Z" stroke="#DDDDDD" stroke-width="1.5"/>
<path d="M847.071 228.296H818.565V256.811H847.071V228.296Z" stroke="#DDDDDD" stroke-width="1.5"/>
<path d="M989.604 228.296H961.097V256.811H989.604V228.296Z" stroke="#DDDDDD" stroke-width="1.5"/>
<path d="M1018.11 228.296H989.604V256.811H1018.11V228.296Z" stroke="#DDDDDD" stroke-width="1.5"/>
<path d="M1046.62 228.296H1018.11V256.811H1046.62V228.296Z" fill="#E2E7F0" fill-opacity="0.3" stroke="#DDDDDD" stroke-width="1.5"/>
<path d="M1075.12 228.296H1046.62V256.811H1075.12V228.296Z" stroke="#DDDDDD" stroke-width="1.5"/>
<path d="M20.3835 256.811H-8.12292V285.327H20.3835V256.811Z" stroke="#DDDDDD" stroke-width="1.5"/>
<path d="M105.903 256.811H77.3965V285.327H105.903V256.811Z" stroke="#DDDDDD" stroke-width="1.5"/>
<path d="M191.422 256.811H162.916V285.327H191.422V256.811Z" stroke="#DDDDDD" stroke-width="1.5"/>
<path d="M219.929 256.811H191.422V285.327H219.929V256.811Z" fill="#E2E7F0" fill-opacity="0.3" stroke="#DDDDDD" stroke-width="1.5"/>
<path d="M333.955 256.811H305.448V285.327H333.955V256.811Z" stroke="#DDDDDD" stroke-width="1.5"/>
<path d="M362.461 256.811H333.955V285.327H362.461V256.811Z" stroke="#DDDDDD" stroke-width="1.5"/>
<path d="M390.968 256.811H362.461V285.327H390.968V256.811Z" stroke="#DDDDDD" stroke-width="1.5"/>
<path d="M419.474 256.811H390.968V285.327H419.474V256.811Z" fill="#E2E7F0" fill-opacity="0.3" stroke="#DDDDDD" stroke-width="1.5"/>
<path d="M447.981 256.811H419.474V285.327H447.981V256.811Z" stroke="#DDDDDD" stroke-width="1.5"/>
<path d="M476.487 256.811H447.981V285.327H476.487V256.811Z" stroke="#DDDDDD" stroke-width="1.5"/>
<path d="M790.058 256.811H761.552V285.327H790.058V256.811Z" stroke="#DDDDDD" stroke-width="1.5"/>
<path opacity="0.99" d="M818.565 256.811H790.058V285.327H818.565V256.811Z" stroke="#DDDDDD" stroke-width="1.5"/>
<path d="M904.084 256.811H875.578V285.327H904.084V256.811Z" stroke="#DDDDDD" stroke-width="1.5"/>
<path d="M932.591 256.811H904.084V285.327H932.591V256.811Z" stroke="#DDDDDD" stroke-width="1.5"/>
<path d="M961.097 256.811H932.591V285.327H961.097V256.811Z" stroke="#DDDDDD" stroke-width="1.5"/>
<path d="M1075.12 256.811H1046.62V285.327H1075.12V256.811Z" stroke="#DDDDDD" stroke-width="1.5"/>
<path d="M20.3835 285.327H-8.12292V313.842H20.3835V285.327Z" stroke="#DDDDDD" stroke-width="1.5"/>
<path d="M48.89 285.327H20.3835V313.842H48.89V285.327Z" stroke="#DDDDDD" stroke-width="1.5"/>
<path d="M77.3965 285.327H48.89V313.842H77.3965V285.327Z" stroke="#DDDDDD" stroke-width="1.5"/>
<path d="M105.903 285.327H77.3965V313.842H105.903V285.327Z" stroke="#DDDDDD" stroke-width="1.5"/>
<path d="M134.409 285.327H105.903V313.842H134.409V285.327Z" stroke="#DDDDDD" stroke-width="1.5"/>
<path d="M419.474 285.327H390.968V313.842H419.474V285.327Z" stroke="#DDDDDD" stroke-width="1.5"/>
<path d="M447.981 285.327H419.474V313.842H447.981V285.327Z" stroke="#DDDDDD" stroke-width="1.5"/>
<path d="M476.487 285.327H447.981V313.842H476.487V285.327Z" stroke="#DDDDDD" stroke-width="1.5"/>
<path d="M676.032 285.327H647.526V313.842H676.032V285.327Z" stroke="#DDDDDD" stroke-width="1.5"/>
<path d="M704.539 285.327H676.032V313.842H704.539V285.327Z" stroke="#DDDDDD" stroke-width="1.5"/>
<path d="M733.045 285.327H704.539V313.842H733.045V285.327Z" stroke="#DDDDDD" stroke-width="1.5"/>
<path d="M761.552 285.327H733.045V313.842H761.552V285.327Z" stroke="#DDDDDD" stroke-width="1.5"/>
<path d="M790.058 285.327H761.552V313.842H790.058V285.327Z" fill="#E2E7F0" fill-opacity="0.3" stroke="#DDDDDD" stroke-width="1.5"/>
<path d="M818.565 285.327H790.058V313.842H818.565V285.327Z" stroke="#DDDDDD" stroke-width="1.5"/>
<path d="M847.071 285.327H818.565V313.842H847.071V285.327Z" stroke="#DDDDDD" stroke-width="1.5"/>
<path d="M904.084 285.327H875.578V313.842H904.084V285.327Z" stroke="#DDDDDD" stroke-width="1.5"/>
<path d="M932.591 285.327H904.084V313.842H932.591V285.327Z" stroke="#DDDDDD" stroke-width="1.5"/>
<path d="M961.097 285.327H932.591V313.842H961.097V285.327Z" stroke="#DDDDDD" stroke-width="1.5"/>
<path d="M989.604 285.327H961.097V313.842H989.604V285.327Z" fill="#E2E7F0" fill-opacity="0.3" stroke="#DDDDDD" stroke-width="1.5"/>
<path d="M1018.11 285.327H989.604V313.842H1018.11V285.327Z" stroke="#DDDDDD" stroke-width="1.5"/>
<path d="M1046.62 285.327H1018.11V313.842H1046.62V285.327Z" stroke="#DDDDDD" stroke-width="1.5"/>
<path d="M1075.12 285.327H1046.62V313.842H1075.12V285.327Z" stroke="#DDDDDD" stroke-width="1.5"/>
<path d="M20.3835 313.842H-8.12292V342.357H20.3835V313.842Z" stroke="#DDDDDD" stroke-width="1.5"/>
<path d="M48.89 313.842H20.3835V342.357H48.89V313.842Z" stroke="#DDDDDD" stroke-width="1.5"/>
<path d="M77.3965 313.842H48.89V342.357H77.3965V313.842Z" fill="#E2E7F0" fill-opacity="0.3" stroke="#DDDDDD" stroke-width="1.5"/>
<path d="M105.903 313.842H77.3965V342.357H105.903V313.842Z" stroke="#DDDDDD" stroke-width="1.5"/>
<path d="M134.409 313.842H105.903V342.357H134.409V313.842Z" stroke="#DDDDDD" stroke-width="1.5"/>
<path d="M162.916 313.842H134.409V342.357H162.916V313.842Z" stroke="#DDDDDD" stroke-width="1.5"/>
<path d="M191.422 313.842H162.916V342.357H191.422V313.842Z" stroke="#DDDDDD" stroke-width="1.5"/>
<path d="M219.929 313.842H191.422V342.357H219.929V313.842Z" stroke="#DDDDDD" stroke-width="1.5"/>
<path d="M248.435 313.842H219.929V342.357H248.435V313.842Z" stroke="#DDDDDD" stroke-width="1.5"/>
<path d="M276.942 313.842H248.435V342.357H276.942V313.842Z" stroke="#DDDDDD" stroke-width="1.5"/>
<path d="M305.448 313.842H276.942V342.357H305.448V313.842Z" stroke="#DDDDDD" stroke-width="1.5"/>
<path d="M333.955 313.842H305.448V342.357H333.955V313.842Z" stroke="#DDDDDD" stroke-width="1.5"/>
<path d="M362.461 313.842H333.955V342.357H362.461V313.842Z" fill="#E2E7F0" fill-opacity="0.3" stroke="#DDDDDD" stroke-width="1.5"/>
<path d="M619.019 313.842H590.513V342.357H619.019V313.842Z" stroke="#DDDDDD" stroke-width="1.5"/>
<path d="M647.526 313.842H619.019V342.357H647.526V313.842Z" stroke="#DDDDDD" stroke-width="1.5"/>
<path d="M676.032 313.842H647.526V342.357H676.032V313.842Z" stroke="#DDDDDD" stroke-width="1.5"/>
<path d="M704.539 313.842H676.032V342.357H704.539V313.842Z" stroke="#DDDDDD" stroke-width="1.5"/>
<path d="M733.045 313.842H704.539V342.357H733.045V313.842Z" fill="#E2E7F0" fill-opacity="0.3" stroke="#DDDDDD" stroke-width="1.5"/>
<path d="M761.552 313.842H733.045V342.357H761.552V313.842Z" stroke="#DDDDDD" stroke-width="1.5"/>
<path d="M790.058 313.842H761.552V342.357H790.058V313.842Z" stroke="#DDDDDD" stroke-width="1.5"/>
<path d="M818.565 313.842H790.058V342.357H818.565V313.842Z" stroke="#DDDDDD" stroke-width="1.5"/>
<path d="M847.071 313.842H818.565V342.357H847.071V313.842Z" stroke="#DDDDDD" stroke-width="1.5"/>
<path d="M875.578 313.842H847.071V342.357H875.578V313.842Z" stroke="#DDDDDD" stroke-width="1.5"/>
<path d="M904.084 313.842H875.578V342.357H904.084V313.842Z" stroke="#DDDDDD" stroke-width="1.5"/>
<path d="M932.591 313.842H904.084V342.357H932.591V313.842Z" stroke="#DDDDDD" stroke-width="1.5"/>
<path d="M961.097 313.842H932.591V342.357H961.097V313.842Z" stroke="#DDDDDD" stroke-width="1.5"/>
<path d="M989.604 313.842H961.097V342.357H989.604V313.842Z" stroke="#DDDDDD" stroke-width="1.5"/>
<path d="M1018.11 313.842H989.604V342.357H1018.11V313.842Z" stroke="#DDDDDD" stroke-width="1.5"/>
<path d="M1046.62 313.842H1018.11V342.357H1046.62V313.842Z" stroke="#DDDDDD" stroke-width="1.5"/>
<path d="M1075.12 313.842H1046.62V342.357H1075.12V313.842Z" stroke="#DDDDDD" stroke-width="1.5"/>
<path d="M20.3835 342.357H-8.12292V370.873H20.3835V342.357Z" stroke="#DDDDDD" stroke-width="1.5"/>
<path d="M48.89 342.357H20.3835V370.873H48.89V342.357Z" stroke="#DDDDDD" stroke-width="1.5"/>
<path d="M77.3965 342.357H48.89V370.873H77.3965V342.357Z" stroke="#DDDDDD" stroke-width="1.5"/>
<path d="M105.903 342.357H77.3965V370.873H105.903V342.357Z" stroke="#DDDDDD" stroke-width="1.5"/>
<path d="M134.409 342.357H105.903V370.873H134.409V342.357Z" stroke="#DDDDDD" stroke-width="1.5"/>
<path d="M162.916 342.357H134.409V370.873H162.916V342.357Z" fill="#E2E7F0" fill-opacity="0.3" stroke="#DDDDDD" stroke-width="1.5"/>
<path d="M305.448 342.357H276.942V370.873H305.448V342.357Z" stroke="#DDDDDD" stroke-width="1.5"/>
<path d="M333.955 342.357H305.448V370.873H333.955V342.357Z" stroke="#DDDDDD" stroke-width="1.5"/>
<path d="M619.019 342.357H590.513V370.873H619.019V342.357Z" stroke="#DDDDDD" stroke-width="1.5"/>
<path d="M647.526 342.357H619.019V370.873H647.526V342.357Z" stroke="#DDDDDD" stroke-width="1.5"/>
<path d="M676.032 342.357H647.526V370.873H676.032V342.357Z" stroke="#DDDDDD" stroke-width="1.5"/>
<path d="M704.539 342.357H676.032V370.873H704.539V342.357Z" stroke="#DDDDDD" stroke-width="1.5"/>
<path d="M733.045 342.357H704.539V370.873H733.045V342.357Z" stroke="#DDDDDD" stroke-width="1.5"/>
<path d="M761.552 342.357H733.045V370.873H761.552V342.357Z" stroke="#DDDDDD" stroke-width="1.5"/>
<path d="M790.058 342.357H761.552V370.873H790.058V342.357Z" stroke="#DDDDDD" stroke-width="1.5"/>
<path d="M818.565 342.357H790.058V370.873H818.565V342.357Z" stroke="#DDDDDD" stroke-width="1.5"/>
<path d="M989.604 342.357H961.097V370.873H989.604V342.357Z" stroke="#DDDDDD" stroke-width="1.5"/>
<path d="M1018.11 342.357H989.604V370.873H1018.11V342.357Z" stroke="#DDDDDD" stroke-width="1.5"/>
<path d="M1046.62 342.357H1018.11V370.873H1046.62V342.357Z" stroke="#DDDDDD" stroke-width="1.5"/>
<path d="M1075.12 342.357H1046.62V370.873H1075.12V342.357Z" stroke="#DDDDDD" stroke-width="1.5"/>
<path d="M20.3835 370.873H-8.12292V399.388H20.3835V370.873Z" stroke="#DDDDDD" stroke-width="1.5"/>
<path d="M48.89 370.873H20.3835V399.388H48.89V370.873Z" stroke="#DDDDDD" stroke-width="1.5"/>
<path d="M77.3965 370.873H48.89V399.388H77.3965V370.873Z" stroke="#DDDDDD" stroke-width="1.5"/>
<path d="M105.903 370.873H77.3965V399.388H105.903V370.873Z" stroke="#DDDDDD" stroke-width="1.5"/>
<path d="M134.409 370.873H105.903V399.388H134.409V370.873Z" stroke="#DDDDDD" stroke-width="1.5"/>
<path d="M162.916 370.873H134.409V399.388H162.916V370.873Z" stroke="#DDDDDD" stroke-width="1.5"/>
<path d="M191.422 370.873H162.916V399.388H191.422V370.873Z" stroke="#DDDDDD" stroke-width="1.5"/>
<path d="M219.929 370.873H191.422V399.388H219.929V370.873Z" stroke="#DDDDDD" stroke-width="1.5"/>
<path d="M276.942 370.873H248.435V399.388H276.942V370.873Z" stroke="#DDDDDD" stroke-width="1.5"/>
<path d="M305.448 370.873H276.942V399.388H305.448V370.873Z" stroke="#DDDDDD" stroke-width="1.5"/>
<path d="M333.955 370.873H305.448V399.388H333.955V370.873Z" stroke="#DDDDDD" stroke-width="1.5"/>
<path d="M362.461 370.873H333.955V399.388H362.461V370.873Z" stroke="#DDDDDD" stroke-width="1.5"/>
<path d="M562.006 370.873H533.5V399.388H562.006V370.873Z" stroke="#DDDDDD" stroke-width="1.5"/>
<path d="M590.513 370.873H562.006V399.388H590.513V370.873Z" stroke="#DDDDDD" stroke-width="1.5"/>
<path d="M619.019 370.873H590.513V399.388H619.019V370.873Z" stroke="#DDDDDD" stroke-width="1.5"/>
<path d="M647.526 370.873H619.019V399.388H647.526V370.873Z" stroke="#DDDDDD" stroke-width="1.5"/>
<path d="M676.032 370.873H647.526V399.388H676.032V370.873Z" stroke="#DDDDDD" stroke-width="1.5"/>
<path d="M704.539 370.873H676.032V399.388H704.539V370.873Z" stroke="#DDDDDD" stroke-width="1.5"/>
<path d="M733.045 370.873H704.539V399.388H733.045V370.873Z" stroke="#DDDDDD" stroke-width="1.5"/>
<path d="M790.058 370.873H761.552V399.388H790.058V370.873Z" stroke="#DDDDDD" stroke-width="1.5"/>
<path d="M847.071 370.873H818.565V399.388H847.071V370.873Z" fill="#E2E7F0" fill-opacity="0.3" stroke="#DDDDDD" stroke-width="1.5"/>
<path d="M875.578 370.873H847.071V399.388H875.578V370.873Z" stroke="#DDDDDD" stroke-width="1.5"/>
<path d="M1046.62 370.873H1018.11V399.388H1046.62V370.873Z" stroke="#DDDDDD" stroke-width="1.5"/>
<path d="M1075.12 370.873H1046.62V399.388H1075.12V370.873Z" fill="#E2E7F0" fill-opacity="0.3" stroke="#DDDDDD" stroke-width="1.5"/>
<path d="M20.3835 427.903V399.388H-8.12292V427.903" stroke="#DDDDDD" stroke-width="1.5"/>
<path d="M48.89 427.903V399.388H20.3835V427.903" stroke="#DDDDDD" stroke-width="1.5"/>
<path d="M77.3965 427.903V399.388H48.89V427.903" stroke="#DDDDDD" stroke-width="1.5"/>
<path d="M105.903 427.903V399.388H77.3965V427.903" stroke="#DDDDDD" stroke-width="1.5"/>
<path d="M134.409 427.903V399.388H105.903V427.903" stroke="#DDDDDD" stroke-width="1.5"/>
<path d="M162.916 427.903V399.388H134.409V427.903" stroke="#DDDDDD" stroke-width="1.5"/>
<path d="M333.955 427.903V399.388H305.448V427.903" stroke="#DDDDDD" stroke-width="1.5"/>
<path d="M362.461 427.903V399.388H333.955V427.903" stroke="#DDDDDD" stroke-width="1.5"/>
<path d="M390.968 427.903V399.388H362.461V427.903" stroke="#DDDDDD" stroke-width="1.5"/>
<path d="M419.474 427.903V399.388H390.968V427.903" stroke="#DDDDDD" stroke-width="1.5"/>
<path d="M447.981 427.903V399.388H419.474V427.903" stroke="#DDDDDD" stroke-width="1.5"/>
<path d="M476.487 427.903V399.388H447.981V427.903" stroke="#DDDDDD" stroke-width="1.5"/>
<path d="M904.084 427.903V399.388H875.578V427.903" stroke="#DDDDDD" stroke-width="1.5"/>
<path d="M932.591 427.903V399.388H904.084V427.903" stroke="#DDDDDD" stroke-width="1.5"/>
<path d="M961.097 427.903V399.388H932.591V427.903" stroke="#DDDDDD" stroke-width="1.5"/>
<path d="M989.604 427.903V399.388H961.097V427.903" stroke="#DDDDDD" stroke-width="1.5"/>
<path d="M1018.11 427.903V399.388H989.604V427.903" stroke="#DDDDDD" stroke-width="1.5"/>
<path d="M1046.62 427.903V399.388H1018.11V427.903" stroke="#DDDDDD" stroke-width="1.5"/>
<path d="M1075.12 427.903V399.388H1046.62V427.903" stroke="#DDDDDD" stroke-width="1.5"/>
<path d="M20.4713 116.428L20.4713 169.072" stroke="url(#paint0_linear_1_2)" stroke-width="1.5" stroke-linecap="round" stroke-linejoin="round"/>
<g filter="url(#filter0_d_1_2)">
<path d="M932.591 177.407V124.763" stroke="url(#paint1_linear_1_2)" stroke-width="1.5" stroke-linecap="round" stroke-linejoin="round"/>
<path d="M162.916 200V147.356" stroke="url(#paint2_linear_1_2)" stroke-width="1.5" stroke-linecap="round" stroke-linejoin="round"/>
<path d="M219.994 58.3961L219.994 111.04" stroke="url(#paint3_linear_1_2)" stroke-width="1.5" stroke-linecap="round" stroke-linejoin="round"/>
<path d="M790.091 58.3961L790.091 111.04" stroke="url(#paint4_linear_1_2)" stroke-width="1.5" stroke-linecap="round" stroke-linejoin="round"/>
</g>
<rect x="263.989" width="539.022" height="399.388" fill="url(#paint5_radial_1_2)"/>
</g>
<path d="M88.5123 347.348L79.947 332.539C79.5543 331.859 78.5864 331.302 77.7963 331.302H72.4488C71.2059 331.302 70.6963 330.427 71.3163 329.358L74.2488 324.301C74.4815 323.9 74.481 323.406 74.2475 323.005C74.0139 322.604 73.5828 322.357 73.1163 322.357H65.6565C64.8663 322.357 63.8963 322.913 63.5008 323.592L49.0052 348.488C48.6098 349.167 48.6095 350.279 49.0047 350.958L52.7345 357.37C53.3559 358.439 54.3751 358.44 54.9992 357.373L57.9137 352.391C58.5378 351.324 59.557 351.326 60.1784 352.394L62.8206 356.936C63.2157 357.616 64.1854 358.171 64.9756 358.171H82.2135C83.0038 358.171 83.9735 357.616 84.3686 356.936L88.508 349.82C88.9031 349.141 88.905 348.028 88.5123 347.348ZM76.9449 346.635C77.5624 347.706 77.0508 348.582 75.8079 348.582H62.3996C61.1567 348.582 60.6482 347.707 61.2696 346.639L67.9791 335.104C68.6005 334.036 69.6174 334.036 70.2388 335.104L76.9449 346.635Z" fill="#20294F"/>
<path d="M374.54 181.137C372.035 181.137 369.819 180.728 367.893 179.909C365.984 179.074 364.484 177.813 363.393 176.125C362.302 174.438 361.756 172.29 361.756 169.682C361.756 167.534 362.123 165.702 362.856 164.185C363.589 162.651 364.611 161.398 365.924 160.426C367.236 159.455 368.762 158.713 370.501 158.202C372.256 157.691 374.148 157.358 376.177 157.205C378.376 157.034 380.14 156.83 381.469 156.591C382.816 156.336 383.788 155.986 384.384 155.543C384.981 155.083 385.279 154.478 385.279 153.728V153.625C385.279 152.603 384.887 151.818 384.103 151.273C383.319 150.728 382.313 150.455 381.086 150.455C379.739 150.455 378.64 150.753 377.788 151.35C376.952 151.929 376.45 152.824 376.279 154.034H363.29C363.461 151.648 364.219 149.449 365.566 147.438C366.93 145.409 368.915 143.79 371.523 142.58C374.131 141.353 377.387 140.739 381.29 140.739C384.103 140.739 386.626 141.071 388.859 141.736C391.092 142.384 392.992 143.296 394.56 144.472C396.128 145.631 397.322 146.995 398.14 148.563C398.975 150.114 399.393 151.801 399.393 153.625V180.523H386.2V175H385.893C385.109 176.466 384.154 177.651 383.029 178.554C381.921 179.458 380.651 180.114 379.219 180.523C377.805 180.932 376.245 181.137 374.54 181.137ZM379.143 172.239C380.217 172.239 381.222 172.017 382.16 171.574C383.114 171.131 383.89 170.492 384.486 169.657C385.083 168.821 385.381 167.807 385.381 166.614V163.341C385.006 163.495 384.606 163.639 384.18 163.776C383.771 163.912 383.327 164.04 382.85 164.159C382.39 164.279 381.896 164.389 381.367 164.492C380.856 164.594 380.319 164.688 379.756 164.773C378.665 164.943 377.771 165.225 377.072 165.617C376.39 165.992 375.878 166.461 375.538 167.023C375.214 167.568 375.052 168.182 375.052 168.864C375.052 169.955 375.435 170.79 376.202 171.37C376.969 171.949 377.95 172.239 379.143 172.239ZM418.307 141.25L424.034 153.421L430.068 141.25H444.079L433.545 160.887L444.591 180.523H430.682L424.034 168.046L417.591 180.523H403.477L414.625 160.887L404.193 141.25H418.307ZM449.097 180.523V141.25H463.211V180.523H449.097ZM456.154 137.159C454.245 137.159 452.609 136.529 451.245 135.267C449.881 134.006 449.2 132.489 449.2 130.716C449.2 128.943 449.881 127.426 451.245 126.165C452.609 124.904 454.245 124.273 456.154 124.273C458.08 124.273 459.717 124.904 461.063 126.165C462.427 127.426 463.109 128.943 463.109 130.716C463.109 132.489 462.427 134.006 461.063 135.267C459.717 136.529 458.08 137.159 456.154 137.159ZM489.322 181.239C485.061 181.239 481.413 180.395 478.379 178.708C475.345 177.003 473.018 174.634 471.399 171.6C469.78 168.549 468.97 165.012 468.97 160.989C468.97 156.966 469.78 153.438 471.399 150.404C473.018 147.353 475.345 144.983 478.379 143.296C481.413 141.591 485.061 140.739 489.322 140.739C493.584 140.739 497.231 141.591 500.266 143.296C503.3 144.983 505.626 147.353 507.246 150.404C508.865 153.438 509.675 156.966 509.675 160.989C509.675 165.012 508.865 168.549 507.246 171.6C505.626 174.634 503.3 177.003 500.266 178.708C497.231 180.395 493.584 181.239 489.322 181.239ZM489.425 170.807C490.618 170.807 491.649 170.407 492.518 169.605C493.388 168.804 494.061 167.662 494.538 166.179C495.016 164.696 495.254 162.932 495.254 160.887C495.254 158.824 495.016 157.06 494.538 155.594C494.061 154.111 493.388 152.969 492.518 152.168C491.649 151.367 490.618 150.966 489.425 150.966C488.163 150.966 487.081 151.367 486.178 152.168C485.274 152.969 484.584 154.111 484.106 155.594C483.629 157.06 483.391 158.824 483.391 160.887C483.391 162.932 483.629 164.696 484.106 166.179C484.584 167.662 485.274 168.804 486.178 169.605C487.081 170.407 488.163 170.807 489.425 170.807ZM515.402 180.523V141.25H528.8V148.716H529.209C530.027 146.262 531.425 144.318 533.402 142.887C535.379 141.455 537.731 140.739 540.459 140.739C543.22 140.739 545.598 141.472 547.592 142.938C549.587 144.387 550.788 146.313 551.197 148.716H551.606C552.271 146.313 553.686 144.387 555.851 142.938C558.016 141.472 560.555 140.739 563.47 140.739C567.237 140.739 570.288 141.949 572.624 144.37C574.976 146.79 576.152 150.012 576.152 154.034V180.523H562.038V157.614C562.038 155.892 561.604 154.546 560.734 153.574C559.865 152.586 558.697 152.091 557.231 152.091C555.783 152.091 554.632 152.586 553.78 153.574C552.945 154.546 552.527 155.892 552.527 157.614V180.523H539.027V157.614C539.027 155.892 538.592 154.546 537.723 153.574C536.854 152.586 535.686 152.091 534.22 152.091C533.249 152.091 532.413 152.313 531.714 152.756C531.016 153.199 530.47 153.838 530.078 154.674C529.703 155.492 529.516 156.472 529.516 157.614V180.523H515.402ZM608.886 154.341V164.978H584.34V154.341H608.886ZM636.205 196.068C632.268 196.068 628.893 195.506 626.08 194.381C623.285 193.273 621.111 191.739 619.56 189.779C618.026 187.836 617.165 185.603 616.978 183.08H630.58C630.717 183.915 631.057 184.588 631.603 185.1C632.148 185.611 632.847 185.978 633.7 186.199C634.569 186.438 635.54 186.557 636.614 186.557C638.438 186.557 639.947 186.114 641.14 185.228C642.35 184.341 642.955 182.739 642.955 180.421V173.773H642.546C642.035 175.103 641.251 176.236 640.194 177.174C639.137 178.094 637.867 178.801 636.384 179.296C634.901 179.773 633.273 180.012 631.501 180.012C628.705 180.012 626.131 179.364 623.779 178.068C621.444 176.773 619.569 174.719 618.154 171.907C616.756 169.094 616.057 165.421 616.057 160.887C616.057 156.148 616.79 152.296 618.256 149.33C619.739 146.364 621.648 144.191 623.984 142.81C626.336 141.429 628.807 140.739 631.398 140.739C633.342 140.739 635.046 141.08 636.512 141.762C637.978 142.426 639.205 143.321 640.194 144.446C641.182 145.554 641.932 146.773 642.444 148.103H642.751V141.25H656.864V180.421C656.864 183.745 656.003 186.566 654.282 188.884C652.577 191.219 650.174 193 647.072 194.228C643.969 195.455 640.347 196.068 636.205 196.068ZM636.717 169.989C638.012 169.989 639.12 169.631 640.04 168.915C640.978 168.182 641.694 167.142 642.188 165.796C642.7 164.432 642.955 162.796 642.955 160.887C642.955 158.943 642.7 157.282 642.188 155.901C641.694 154.503 640.978 153.438 640.04 152.705C639.12 151.955 638.012 151.58 636.717 151.58C635.421 151.58 634.313 151.955 633.393 152.705C632.489 153.438 631.79 154.503 631.296 155.901C630.819 157.282 630.58 158.943 630.58 160.887C630.58 162.83 630.819 164.483 631.296 165.847C631.79 167.193 632.489 168.225 633.393 168.941C634.313 169.639 635.421 169.989 636.717 169.989ZM682.963 181.239C678.702 181.239 675.054 180.395 672.02 178.708C668.986 177.003 666.659 174.634 665.04 171.6C663.42 168.549 662.611 165.012 662.611 160.989C662.611 156.966 663.42 153.438 665.04 150.404C666.659 147.353 668.986 144.983 672.02 143.296C675.054 141.591 678.702 140.739 682.963 140.739C687.224 140.739 690.872 141.591 693.906 143.296C696.94 144.983 699.267 147.353 700.886 150.404C702.506 153.438 703.315 156.966 703.315 160.989C703.315 165.012 702.506 168.549 700.886 171.6C699.267 174.634 696.94 177.003 693.906 178.708C690.872 180.395 687.224 181.239 682.963 181.239ZM683.065 170.807C684.258 170.807 685.29 170.407 686.159 169.605C687.028 168.804 687.702 167.662 688.179 166.179C688.656 164.696 688.895 162.932 688.895 160.887C688.895 158.824 688.656 157.06 688.179 155.594C687.702 154.111 687.028 152.969 686.159 152.168C685.29 151.367 684.258 150.966 683.065 150.966C681.804 150.966 680.722 151.367 679.818 152.168C678.915 152.969 678.224 154.111 677.747 155.594C677.27 157.06 677.031 158.824 677.031 160.887C677.031 162.932 677.27 164.696 677.747 166.179C678.224 167.662 678.915 168.804 679.818 169.605C680.722 170.407 681.804 170.807 683.065 170.807Z" fill="url(#paint6_radial_1_2)"/>
<path d="M293.508 222.196V219.545H307.434V222.196H302.04V237H298.903V222.196H293.508ZM313.068 229.33V237H309.983V219.545H313V226.134H313.153C313.46 225.395 313.934 224.812 314.576 224.386C315.224 223.955 316.048 223.739 317.048 223.739C317.957 223.739 318.75 223.929 319.426 224.31C320.102 224.69 320.625 225.247 320.994 225.98C321.369 226.713 321.557 227.608 321.557 228.665V237H318.471V229.142C318.471 228.261 318.244 227.577 317.79 227.088C317.341 226.594 316.71 226.347 315.898 226.347C315.352 226.347 314.863 226.466 314.432 226.705C314.005 226.937 313.67 227.276 313.426 227.719C313.187 228.162 313.068 228.699 313.068 229.33ZM330.497 237.256C329.184 237.256 328.051 236.983 327.096 236.438C326.148 235.886 325.417 235.108 324.906 234.102C324.395 233.091 324.139 231.901 324.139 230.531C324.139 229.185 324.395 228.003 324.906 226.986C325.423 225.963 326.145 225.168 327.071 224.599C327.997 224.026 329.085 223.739 330.335 223.739C331.142 223.739 331.903 223.869 332.619 224.131C333.341 224.386 333.977 224.784 334.528 225.324C335.085 225.864 335.523 226.551 335.841 227.386C336.159 228.216 336.318 229.205 336.318 230.352V231.298H325.588V229.219H333.361C333.355 228.628 333.227 228.102 332.977 227.642C332.727 227.176 332.378 226.81 331.929 226.543C331.486 226.276 330.969 226.142 330.378 226.142C329.747 226.142 329.193 226.295 328.716 226.602C328.238 226.903 327.866 227.301 327.599 227.795C327.338 228.284 327.204 228.821 327.199 229.406V231.222C327.199 231.983 327.338 232.636 327.616 233.182C327.895 233.722 328.284 234.136 328.784 234.426C329.284 234.71 329.869 234.852 330.54 234.852C330.988 234.852 331.395 234.79 331.758 234.665C332.122 234.534 332.437 234.344 332.704 234.094C332.971 233.844 333.173 233.534 333.309 233.165L336.19 233.489C336.008 234.25 335.662 234.915 335.15 235.483C334.645 236.045 333.997 236.483 333.207 236.795C332.417 237.102 331.514 237.256 330.497 237.256ZM350.591 237.256C349.313 237.256 348.205 236.974 347.268 236.412C346.33 235.849 345.603 235.062 345.086 234.051C344.574 233.04 344.319 231.858 344.319 230.506C344.319 229.153 344.574 227.969 345.086 226.952C345.603 225.935 346.33 225.145 347.268 224.582C348.205 224.02 349.313 223.739 350.591 223.739C351.87 223.739 352.978 224.02 353.915 224.582C354.853 225.145 355.577 225.935 356.089 226.952C356.606 227.969 356.864 229.153 356.864 230.506C356.864 231.858 356.606 233.04 356.089 234.051C355.577 235.062 354.853 235.849 353.915 236.412C352.978 236.974 351.87 237.256 350.591 237.256ZM350.608 234.784C351.302 234.784 351.881 234.594 352.347 234.213C352.813 233.827 353.16 233.31 353.387 232.662C353.62 232.014 353.736 231.293 353.736 230.497C353.736 229.696 353.62 228.972 353.387 228.324C353.16 227.67 352.813 227.151 352.347 226.764C351.881 226.378 351.302 226.185 350.608 226.185C349.898 226.185 349.307 226.378 348.836 226.764C348.37 227.151 348.02 227.67 347.787 228.324C347.56 228.972 347.447 229.696 347.447 230.497C347.447 231.293 347.56 232.014 347.787 232.662C348.02 233.31 348.37 233.827 348.836 234.213C349.307 234.594 349.898 234.784 350.608 234.784ZM366.113 223.909V226.295H358.375V223.909H366.113ZM360.309 237V222.673C360.309 221.793 360.491 221.06 360.855 220.474C361.224 219.889 361.719 219.452 362.338 219.162C362.957 218.872 363.645 218.727 364.4 218.727C364.934 218.727 365.409 218.77 365.824 218.855C366.238 218.94 366.545 219.017 366.744 219.085L366.13 221.472C366 221.432 365.835 221.392 365.636 221.352C365.437 221.307 365.216 221.284 364.971 221.284C364.398 221.284 363.991 221.423 363.753 221.702C363.52 221.974 363.403 222.366 363.403 222.878V237H360.309ZM375.16 223.909V226.295H367.422V223.909H375.16ZM369.356 237V222.673C369.356 221.793 369.538 221.06 369.902 220.474C370.271 219.889 370.765 219.452 371.385 219.162C372.004 218.872 372.692 218.727 373.447 218.727C373.981 218.727 374.456 218.77 374.871 218.855C375.285 218.94 375.592 219.017 375.791 219.085L375.177 221.472C375.047 221.432 374.882 221.392 374.683 221.352C374.484 221.307 374.263 221.284 374.018 221.284C373.444 221.284 373.038 221.423 372.8 221.702C372.567 221.974 372.45 222.366 372.45 222.878V237H369.356ZM377.576 237V223.909H380.662V237H377.576ZM379.128 222.051C378.639 222.051 378.219 221.889 377.866 221.565C377.514 221.236 377.338 220.841 377.338 220.381C377.338 219.915 377.514 219.52 377.866 219.196C378.219 218.866 378.639 218.702 379.128 218.702C379.622 218.702 380.042 218.866 380.389 219.196C380.741 219.52 380.917 219.915 380.917 220.381C380.917 220.841 380.741 221.236 380.389 221.565C380.042 221.889 379.622 222.051 379.128 222.051ZM389.545 237.256C388.238 237.256 387.116 236.969 386.178 236.395C385.246 235.821 384.527 235.028 384.022 234.017C383.522 233 383.272 231.83 383.272 230.506C383.272 229.176 383.527 228.003 384.039 226.986C384.55 225.963 385.272 225.168 386.204 224.599C387.141 224.026 388.249 223.739 389.527 223.739C390.59 223.739 391.53 223.935 392.349 224.327C393.172 224.713 393.829 225.261 394.317 225.972C394.806 226.676 395.084 227.5 395.152 228.443H392.204C392.084 227.812 391.8 227.287 391.351 226.866C390.908 226.44 390.314 226.227 389.57 226.227C388.939 226.227 388.385 226.398 387.908 226.739C387.431 227.074 387.059 227.557 386.792 228.188C386.53 228.818 386.4 229.574 386.4 230.455C386.4 231.347 386.53 232.114 386.792 232.756C387.053 233.392 387.42 233.884 387.891 234.23C388.368 234.571 388.928 234.741 389.57 234.741C390.025 234.741 390.431 234.656 390.789 234.486C391.152 234.31 391.456 234.057 391.701 233.727C391.945 233.398 392.113 232.997 392.204 232.526H395.152C395.079 233.452 394.806 234.273 394.334 234.989C393.863 235.699 393.221 236.256 392.408 236.659C391.596 237.057 390.641 237.256 389.545 237.256ZM397.686 237V223.909H400.771V237H397.686ZM399.237 222.051C398.748 222.051 398.328 221.889 397.976 221.565C397.623 221.236 397.447 220.841 397.447 220.381C397.447 219.915 397.623 219.52 397.976 219.196C398.328 218.866 398.748 218.702 399.237 218.702C399.731 218.702 400.152 218.866 400.498 219.196C400.851 219.52 401.027 219.915 401.027 220.381C401.027 220.841 400.851 221.236 400.498 221.565C400.152 221.889 399.731 222.051 399.237 222.051ZM407.711 237.264C406.881 237.264 406.134 237.116 405.469 236.821C404.81 236.52 404.287 236.077 403.901 235.491C403.52 234.906 403.33 234.185 403.33 233.327C403.33 232.588 403.466 231.977 403.739 231.494C404.012 231.011 404.384 230.625 404.856 230.335C405.327 230.045 405.858 229.827 406.449 229.679C407.046 229.526 407.662 229.415 408.299 229.347C409.066 229.267 409.688 229.196 410.165 229.134C410.643 229.065 410.989 228.963 411.205 228.827C411.427 228.685 411.537 228.466 411.537 228.17V228.119C411.537 227.477 411.347 226.98 410.966 226.628C410.586 226.276 410.037 226.099 409.322 226.099C408.566 226.099 407.966 226.264 407.523 226.594C407.086 226.923 406.79 227.312 406.637 227.761L403.756 227.352C403.983 226.557 404.358 225.892 404.881 225.358C405.404 224.818 406.043 224.415 406.799 224.148C407.554 223.875 408.39 223.739 409.304 223.739C409.935 223.739 410.563 223.812 411.188 223.96C411.813 224.108 412.384 224.352 412.901 224.693C413.418 225.028 413.833 225.486 414.145 226.065C414.464 226.645 414.623 227.369 414.623 228.239V237H411.657V235.202H411.554C411.367 235.565 411.103 235.906 410.762 236.224C410.427 236.537 410.003 236.79 409.492 236.983C408.986 237.17 408.393 237.264 407.711 237.264ZM408.512 234.997C409.131 234.997 409.668 234.875 410.123 234.631C410.577 234.381 410.927 234.051 411.171 233.642C411.421 233.233 411.546 232.787 411.546 232.304V230.761C411.449 230.841 411.285 230.915 411.052 230.983C410.824 231.051 410.569 231.111 410.285 231.162C410.001 231.213 409.719 231.259 409.441 231.298C409.162 231.338 408.921 231.372 408.716 231.401C408.256 231.463 407.844 231.565 407.481 231.707C407.117 231.849 406.83 232.048 406.62 232.304C406.41 232.554 406.304 232.878 406.304 233.276C406.304 233.844 406.512 234.273 406.927 234.562C407.341 234.852 407.87 234.997 408.512 234.997ZM420.81 219.545V237H417.725V219.545H420.81ZM441.765 225.119C441.623 224.659 441.427 224.247 441.177 223.884C440.933 223.514 440.638 223.199 440.291 222.938C439.95 222.676 439.558 222.48 439.115 222.349C438.672 222.213 438.189 222.145 437.666 222.145C436.728 222.145 435.893 222.381 435.16 222.852C434.427 223.324 433.851 224.017 433.43 224.932C433.015 225.841 432.808 226.949 432.808 228.256C432.808 229.574 433.015 230.69 433.43 231.605C433.845 232.52 434.422 233.216 435.16 233.693C435.899 234.165 436.757 234.401 437.734 234.401C438.621 234.401 439.388 234.23 440.035 233.889C440.689 233.548 441.192 233.065 441.544 232.44C441.896 231.81 442.072 231.071 442.072 230.224L442.788 230.335H438.05V227.864H445.132V229.96C445.132 231.455 444.814 232.747 444.177 233.838C443.541 234.929 442.666 235.77 441.552 236.361C440.439 236.946 439.16 237.239 437.717 237.239C436.109 237.239 434.697 236.878 433.481 236.156C432.271 235.429 431.325 234.398 430.643 233.062C429.967 231.722 429.629 230.131 429.629 228.29C429.629 226.881 429.828 225.622 430.226 224.514C430.629 223.406 431.192 222.466 431.913 221.693C432.635 220.915 433.481 220.324 434.453 219.92C435.425 219.511 436.481 219.307 437.623 219.307C438.589 219.307 439.49 219.449 440.325 219.733C441.16 220.011 441.902 220.409 442.55 220.926C443.203 221.443 443.74 222.057 444.16 222.767C444.581 223.477 444.856 224.261 444.987 225.119H441.765ZM453.763 237.256C452.485 237.256 451.377 236.974 450.439 236.412C449.502 235.849 448.775 235.062 448.258 234.051C447.746 233.04 447.491 231.858 447.491 230.506C447.491 229.153 447.746 227.969 448.258 226.952C448.775 225.935 449.502 225.145 450.439 224.582C451.377 224.02 452.485 223.739 453.763 223.739C455.042 223.739 456.15 224.02 457.087 224.582C458.025 225.145 458.749 225.935 459.26 226.952C459.777 227.969 460.036 229.153 460.036 230.506C460.036 231.858 459.777 233.04 459.26 234.051C458.749 235.062 458.025 235.849 457.087 236.412C456.15 236.974 455.042 237.256 453.763 237.256ZM453.78 234.784C454.474 234.784 455.053 234.594 455.519 234.213C455.985 233.827 456.331 233.31 456.559 232.662C456.792 232.014 456.908 231.293 456.908 230.497C456.908 229.696 456.792 228.972 456.559 228.324C456.331 227.67 455.985 227.151 455.519 226.764C455.053 226.378 454.474 226.185 453.78 226.185C453.07 226.185 452.479 226.378 452.008 226.764C451.542 227.151 451.192 227.67 450.959 228.324C450.732 228.972 450.618 229.696 450.618 230.497C450.618 231.293 450.732 232.014 450.959 232.662C451.192 233.31 451.542 233.827 452.008 234.213C452.479 234.594 453.07 234.784 453.78 234.784ZM468.744 237V219.545H471.829V226.074H471.957C472.116 225.756 472.341 225.418 472.63 225.06C472.92 224.696 473.312 224.386 473.807 224.131C474.301 223.869 474.932 223.739 475.699 223.739C476.71 223.739 477.622 223.997 478.434 224.514C479.253 225.026 479.9 225.784 480.378 226.79C480.861 227.79 481.102 229.017 481.102 230.472C481.102 231.909 480.866 233.131 480.395 234.136C479.923 235.142 479.281 235.909 478.469 236.438C477.656 236.966 476.736 237.23 475.707 237.23C474.957 237.23 474.335 237.105 473.841 236.855C473.346 236.605 472.949 236.304 472.648 235.952C472.352 235.594 472.122 235.256 471.957 234.938H471.778V237H468.744ZM471.77 230.455C471.77 231.301 471.889 232.043 472.128 232.679C472.372 233.315 472.721 233.812 473.176 234.17C473.636 234.523 474.193 234.699 474.846 234.699C475.528 234.699 476.099 234.517 476.559 234.153C477.02 233.784 477.366 233.281 477.599 232.645C477.838 232.003 477.957 231.273 477.957 230.455C477.957 229.642 477.841 228.92 477.608 228.29C477.375 227.659 477.028 227.165 476.568 226.807C476.108 226.449 475.534 226.27 474.846 226.27C474.187 226.27 473.628 226.443 473.167 226.79C472.707 227.136 472.358 227.622 472.119 228.247C471.886 228.872 471.77 229.608 471.77 230.455ZM483.725 237V223.909H486.81V237H483.725ZM485.276 222.051C484.787 222.051 484.367 221.889 484.015 221.565C483.662 221.236 483.486 220.841 483.486 220.381C483.486 219.915 483.662 219.52 484.015 219.196C484.367 218.866 484.787 218.702 485.276 218.702C485.77 218.702 486.191 218.866 486.537 219.196C486.89 219.52 487.066 219.915 487.066 220.381C487.066 220.841 486.89 221.236 486.537 221.565C486.191 221.889 485.77 222.051 485.276 222.051ZM493.068 229.33V237H489.983V223.909H492.932V226.134H493.085C493.386 225.401 493.866 224.818 494.525 224.386C495.19 223.955 496.011 223.739 496.988 223.739C497.892 223.739 498.679 223.932 499.349 224.318C500.025 224.705 500.548 225.264 500.917 225.997C501.292 226.73 501.477 227.619 501.471 228.665V237H498.386V229.142C498.386 228.267 498.159 227.582 497.704 227.088C497.255 226.594 496.633 226.347 495.838 226.347C495.298 226.347 494.818 226.466 494.398 226.705C493.983 226.937 493.656 227.276 493.417 227.719C493.184 228.162 493.068 228.699 493.068 229.33ZM509.466 237.23C508.437 237.23 507.517 236.966 506.704 236.438C505.892 235.909 505.25 235.142 504.778 234.136C504.307 233.131 504.071 231.909 504.071 230.472C504.071 229.017 504.309 227.79 504.787 226.79C505.27 225.784 505.92 225.026 506.738 224.514C507.557 223.997 508.469 223.739 509.474 223.739C510.241 223.739 510.872 223.869 511.366 224.131C511.861 224.386 512.253 224.696 512.542 225.06C512.832 225.418 513.057 225.756 513.216 226.074H513.344V219.545H516.437V237H513.403V234.938H513.216C513.057 235.256 512.826 235.594 512.525 235.952C512.224 236.304 511.826 236.605 511.332 236.855C510.838 237.105 510.216 237.23 509.466 237.23ZM510.326 234.699C510.98 234.699 511.537 234.523 511.997 234.17C512.457 233.812 512.807 233.315 513.045 232.679C513.284 232.043 513.403 231.301 513.403 230.455C513.403 229.608 513.284 228.872 513.045 228.247C512.812 227.622 512.466 227.136 512.005 226.79C511.551 226.443 510.991 226.27 510.326 226.27C509.639 226.27 509.065 226.449 508.605 226.807C508.145 227.165 507.798 227.659 507.565 228.29C507.332 228.92 507.216 229.642 507.216 230.455C507.216 231.273 507.332 232.003 507.565 232.645C507.804 233.281 508.153 233.784 508.613 234.153C509.079 234.517 509.65 234.699 510.326 234.699ZM519.725 237V223.909H522.81V237H519.725ZM521.276 222.051C520.787 222.051 520.367 221.889 520.015 221.565C519.662 221.236 519.486 220.841 519.486 220.381C519.486 219.915 519.662 219.52 520.015 219.196C520.367 218.866 520.787 218.702 521.276 218.702C521.77 218.702 522.191 218.866 522.537 219.196C522.89 219.52 523.066 219.915 523.066 220.381C523.066 220.841 522.89 221.236 522.537 221.565C522.191 221.889 521.77 222.051 521.276 222.051ZM529.068 229.33V237H525.983V223.909H528.932V226.134H529.085C529.386 225.401 529.866 224.818 530.525 224.386C531.19 223.955 532.011 223.739 532.988 223.739C533.892 223.739 534.679 223.932 535.349 224.318C536.025 224.705 536.548 225.264 536.917 225.997C537.292 226.73 537.477 227.619 537.471 228.665V237H534.386V229.142C534.386 228.267 534.159 227.582 533.704 227.088C533.255 226.594 532.633 226.347 531.838 226.347C531.298 226.347 530.818 226.466 530.398 226.705C529.983 226.937 529.656 227.276 529.417 227.719C529.184 228.162 529.068 228.699 529.068 229.33ZM546.301 242.182C545.193 242.182 544.241 242.031 543.446 241.73C542.65 241.435 542.011 241.037 541.528 240.537C541.045 240.037 540.71 239.483 540.523 238.875L543.301 238.202C543.426 238.457 543.608 238.71 543.846 238.96C544.085 239.216 544.406 239.426 544.809 239.591C545.219 239.761 545.733 239.847 546.352 239.847C547.227 239.847 547.951 239.634 548.525 239.207C549.099 238.787 549.386 238.094 549.386 237.128V234.648H549.233C549.074 234.966 548.841 235.293 548.534 235.628C548.233 235.963 547.832 236.244 547.332 236.472C546.838 236.699 546.216 236.812 545.466 236.812C544.46 236.812 543.548 236.577 542.73 236.105C541.917 235.628 541.27 234.918 540.787 233.974C540.309 233.026 540.071 231.838 540.071 230.412C540.071 228.974 540.309 227.761 540.787 226.773C541.27 225.778 541.92 225.026 542.738 224.514C543.557 223.997 544.469 223.739 545.474 223.739C546.241 223.739 546.872 223.869 547.366 224.131C547.866 224.386 548.264 224.696 548.559 225.06C548.855 225.418 549.079 225.756 549.233 226.074H549.403V223.909H552.446V237.213C552.446 238.332 552.179 239.259 551.645 239.991C551.111 240.724 550.38 241.273 549.454 241.636C548.528 242 547.477 242.182 546.301 242.182ZM546.326 234.392C546.98 234.392 547.537 234.233 547.997 233.915C548.457 233.597 548.807 233.139 549.045 232.543C549.284 231.946 549.403 231.23 549.403 230.395C549.403 229.571 549.284 228.849 549.045 228.23C548.812 227.611 548.466 227.131 548.005 226.79C547.551 226.443 546.991 226.27 546.326 226.27C545.639 226.27 545.065 226.449 544.605 226.807C544.145 227.165 543.798 227.656 543.565 228.281C543.332 228.901 543.216 229.605 543.216 230.395C543.216 231.196 543.332 231.898 543.565 232.5C543.804 233.097 544.153 233.562 544.613 233.898C545.079 234.227 545.65 234.392 546.326 234.392ZM565.954 227.369L563.142 227.676C563.062 227.392 562.923 227.125 562.724 226.875C562.531 226.625 562.27 226.423 561.94 226.27C561.611 226.116 561.207 226.04 560.73 226.04C560.088 226.04 559.548 226.179 559.111 226.457C558.679 226.736 558.466 227.097 558.471 227.54C558.466 227.92 558.605 228.23 558.889 228.469C559.179 228.707 559.656 228.903 560.321 229.057L562.554 229.534C563.792 229.801 564.713 230.224 565.315 230.804C565.923 231.384 566.23 232.142 566.236 233.08C566.23 233.903 565.988 234.631 565.511 235.261C565.04 235.886 564.383 236.375 563.542 236.727C562.701 237.08 561.736 237.256 560.645 237.256C559.042 237.256 557.753 236.92 556.775 236.25C555.798 235.574 555.216 234.634 555.028 233.429L558.037 233.139C558.173 233.73 558.463 234.176 558.906 234.477C559.349 234.778 559.926 234.929 560.636 234.929C561.369 234.929 561.957 234.778 562.4 234.477C562.849 234.176 563.074 233.804 563.074 233.361C563.074 232.986 562.929 232.676 562.639 232.432C562.355 232.187 561.912 232 561.309 231.869L559.076 231.401C557.821 231.139 556.892 230.699 556.29 230.08C555.687 229.455 555.389 228.665 555.395 227.71C555.389 226.903 555.608 226.205 556.051 225.614C556.5 225.017 557.122 224.557 557.917 224.233C558.719 223.903 559.642 223.739 560.687 223.739C562.221 223.739 563.429 224.065 564.309 224.719C565.196 225.372 565.744 226.256 565.954 227.369ZM581.363 223.909V226.295H573.625V223.909H581.363ZM575.559 237V222.673C575.559 221.793 575.741 221.06 576.105 220.474C576.474 219.889 576.969 219.452 577.588 219.162C578.207 218.872 578.895 218.727 579.65 218.727C580.184 218.727 580.659 218.77 581.074 218.855C581.488 218.94 581.795 219.017 581.994 219.085L581.38 221.472C581.25 221.432 581.085 221.392 580.886 221.352C580.687 221.307 580.466 221.284 580.221 221.284C579.648 221.284 579.241 221.423 579.003 221.702C578.77 221.974 578.653 222.366 578.653 222.878V237H575.559ZM588.998 237.256C587.719 237.256 586.611 236.974 585.674 236.412C584.736 235.849 584.009 235.062 583.492 234.051C582.981 233.04 582.725 231.858 582.725 230.506C582.725 229.153 582.981 227.969 583.492 226.952C584.009 225.935 584.736 225.145 585.674 224.582C586.611 224.02 587.719 223.739 588.998 223.739C590.276 223.739 591.384 224.02 592.322 224.582C593.259 225.145 593.983 225.935 594.495 226.952C595.012 227.969 595.27 229.153 595.27 230.506C595.27 231.858 595.012 233.04 594.495 234.051C593.983 235.062 593.259 235.849 592.322 236.412C591.384 236.974 590.276 237.256 588.998 237.256ZM589.015 234.784C589.708 234.784 590.287 234.594 590.753 234.213C591.219 233.827 591.566 233.31 591.793 232.662C592.026 232.014 592.143 231.293 592.143 230.497C592.143 229.696 592.026 228.972 591.793 228.324C591.566 227.67 591.219 227.151 590.753 226.764C590.287 226.378 589.708 226.185 589.015 226.185C588.304 226.185 587.714 226.378 587.242 226.764C586.776 227.151 586.427 227.67 586.194 228.324C585.966 228.972 585.853 229.696 585.853 230.497C585.853 231.293 585.966 232.014 586.194 232.662C586.427 233.31 586.776 233.827 587.242 234.213C587.714 234.594 588.304 234.784 589.015 234.784ZM597.889 237V223.909H600.88V226.091H601.017C601.255 225.335 601.665 224.753 602.244 224.344C602.829 223.929 603.497 223.722 604.247 223.722C604.417 223.722 604.608 223.73 604.818 223.747C605.034 223.759 605.213 223.778 605.355 223.807V226.645C605.224 226.599 605.017 226.56 604.733 226.526C604.454 226.486 604.184 226.466 603.923 226.466C603.361 226.466 602.855 226.588 602.406 226.832C601.963 227.071 601.613 227.403 601.358 227.83C601.102 228.256 600.974 228.747 600.974 229.304V237H597.889ZM619.895 223.909V226.295H612.369V223.909H619.895ZM614.227 220.773H617.312V233.062C617.312 233.477 617.375 233.795 617.5 234.017C617.63 234.233 617.801 234.381 618.011 234.46C618.221 234.54 618.454 234.58 618.71 234.58C618.903 234.58 619.079 234.565 619.238 234.537C619.403 234.509 619.528 234.483 619.613 234.46L620.133 236.872C619.969 236.929 619.733 236.991 619.426 237.06C619.125 237.128 618.755 237.168 618.318 237.179C617.545 237.202 616.849 237.085 616.23 236.83C615.611 236.568 615.119 236.165 614.755 235.619C614.398 235.074 614.221 234.392 614.227 233.574V220.773ZM625.841 229.33V237H622.756V219.545H625.773V226.134H625.927C626.233 225.395 626.708 224.812 627.35 224.386C627.998 223.955 628.822 223.739 629.822 223.739C630.731 223.739 631.523 223.929 632.199 224.31C632.876 224.69 633.398 225.247 633.768 225.98C634.143 226.713 634.33 227.608 634.33 228.665V237H631.245V229.142C631.245 228.261 631.018 227.577 630.563 227.088C630.114 226.594 629.483 226.347 628.671 226.347C628.126 226.347 627.637 226.466 627.205 226.705C626.779 226.937 626.444 227.276 626.199 227.719C625.961 228.162 625.841 228.699 625.841 229.33ZM643.27 237.256C641.958 237.256 640.824 236.983 639.87 236.438C638.921 235.886 638.191 235.108 637.679 234.102C637.168 233.091 636.912 231.901 636.912 230.531C636.912 229.185 637.168 228.003 637.679 226.986C638.197 225.963 638.918 225.168 639.844 224.599C640.77 224.026 641.858 223.739 643.108 223.739C643.915 223.739 644.677 223.869 645.393 224.131C646.114 224.386 646.751 224.784 647.302 225.324C647.858 225.864 648.296 226.551 648.614 227.386C648.932 228.216 649.091 229.205 649.091 230.352V231.298H638.361V229.219H646.134C646.128 228.628 646.001 228.102 645.751 227.642C645.501 227.176 645.151 226.81 644.702 226.543C644.259 226.276 643.742 226.142 643.151 226.142C642.52 226.142 641.966 226.295 641.489 226.602C641.012 226.903 640.64 227.301 640.373 227.795C640.111 228.284 639.978 228.821 639.972 229.406V231.222C639.972 231.983 640.111 232.636 640.39 233.182C640.668 233.722 641.057 234.136 641.557 234.426C642.057 234.71 642.643 234.852 643.313 234.852C643.762 234.852 644.168 234.79 644.532 234.665C644.895 234.534 645.211 234.344 645.478 234.094C645.745 233.844 645.947 233.534 646.083 233.165L648.964 233.489C648.782 234.25 648.435 234.915 647.924 235.483C647.418 236.045 646.77 236.483 645.981 236.795C645.191 237.102 644.287 237.256 643.27 237.256ZM660.032 237H656.657L662.802 219.545H666.706L672.859 237H669.484L664.822 223.125H664.686L660.032 237ZM660.143 230.156H669.348V232.696H660.143V230.156ZM677.545 223.909L680.187 228.741L682.871 223.909H686.135L682.189 230.455L686.204 237H682.956L680.187 232.287L677.442 237H674.17L678.158 230.455L674.272 223.909H677.545ZM688.522 237V223.909H691.607V237H688.522ZM690.073 222.051C689.584 222.051 689.164 221.889 688.812 221.565C688.459 221.236 688.283 220.841 688.283 220.381C688.283 219.915 688.459 219.52 688.812 219.196C689.164 218.866 689.584 218.702 690.073 218.702C690.567 218.702 690.988 218.866 691.334 219.196C691.687 219.52 691.863 219.915 691.863 220.381C691.863 220.841 691.687 221.236 691.334 221.565C690.988 221.889 690.567 222.051 690.073 222.051ZM700.49 237.256C699.211 237.256 698.103 236.974 697.166 236.412C696.228 235.849 695.501 235.062 694.984 234.051C694.473 233.04 694.217 231.858 694.217 230.506C694.217 229.153 694.473 227.969 694.984 226.952C695.501 225.935 696.228 225.145 697.166 224.582C698.103 224.02 699.211 223.739 700.49 223.739C701.768 223.739 702.876 224.02 703.814 224.582C704.751 225.145 705.476 225.935 705.987 226.952C706.504 227.969 706.763 229.153 706.763 230.506C706.763 231.858 706.504 233.04 705.987 234.051C705.476 235.062 704.751 235.849 703.814 236.412C702.876 236.974 701.768 237.256 700.49 237.256ZM700.507 234.784C701.2 234.784 701.78 234.594 702.246 234.213C702.711 233.827 703.058 233.31 703.285 232.662C703.518 232.014 703.635 231.293 703.635 230.497C703.635 229.696 703.518 228.972 703.285 228.324C703.058 227.67 702.711 227.151 702.246 226.764C701.78 226.378 701.2 226.185 700.507 226.185C699.797 226.185 699.206 226.378 698.734 226.764C698.268 227.151 697.919 227.67 697.686 228.324C697.459 228.972 697.345 229.696 697.345 230.497C697.345 231.293 697.459 232.014 697.686 232.662C697.919 233.31 698.268 233.827 698.734 234.213C699.206 234.594 699.797 234.784 700.507 234.784ZM709.381 237V223.909H712.33V226.134H712.483C712.756 225.384 713.208 224.798 713.839 224.378C714.469 223.952 715.222 223.739 716.097 223.739C716.983 223.739 717.731 223.955 718.339 224.386C718.952 224.812 719.384 225.395 719.634 226.134H719.77C720.06 225.406 720.549 224.827 721.236 224.395C721.929 223.957 722.751 223.739 723.699 223.739C724.904 223.739 725.887 224.119 726.648 224.881C727.41 225.642 727.79 226.753 727.79 228.213V237H724.697V228.69C724.697 227.878 724.481 227.284 724.049 226.909C723.617 226.528 723.089 226.338 722.464 226.338C721.719 226.338 721.137 226.571 720.716 227.037C720.302 227.497 720.094 228.097 720.094 228.835V237H717.069V228.562C717.069 227.886 716.864 227.347 716.455 226.943C716.052 226.54 715.523 226.338 714.87 226.338C714.427 226.338 714.023 226.452 713.66 226.679C713.296 226.901 713.006 227.216 712.79 227.625C712.574 228.028 712.466 228.5 712.466 229.04V237H709.381ZM739.251 237H735.876L742.021 219.545H745.925L752.078 237H748.703L744.041 223.125H743.905L739.251 237ZM739.362 230.156H748.567V232.696H739.362V230.156ZM754.377 237V219.545H760.922C762.263 219.545 763.388 219.795 764.297 220.295C765.212 220.795 765.902 221.483 766.368 222.358C766.84 223.227 767.076 224.216 767.076 225.324C767.076 226.443 766.84 227.437 766.368 228.307C765.897 229.176 765.201 229.861 764.28 230.361C763.36 230.855 762.226 231.102 760.88 231.102H756.542V228.503H760.454C761.238 228.503 761.88 228.366 762.38 228.094C762.88 227.821 763.249 227.446 763.488 226.969C763.732 226.491 763.854 225.943 763.854 225.324C763.854 224.705 763.732 224.159 763.488 223.688C763.249 223.216 762.877 222.849 762.371 222.588C761.871 222.321 761.226 222.188 760.437 222.188H757.539V237H754.377ZM772.984 219.545V237H769.822V219.545H772.984Z" fill="#09101F"/>
<path d="M160.745 333.95C160.578 333.95 160.537 333.866 160.62 333.741L161.496 332.614C161.58 332.489 161.789 332.405 161.956 332.405H176.855C177.022 332.405 177.063 332.531 176.98 332.656L176.27 333.741C176.187 333.866 175.978 333.991 175.853 333.991L160.745 333.95Z" fill="#20294F"/>
<path d="M154.443 337.789C154.276 337.789 154.235 337.706 154.318 337.58L155.195 336.454C155.278 336.328 155.487 336.245 155.654 336.245H174.685C174.852 336.245 174.935 336.37 174.893 336.495L174.559 337.497C174.518 337.664 174.351 337.747 174.184 337.747L154.443 337.789Z" fill="#20294F"/>
<path d="M164.543 341.629C164.376 341.629 164.334 341.504 164.418 341.379L165.002 340.335C165.086 340.21 165.253 340.085 165.42 340.085H173.766C173.933 340.085 174.017 340.21 174.017 340.377L173.933 341.379C173.933 341.545 173.766 341.671 173.641 341.671L164.543 341.629Z" fill="#20294F"/>
<path d="M207.863 333.198C205.234 333.866 203.44 334.367 200.852 335.035C200.226 335.202 200.184 335.243 199.642 334.617C199.016 333.908 198.557 333.449 197.68 333.031C195.051 331.738 192.505 332.113 190.126 333.658C187.288 335.494 185.828 338.207 185.869 341.587C185.911 344.926 188.207 347.68 191.504 348.139C194.342 348.515 196.72 347.513 198.598 345.385C198.974 344.926 199.308 344.425 199.725 343.841C198.223 343.841 196.345 343.841 191.671 343.841C190.794 343.841 190.585 343.298 190.878 342.589C191.42 341.295 192.422 339.125 193.006 338.04C193.131 337.789 193.423 337.372 194.049 337.372C196.178 337.372 204.024 337.372 209.241 337.372C209.157 338.499 209.157 339.626 208.99 340.752C208.531 343.757 207.404 346.512 205.568 348.932C202.563 352.897 198.64 355.359 193.674 356.027C189.584 356.57 185.786 355.777 182.447 353.273C179.359 350.936 177.606 347.847 177.147 344.008C176.604 339.459 177.94 335.369 180.694 331.779C183.658 327.898 187.581 325.436 192.38 324.559C196.303 323.85 200.059 324.309 203.44 326.604C205.652 328.065 207.237 330.068 208.281 332.489C208.531 332.865 208.364 333.073 207.863 333.198Z" fill="#20294F"/>
<path d="M221.678 356.277C217.88 356.194 214.416 355.109 211.494 352.605C209.032 350.476 207.488 347.763 206.987 344.55C206.236 339.834 207.53 335.66 210.368 331.946C213.414 327.94 217.087 325.853 222.053 324.976C226.31 324.225 230.317 324.643 233.948 327.105C237.245 329.359 239.29 332.405 239.832 336.412C240.542 342.046 238.914 346.637 235.033 350.56C232.278 353.356 228.898 355.109 225.016 355.902C223.889 356.11 222.763 356.152 221.678 356.277ZM231.61 339.417C231.569 338.874 231.569 338.457 231.485 338.039C230.734 333.908 226.936 331.57 222.971 332.489C219.09 333.365 216.586 335.827 215.668 339.75C214.917 343.006 216.502 346.303 219.507 347.638C221.803 348.64 224.098 348.515 226.31 347.388C229.607 345.677 231.402 343.006 231.61 339.417Z" fill="#20294F"/>
<path d="M129.863 347.597L120.062 337.804L121.673 336.185L131.474 345.986L129.863 347.597ZM121.673 347.597L120.062 345.986L129.863 336.185L131.474 337.804L121.673 347.597Z" fill="#20294F"/>
</g>
<rect x="0.786865" y="0.5" width="1065.67" height="399" stroke="#E0E0E0"/>
<defs>
<filter id="filter0_d_1_2" x="130.166" y="29.6461" width="835.175" height="207.104" filterUnits="userSpaceOnUse" color-interpolation-filters="sRGB">
<feFlood flood-opacity="0" result="BackgroundImageFix"/>
<feColorMatrix in="SourceAlpha" type="matrix" values="0 0 0 0 0 0 0 0 0 0 0 0 0 0 0 0 0 0 127 0" result="hardAlpha"/>
<feOffset dy="4"/>
<feGaussianBlur stdDeviation="16"/>
<feComposite in2="hardAlpha" operator="out"/>
<feColorMatrix type="matrix" values="0 0 0 0 0.1375 0 0 0 0 0.328673 0 0 0 0 1 0 0 0 1 0"/>
<feBlend mode="normal" in2="BackgroundImageFix" result="effect1_dropShadow_1_2"/>
<feBlend mode="normal" in="SourceGraphic" in2="effect1_dropShadow_1_2" result="shape"/>
</filter>
<linearGradient id="paint0_linear_1_2" x1="19.7213" y1="116.647" x2="-2.87256" y2="156.473" gradientUnits="userSpaceOnUse">
<stop stop-color="#6A68FF"/>
<stop offset="1" stop-color="#6C7EFF" stop-opacity="0"/>
</linearGradient>
<linearGradient id="paint1_linear_1_2" x1="-3.64529e+13" y1="177.186" x2="-3.64529e+13" y2="124.542" gradientUnits="userSpaceOnUse">
<stop stop-color="#6A68FF"/>
<stop offset="1" stop-color="#6C7EFF" stop-opacity="0"/>
</linearGradient>
<linearGradient id="paint2_linear_1_2" x1="-3.64529e+13" y1="199.779" x2="-3.64529e+13" y2="147.135" gradientUnits="userSpaceOnUse">
<stop stop-color="#6A68FF"/>
<stop offset="1" stop-color="#6C7EFF" stop-opacity="0"/>
</linearGradient>
<linearGradient id="paint3_linear_1_2" x1="3.64529e+13" y1="-225668" x2="3.64529e+13" y2="-225616" gradientUnits="userSpaceOnUse">
<stop stop-color="#6A68FF"/>
<stop offset="1" stop-color="#6C7EFF" stop-opacity="0"/>
</linearGradient>
<linearGradient id="paint4_linear_1_2" x1="3.64529e+13" y1="-225668" x2="3.64529e+13" y2="-225616" gradientUnits="userSpaceOnUse">
<stop stop-color="#6A68FF"/>
<stop offset="1" stop-color="#6C7EFF" stop-opacity="0"/>
</linearGradient>
<radialGradient id="paint5_radial_1_2" cx="0" cy="0" r="1" gradientUnits="userSpaceOnUse" gradientTransform="translate(533.5 199.694) rotate(90) scale(199.694 269.511)">
<stop stop-color="white"/>
<stop offset="1" stop-color="#D9D9D9" stop-opacity="0"/>
</radialGradient>
<radialGradient id="paint6_radial_1_2" cx="0" cy="0" r="1" gradientUnits="userSpaceOnUse" gradientTransform="translate(714.517 175.773) rotate(168.941) scale(345.831 9133.05)">
<stop stop-color="#0D0F26"/>
<stop offset="0.622778" stop-color="#384382"/>
<stop offset="0.773151" stop-color="#504F79"/>
<stop offset="1" stop-color="#0D0F26"/>
</radialGradient>
<clipPath id="clip0_1_2">
<rect x="0.286865" width="1066.67" height="400" fill="white"/>
</clipPath>
<clipPath id="clip1_1_2">
<rect width="1085" height="458" fill="white" transform="translate(-9 -29)"/>
</clipPath>
</defs>
</svg>
